{
.appVersion = "3201";
.formatVersion = 3;
axes = (
{
name = Grade;
tag = GRAD;
},
{
name = Weight;
tag = wght;
},
{
name = Slant;
tag = slnt;
}
);
classes = (
{
automatic = 1;
code = "A Aacute Acircumflex Adieresis Agrave Aring Atilde AE B C Ccedilla D Eth E Eacute Ecircumflex Edieresis Egrave F G H I Iacute Icircumflex Idieresis Igrave J K L M N Ntilde O Oacute Ocircumflex Odieresis Ograve Oslash Otilde OE P Thorn Q R S Scaron Germandbls T U Uacute Ucircumflex Udieresis Ugrave V W X Y Yacute Ydieresis Z Zcaron Delta Omega";
name = Uppercase;
}
);
customParameters = (
{
name = "Enforce Compatibility Check";
value = 1;
},
{
name = "Use Extension Kerning";
value = 1;
},
{
name = "Use Typo Metrics";
value = 1;
},
{
name = "Use Line Breaks";
value = 1;
},
{
name = "gasp Table";
value = {
"20" = 7;
"65535" = 15;
"8" = 10;
};
},
{
name = fsType;
value = (
);
},
{
name = "Variable Font Origin";
value = m005;
},
{
name = "Write DisplayStrings";
value = 0;
},
{
name = "Write lastChange";
value = 0;
}
);
date = "2023-04-12 05:09:11 +0000";
familyName = Sutasoma;
featurePrefixes = (
{
automatic = 1;
code = "languagesystem DFLT dflt;

languagesystem latn dflt;
";
name = Languagesystems;
}
);
features = (
{
automatic = 1;
code = "feature calt;
feature subs;
feature sinf;
feature sups;
feature numr;
feature dnom;
feature frac;
feature ordn;
feature case;
feature ss01;
feature ss02;
";
tag = aalt;
},
{
code = "lookup uppercaseSharpS {
	sub @Uppercase germandbls' by Germandbls;
	sub germandbls' @Uppercase by Germandbls;
} uppercaseSharpS;";
tag = calt;
},
{
automatic = 1;
code = "lookup ccmp_Other_1 {
	@CombiningTopAccents = [acutecomb brevecomb breveinvertedcomb caroncomb circumflexcomb dblgravecomb dieresiscomb dotaccentcomb gravecomb hungarumlautcomb macroncomb ringcomb tildecomb];
	lookupflag UseMarkFilteringSet @CombiningTopAccents;
	sub i' @CombiningTopAccents by idotless;
	sub j' @CombiningTopAccents by jdotless;
} ccmp_Other_1;

lookup ccmp_Other_2 {

glyphs = (
{
glyphname = A;
kernLeft = KO_A;
kernRight = KO_A;
layers = (
{
anchors = (
{
name = top;
pos = (298,700);
}
);
layerId = m01;
shapes = (
{
closed = 1;
nodes = (
(93,0,l),
(312,684,l),
(280,684,l),
(505,0,l),
(558,0,l),
(321,700,l),
(282,700,l),
(53,0,l)
);
},
{
closed = 1;
nodes = (
(447,201,l),
(436,233,l),
(155,233,l),
(145,201,l)
);
}
);
userData = {
com.hugojourdan.ColorFlow = {
"0" = 0;
"1" = 0;
"10" = 0;
"11" = 0;
"2" = 0;
"3" = 0;
"4" = 0;
"5" = 0;
"6" = 0;
"7" = 0;
"8" = 0;
"9" = 0;
};
};
width = 611;
},
{
anchors = (
{
name = top;
pos = (308,700);
}
);
layerId = "FF73925E-1E34-445B-881D-5A7CAAA8E8BE";
shapes = (
{
closed = 1;
nodes = (
(115,0,l),
(282,623,l),
(259,624,l),
(416,0,l),
(604,0,l),
(405,700,l),
(211,700,l),
(11,0,l)
);
},
{
closed = 1;
nodes = (
(414,168,l),
(391,258,l),
(144,258,l),
(120,168,l)
);
}
);
userData = {
com.hugojourdan.ColorFlow = {
"0" = 0;
"1" = 0;
"10" = 0;
"11" = 0;
"2" = 0;
"3" = 0;
"4" = 0;
"5" = 0;
"6" = 0;
"7" = 0;
"8" = 0;
"9" = 0;
};
};
width = 615;
},
{
anchors = (
{
name = top;
pos = (306,700);
}
);
layerId = "BF6BA5B2-0556-42F4-A103-614BEBF16A1A";
shapes = (
{
closed = 1;
nodes = (
(103,0,l),
(302,660,l),
(276,660,l),
(475,0,l),
(580,0,l),
(357,700,l),
(254,700,l),
(36,0,l)
);
},
{
closed = 1;
nodes = (
(429,192,l),
(415,239,l),
(163,239,l),
(149,192,l)
);
}
);
userData = {
com.hugojourdan.ColorFlow = {
"0" = 0;
"1" = 0;
"10" = 0;
"11" = 0;
"2" = 0;
"3" = 0;
"4" = 0;
"5" = 0;
"6" = 0;
"7" = 0;
"8" = 0;
"9" = 0;
};
};
width = 616;
},
{
anchors = (
{
name = top;
pos = (309,700);
}
);
layerId = m004;
shapes = (
{
closed = 1;
nodes = (
(95,0,l),
(320,684,l),
(292,684,l),
(516,0,l),
(569,0,l),
(332,700,l),
(279,700,l),
(42,0,l)
);
},
{
closed = 1;
nodes = (
(469,197,l),
(469,237,l),
(142,237,l),
(142,197,l)
);
}
);
userData = {
com.hugojourdan.ColorFlow = {
"0" = 0;
"1" = 0;
"10" = 0;
"11" = 0;
"2" = 0;
"3" = 0;
"4" = 0;
"5" = 0;
"6" = 0;
"7" = 0;
"8" = 0;
"9" = 0;
};
};
width = 611;
},
{
anchors = (
{
name = top;
pos = (317,700);
}
);
layerId = m005;
shapes = (
{
closed = 1;
nodes = (
(141,0,l),
(326,638,l),
(302,638,l),
(486,0,l),
(591,0,l),
(373,700,l),
(254,700,l),
(36,0,l)
);
},
{
closed = 1;
nodes = (
(488,177,l),
(488,254,l),
(143,254,l),
(143,177,l)
);
}
);
userData = {
com.hugojourdan.ColorFlow = {
"0" = 0;
"1" = 0;
"10" = 0;
"11" = 0;
"2" = 0;
"3" = 0;
"4" = 0;
"5" = 0;
"6" = 0;
"7" = 0;
"8" = 0;
"9" = 0;
};
};
width = 627;
},
{
anchors = (
{
name = top;
pos = (314,700);
}
);
layerId = m006;
shapes = (
{
closed = 1;
nodes = (
(199,0,l),
(320,565,l),
(302,565,l),
(422,0,l),
(610,0,l),
(422,700,l),
(199,700,l),
(11,0,l)
);
},
{
closed = 1;
nodes = (
(478,145,l),
(478,281,l),
(143,281,l),
(143,145,l)
);
}
);
userData = {
com.hugojourdan.ColorFlow = {
"0" = 0;
"1" = 0;
"10" = 0;
"11" = 0;
"2" = 0;
"3" = 0;
"4" = 0;
"5" = 0;
"6" = 0;
"7" = 0;
"8" = 0;
"9" = 0;
};
};
width = 621;
},
{
anchors = (
{
name = top;
pos = (388,700);
}
);
layerId = "4E5694F4-F64E-4331-B998-78BE273203C7";
shapes = (
{
closed = 1;
nodes = (
(57,0,l),
(403,682,l),
(374,684,l),
(480,0,l),
(531,0,l),
(417,700,l),
(364,700,l),
(2,0,l)
);
},
{
closed = 1;
nodes = (
(466,197,l),
(473,237,l),
(146,237,l),
(139,197,l)
);
}
);
userData = {
com.hugojourdan.ColorFlow = {
"0" = 0;
"1" = 0;
"10" = 0;
"11" = 0;
"2" = 0;
"3" = 0;
"4" = 0;
"5" = 0;
"6" = 0;
"7" = 0;
"8" = 0;
"9" = 0;
};
};
width = 613;
},
{
anchors = (
{
name = top;
pos = (394,700);
}
);
layerId = "DF4E5521-40BA-460F-874A-364F4D14AAD8";
shapes = (
{
closed = 1;
nodes = (
(104,0,l),
(401,638,l),
(375,638,l),
(449,0,l),
(550,0,l),
(455,700,l),
(336,700,l),
(-5,0,l)
);
},
{
closed = 1;
nodes = (
(478,177,l),
(491,254,l),
(146,254,l),
(133,177,l)
);
}
);
userData = {
com.hugojourdan.ColorFlow = {
"0" = 0;
"1" = 0;
"10" = 0;
"11" = 0;
"2" = 0;
"3" = 0;
"4" = 0;
"5" = 0;
"6" = 0;
"7" = 0;
"8" = 0;
"9" = 0;
};
};
width = 627;
},
{
anchors = (
{
name = top;
pos = (391,700);
}
);
layerId = "C6DE9ED7-34B3-46A1-8A00-A72C4A5E93A3";
shapes = (
{
closed = 1;
nodes = (
(162,0,l),
(381,565,l),
(360,565,l),
(385,0,l),
(568,0,l),
(500,700,l),
(278,700,l),
(-31,0,l)
);
},
{
closed = 1;
nodes = (
(464,145,l),
(487,280,l),
(152,280,l),
(129,145,l)
);
}
);
userData = {
com.hugojourdan.ColorFlow = {
"0" = 0;
"1" = 0;
"10" = 0;
"11" = 0;
"2" = 0;
"3" = 0;
"4" = 0;
"5" = 0;
"6" = 0;
"7" = 0;
"8" = 0;
"9" = 0;
};
};
width = 621;
}
);
metricLeft = "=V";
metricRight = "=|";
note = A;
unicode = 65;
},
{
glyphname = AE;
kernRight = KO_E;
layers = (
{
layerId = m01;
shapes = (
{
closed = 1;
nodes = (
(97,0,l),
(467,684,l),
(433,700,l),
(53,0,l)
);
},
{
closed = 1;
nodes = (
(450,201,l),
(450,233,l),
(188,233,l),
(188,201,l)
);
},
{
closed = 1;
nodes = (
(814,0,l),
(814,32,l),
(457,32,l),
(481,8,l),
(481,692,l),
(457,668,l),
(801,668,l),
(801,700,l),
(433,700,l),
(433,0,l)
);
},
{
closed = 1;
nodes = (
(781,348,l),
(781,378,l),
(457,378,l),
(457,348,l)
);
}
);
userData = {
com.hugojourdan.ColorFlow = {
"0" = 0;
"1" = 0;
"10" = 0;
"11" = 0;
"2" = 0;
"3" = 0;
"4" = 0;
"5" = 0;
"6" = 0;
"7" = 0;
"8" = 0;
"9" = 0;
};
};
width = 861;
},
{
layerId = "BF6BA5B2-0556-42F4-A103-614BEBF16A1A";
shapes = (
{
closed = 1;
nodes = (
(105,0,l),
(460,660,l),
(412,700,l),
(36,0,l)
);
},
{
closed = 1;
nodes = (
(461,192,l),
(461,240,l),
(198,240,l),
(198,192,l)
);
},
{
closed = 1;
nodes = (
(825,0,l),
(825,52,l),
(470,52,l),
(509,13,l),
(509,687,l),
(470,648,l),
(813,648,l),
(813,700,l),
(412,700,l),
(412,0,l)
);
},
{
closed = 1;
nodes = (
(792,339,l),
(792,387,l),
(460,387,l),
(460,339,l)
);
}
);
userData = {
com.hugojourdan.ColorFlow = {
"0" = 0;
"1" = 0;
"10" = 0;
"11" = 0;
"2" = 0;
"3" = 0;
"4" = 0;
"5" = 0;
"6" = 0;
"7" = 0;
"8" = 0;
"9" = 0;
};
};
width = 865;
},
{
layerId = "FF73925E-1E34-445B-881D-5A7CAAA8E8BE";
shapes = (
{
closed = 1;
nodes = (
(115,0,l),
(450,643,l),
(381,700,l),
(11,0,l)
);
},
{
closed = 1;
nodes = (
(470,173,l),
(470,253,l),
(172,253,l),
(172,173,l)
);
},
{
closed = 1;
nodes = (
(832,0,l),
(832,90,l),
(514,90,l),
(559,45,l),
(559,655,l),
(514,610,l),
(822,610,l),
(822,700,l),
(381,700,l),
(381,0,l)
);
},
{
closed = 1;
nodes = (
(799,323,l),
(799,403,l),
(470,403,l),
(470,323,l)
);
}
);
userData = {
com.hugojourdan.ColorFlow = {
"0" = 0;
"1" = 0;
"10" = 0;
"11" = 0;
"2" = 0;
"3" = 0;
"4" = 0;
"5" = 0;
"6" = 0;
"7" = 0;
"8" = 0;
"9" = 0;
};
};
width = 855;
},
{
guides = (
{
pos = (306,641);
}
);
layerId = m004;
shapes = (
{
closed = 1;
nodes = (
(93,0,l),
(452,700,l),
(404,700,l),
(42,0,l)
);
},
{
closed = 1;
nodes = (
(440,197,l),
(440,237,l),
(178,237,l),
(178,197,l)
);
},
{
closed = 1;
nodes = (
(803,0,l),
(803,42,l),
(452,42,l),
(470,24,l),
(470,676,l),
(452,658,l),
(793,658,l),
(793,700,l),
(422,700,l),
(422,0,l)
);
},
{
closed = 1;
nodes = (
(770,342,l),
(770,384,l),
(446,384,l),
(446,342,l)
);
}
);
userData = {
com.hugojourdan.ColorFlow = {
"0" = 0;
"1" = 0;
"10" = 0;
"11" = 0;
"2" = 0;
"3" = 0;
"4" = 0;
"5" = 0;
"6" = 0;
"7" = 0;
"8" = 0;
"9" = 0;
};
};
width = 850;
},
{
guides = (
{
pos = (314,597);
}
);
layerId = m005;
shapes = (
{
closed = 1;
nodes = (
(140,0,l),
(459,700,l),
(359,700,l),
(36,0,l)
);
},
{
closed = 1;
nodes = (
(461,177,l),
(461,254,l),
(198,254,l),
(198,177,l)
);
},
{
closed = 1;
nodes = (
(825,0,l),
(825,78,l),
(485,78,l),
(515,48,l),
(515,652,l),
(485,622,l),
(813,622,l),
(813,700,l),
(417,700,l),
(417,0,l)
);
},
{
closed = 1;
nodes = (
(790,326,l),
(790,400,l),
(465,400,l),
(465,326,l)
);
}
);
userData = {
com.hugojourdan.ColorFlow = {
"0" = 0;
"1" = 0;
"10" = 0;
"11" = 0;
"2" = 0;
"3" = 0;
"4" = 0;
"5" = 0;
"6" = 0;
"7" = 0;
"8" = 0;
"9" = 0;
};
};
width = 865;
},
{
guides = (
{
pos = (315,522);
}
);
layerId = m006;
shapes = (
{
closed = 1;
nodes = (
(195,0,l),
(450,700,l),
(281,700,l),
(11,0,l)
);
},
{
closed = 1;
nodes = (
(474,145,l),
(474,275,l),
(176,275,l),
(176,145,l)
);
},
{
closed = 1;
nodes = (
(836,0,l),
(836,137,l),
(516,137,l),
(563,90,l),
(563,610,l),
(516,563,l),
(826,563,l),
(826,700,l),
(385,700,l),
(385,0,l)
);
},
{
closed = 1;
nodes = (
(803,298,l),
(803,428,l),
(474,428,l),
(474,298,l)
);
}
);
userData = {
com.hugojourdan.ColorFlow = {
"0" = 0;
"1" = 0;
"10" = 0;
"11" = 0;
"2" = 0;
"3" = 0;
"4" = 0;
"5" = 0;
"6" = 0;
"7" = 0;
"8" = 0;
"9" = 0;
};
};
width = 859;
},
{
guides = (
{
pos = (362,639);
}
);
layerId = "4E5694F4-F64E-4331-B998-78BE273203C7";
shapes = (
{
closed = 1;
nodes = (
(56,0,l),
(530,700,l),
(478,700,l),
(2,0,l)
);
},
{
closed = 1;
nodes = (
(446,197,l),
(453,237,l),
(186,237,l),
(179,197,l)
);
},
{
closed = 1;
nodes = (
(763,0,l),
(770,42,l),
(423,42,l),
(435,30,l),
(543,676,l),
(525,658,l),
(860,658,l),
(867,700,l),
(499,700,l),
(382,0,l)
);
},
{
closed = 1;
nodes = (
(787,342,l),
(794,384,l),
(473,384,l),
(467,342,l)
);
}
);
userData = {
com.hugojourdan.ColorFlow = {
"0" = 0;
"1" = 0;
"10" = 0;
"11" = 0;
"2" = 0;
"3" = 0;
"4" = 0;
"5" = 0;
"6" = 0;
"7" = 0;
"8" = 0;
"9" = 0;
};
};
width = 850;
},
{
guides = (
{
pos = (380,593);
}
);
layerId = "DF4E5521-40BA-460F-874A-364F4D14AAD8";
shapes = (
{
closed = 1;
nodes = (
(104,0,l),
(542,700,l),
(435,700,l),
(-5,0,l)
);
},
{
closed = 1;
nodes = (
(462,177,l),
(475,254,l),
(200,254,l),
(187,177,l)
);
},
{
closed = 1;
nodes = (
(784,0,l),
(797,78,l),
(457,78,l),
(482,48,l),
(583,652,l),
(548,622,l),
(875,622,l),
(888,700,l),
(493,700,l),
(376,0,l)
);
},
{
closed = 1;
nodes = (
(802,326,l),
(816,400,l),
(491,400,l),
(479,326,l)
);
}
);
userData = {
com.hugojourdan.ColorFlow = {
"0" = 0;
"1" = 0;
"10" = 0;
"11" = 0;
"2" = 0;
"3" = 0;
"4" = 0;
"5" = 0;
"6" = 0;
"7" = 0;
"8" = 0;
"9" = 0;
};
};
width = 865;
},
{
guides = (
{
angle = 80.5;
pos = (11,251);
},
{
pos = (362,516);
}
);
layerId = "C6DE9ED7-34B3-46A1-8A00-A72C4A5E93A3";
shapes = (
{
closed = 1;
nodes = (
(160,0,l),
(526,700,l),
(352,700,l),
(-31,0,l)
);
},
{
closed = 1;
nodes = (
(459,145,l),
(480,275,l),
(185,275,l),
(164,145,l)
);
},
{
closed = 1;
nodes = (
(795,0,l),
(818,137,l),
(500,137,l),
(537,90,l),
(624,610,l),
(571,563,l),
(879,563,l),
(902,700,l),
(461,700,l),
(344,0,l)
);
},
{
closed = 1;
nodes = (
(812,298,l),
(834,428,l),
(505,428,l),
(483,298,l)
);
}
);
userData = {
com.hugojourdan.ColorFlow = {
"0" = 0;
"1" = 0;
"10" = 0;
"11" = 0;
"2" = 0;
"3" = 0;
"4" = 0;
"5" = 0;
"6" = 0;
"7" = 0;
"8" = 0;
"9" = 0;
};
};
width = 860;
}
);
metricLeft = "=A";
metricRight = "=E";
unicode = 198;
},
{
glyphname = B;
kernLeft = KO_H;
kernRight = KO_B;
layers = (
{
layerId = m01;
shapes = (
{
closed = 1;
nodes = (
(306,0,ls),
(450,0,o),
(531,69,o),
(531,192,cs),
(531,306,o),
(461,372,o),
(335,376,c),
(341,367,l),
(438,377,o),
(493,436,o),
(493,532,cs),
(493,640,o),
(413,700,o),
(270,700,cs),
(102,700,l),
(102,0,l)
);
},
{
closed = 1;
nodes = (
(150,692,l),
(126,668,l),
(275,668,ls),
(383,668,o),
(444,617,o),
(444,526,cs),
(444,435,o),
(383,384,o),
(275,384,cs),
(126,384,l),
(126,352,l),
(292,352,ls),
(415,352,o),
(483,295,o),
(483,192,cs),
(483,89,o),
(415,32,o),
(292,32,cs),
(126,32,l),
(150,8,l)
);
}
);
userData = {
com.hugojourdan.ColorFlow = {
"0" = 0;
"1" = 0;
"10" = 0;
"11" = 0;
"2" = 0;
"3" = 0;
"4" = 0;
"5" = 0;
"6" = 0;
"7" = 0;
"8" = 0;
"9" = 0;
};
};
width = 601;
},
{
layerId = "FF73925E-1E34-445B-881D-5A7CAAA8E8BE";
shapes = (
{
closed = 1;
nodes = (
(289,0,ls),
(485,0,o),
(583,70,o),
(583,209,cs),
(583,331,o),
(517,391,o),
(341,391,c),
(347,376,l),
(496,376,o),
(557,429,o),
(557,522,cs),
(557,646,o),
(472,700,o),
(279,700,cs),
(51,700,l),
(51,0,l)
);
},
{
closed = 1;
nodes = (
(229,655,l),
(184,610,l),
(261,610,ls),
(336,610,o),
(374,578,o),
(374,514,cs),
(374,450,o),
(336,417,o),
(261,417,cs),
(139,417,l),
(139,331,l),
(264,331,ls),
(353,331,o),
(397,291,o),
(397,210,cs),
(397,129,o),
(353,90,o),
(264,90,cs),
(184,90,l),
(229,45,l)
);
}
);
userData = {
com.hugojourdan.ColorFlow = {
"0" = 0;
"1" = 0;
"10" = 0;
"11" = 0;
"2" = 0;
"3" = 0;
"4" = 0;
"5" = 0;
"6" = 0;
"7" = 0;
"8" = 0;
"9" = 0;
};
};
width = 623;
},
{
layerId = "BF6BA5B2-0556-42F4-A103-614BEBF16A1A";
shapes = (
{
closed = 1;
nodes = (
(318,0,ls),
(481,0,o),
(566,68,o),
(566,197,cs),
(566,308,o),
(503,367,o),
(377,376,c),
(377,365,l),
(478,379,o),
(533,440,o),
(533,539,cs),
(533,653,o),
(462,700,o),
(292,700,cs),
(88,700,l),
(88,0,l)
);
},
{
closed = 1;
nodes = (
(185,692,l),
(146,653,l),
(272,653,ls),
(388,653,o),
(432,619,o),
(432,530,cs),
(432,438,o),
(384,391,o),
(289,391,cs),
(137,391,l),
(137,345,l),
(290,345,ls),
(405,345,o),
(461,294,o),
(461,190,cs),
(461,91,o),
(410,47,o),
(296,47,cs),
(146,47,l),
(185,8,l)
);
}
);
userData = {
com.hugojourdan.ColorFlow = {
"0" = 0;
"1" = 0;
"10" = 0;
"11" = 0;
"2" = 0;
"3" = 0;
"4" = 0;
"5" = 0;
"6" = 0;
"7" = 0;
"8" = 0;
"9" = 0;
};
};
width = 619;
},
{
layerId = m004;
shapes = (
{
closed = 1;
nodes = (
(306,0,ls),
(450,0,o),
(531,69,o),
(531,192,cs),
(531,307,o),
(461,373,o),
(335,378,c),
(341,369,l),
(438,378,o),
(493,437,o),
(493,532,cs),
(493,640,o),
(413,700,o),
(270,700,cs),
(102,700,l),
(102,0,l)
);
},
{
closed = 1;
nodes = (
(150,682,l),
(126,658,l),
(275,658,ls),
(382,658,o),
(442,610,o),
(442,524,cs),
(442,438,o),
(382,390,o),
(275,390,cs),
(126,390,l),
(126,350,l),
(292,350,ls),
(412,350,o),
(479,295,o),
(479,195,cs),
(479,96,o),
(412,42,o),
(292,42,cs),
(126,42,l),
(150,18,l)
);
}
);
userData = {
com.hugojourdan.ColorFlow = {
"0" = 0;
"1" = 0;
"10" = 0;
"11" = 0;
"2" = 0;
"3" = 0;
"4" = 0;
"5" = 0;
"6" = 0;
"7" = 0;
"8" = 0;
"9" = 0;
};
};
width = 601;
},
{
layerId = m005;
shapes = (
{
closed = 1;
nodes = (
(321,0,ls),
(482,0,o),
(569,69,o),
(569,197,cs),
(569,311,o),
(502,375,o),
(374,383,c),
(381,366,l),
(478,371,o),
(536,430,o),
(536,522,cs),
(536,641,o),
(457,700,o),
(295,700,cs),
(88,700,l),
(88,0,l)
);
},
{
closed = 1;
nodes = (
(186,662,l),
(147,623,l),
(297,623,ls),
(384,623,o),
(433,583,o),
(433,512,cs),
(433,442,o),
(384,402,o),
(297,402,cs),
(138,402,l),
(138,330,l),
(315,330,ls),
(410,330,o),
(464,284,o),
(464,202,cs),
(464,122,o),
(410,77,o),
(315,77,cs),
(147,77,l),
(186,38,l)
);
}
);
userData = {
com.hugojourdan.ColorFlow = {
"0" = 0;
"1" = 0;
"10" = 0;
"11" = 0;
"2" = 0;
"3" = 0;
"4" = 0;
"5" = 0;
"6" = 0;
"7" = 0;
"8" = 0;
"9" = 0;
};
};
width = 622;
},
{
layerId = m006;
shapes = (
{
closed = 1;
nodes = (
(289,0,ls),
(486,0,o),
(583,71,o),
(583,209,cs),
(583,322,o),
(517,377,o),
(381,377,c),
(387,362,l),
(501,362,o),
(557,427,o),
(557,526,cs),
(557,647,o),
(475,700,o),
(279,700,cs),
(51,700,l),
(51,0,l)
);
},
{
closed = 1;
nodes = (
(229,609,l),
(184,564,l),
(293,564,ls),
(354,564,o),
(374,528,o),
(374,492,cs),
(374,457,o),
(354,421,o),
(293,421,cs),
(141,421,l),
(141,291,l),
(314,291,ls),
(357,291,o),
(397,266,o),
(397,212,cs),
(397,160,o),
(357,136,o),
(314,136,cs),
(184,136,l),
(229,91,l)
);
}
);
userData = {
com.hugojourdan.ColorFlow = {
"0" = 0;
"1" = 0;
"10" = 0;
"11" = 0;
"2" = 0;
"3" = 0;
"4" = 0;
"5" = 0;
"6" = 0;
"7" = 0;
"8" = 0;
"9" = 0;
};
};
width = 619;
},
{
background = {
shapes = (
{
closed = 0;
nodes = (
(299,0,ls),
(422,0,o),
(501,61,o),
(520,174,cs),
(522,188,o),
(523,201,o),
(523,214,cs),
(523,304,o),
(465,361,o),
(356,373,c),
(360,364,l),
(458,366,o),
(523,420,o),
(538,516,cs),
(540,527,o),
(541,538,o),
(541,548,cs),
(541,635,o),
(472,689,o),
(345,700,c)
);
},
{
closed = 0;
nodes = (
(344,658,l),
(439,650,o),
(491,609,o),
(491,539,cs),
(491,531,o),
(490,522,o),
(489,513,cs),
(475,433,o),
(417,390,o),
(326,390,cs)
);
},
{
closed = 0;
nodes = (
(309,350,l),
(418,341,o),
(476,292,o),
(476,212,cs),
(476,202,o),
(475,192,o),
(473,181,cs),
(457,90,o),
(393,42,o),
(289,42,cs)
);
}
);
};
guides = (
{
angle = 80.5;
pos = (102,239);
},
{
angle = 80.5;
pos = (531,239);
},
{
angle = 80.5;
pos = (150,239);
},
{
angle = 80.5;
pos = (479,239);
},
{
angle = 80.5;
pos = (493,239);
},
{
angle = 80.5;
pos = (442,239);
}
);
layerId = "4E5694F4-F64E-4331-B998-78BE273203C7";
shapes = (
{
closed = 1;
nodes = (
(289,0,ls),
(429,0,o),
(522,82,o),
(522,206,cs),
(522,301,o),
(470,356,o),
(356,380,c),
(360,365,l),
(465,366,o),
(541,441,o),
(541,542,cs),
(541,645,o),
(459,700,o),
(321,700,cs),
(179,700,l),
(62,0,l)
);
},
{
closed = 1;
nodes = (
(223,676,l),
(205,658,l),
(326,658,ls),
(434,658,o),
(490,618,o),
(490,541,cs),
(490,447,o),
(428,390,o),
(326,390,cs),
(152,390,l),
(145,350,l),
(294,350,ls),
(409,350,o),
(471,299,o),
(471,206,cs),
(471,108,o),
(397,42,o),
(289,42,cs),
(103,42,l),
(115,30,l)
);
}
);
userData = {
com.hugojourdan.ColorFlow = {
"0" = 0;
"1" = 0;
"10" = 0;
"11" = 0;
"2" = 0;
"3" = 0;
"4" = 0;
"5" = 0;
"6" = 0;
"7" = 0;
"8" = 0;
"9" = 0;
};
};
width = 601;
},
{
background = {
shapes = (
{
closed = 0;
nodes = (
(361,623,l),
(436,616,o),
(478,582,o),
(478,526,cs),
(478,452,o),
(427,402,o),
(344,402,cs)
);
},
{
closed = 0;
nodes = (
(329,330,l),
(412,323,o),
(457,283,o),
(457,219,cs),
(457,130,o),
(401,77,o),
(311,77,cs)
);
},
{
closed = 0;
nodes = (
(322,0,ls),
(494,0,o),
(561,105,o),
(561,221,cs),
(561,309,o),
(505,363,o),
(395,379,c),
(401,362,l),
(529,362,o),
(582,443,o),
(582,540,cs),
(582,635,o),
(512,688,o),
(371,700,c)
);
}
);
};
layerId = "DF4E5521-40BA-460F-874A-364F4D14AAD8";
shapes = (
{
closed = 1;
nodes = (
(314,0,ls),
(464,0,o),
(560,84,o),
(560,215,cs),
(560,310,o),
(508,361,o),
(394,379,c),
(400,362,l),
(511,362,o),
(581,429,o),
(581,535,cs),
(581,644,o),
(502,700,o),
(350,700,cs),
(164,700,l),
(47,0,l)
);
},
{
closed = 1;
nodes = (
(254,652,l),
(219,623,l),
(340,623,ls),
(430,623,o),
(477,588,o),
(477,522,cs),
(477,451,o),
(422,402,o),
(343,402,cs),
(182,402,l),
(170,330,l),
(316,330,ls),
(407,330,o),
(456,289,o),
(456,213,cs),
(456,130,o),
(397,77,o),
(306,77,cs),
(127,77,l),
(153,48,l)
);
}
);
userData = {
com.hugojourdan.ColorFlow = {
"0" = 0;
"1" = 0;
"10" = 0;
"11" = 0;
"2" = 0;
"3" = 0;
"4" = 0;
"5" = 0;
"6" = 0;
"7" = 0;
"8" = 0;
"9" = 0;
};
};
width = 622;
},
{
background = {
shapes = (
{
closed = 0;
nodes = (
(307,0,ls),
(465,0,o),
(552,64,o),
(573,188,cs),
(575,202,o),
(577,215,o),
(577,228,cs),
(577,314,o),
(519,362,o),
(401,372,c),
(404,356,l),
(411,355,o),
(419,355,o),
(426,355,cs),
(526,355,o),
(585,414,o),
(600,506,cs),
(602,519,o),
(603,531,o),
(603,542,cs),
(603,637,o),
(526,686,o),
(353,700,c)
);
},
{
closed = 0;
nodes = (
(320,291,l),
(358,288,o),
(391,266,o),
(391,223,cs),
(391,162,o),
(348,136,o),
(304,136,cs)
);
},
{
closed = 0;
nodes = (
(345,563,l),
(397,559,o),
(414,531,o),
(414,501,cs),
(414,463,o),
(393,421,o),
(333,421,cs)
);
}
);
};
guides = (
{
angle = 80.5;
pos = (51,251);
},
{
angle = 80.5;
pos = (229,251);
},
{
angle = 80.5;
pos = (583,251);
},
{
angle = 80.5;
pos = (557,251);
},
{
angle = 80.5;
pos = (397,251);
},
{
angle = 80.5;
pos = (375,251);
}
);
layerId = "C6DE9ED7-34B3-46A1-8A00-A72C4A5E93A3";
shapes = (
{
closed = 1;
nodes = (
(307,0,ls),
(469,0,o),
(575,87,o),
(575,220,cs),
(575,315,o),
(524,360,o),
(401,372,c),
(404,356,l),
(510,339,o),
(602,422,o),
(602,536,cs),
(602,644,o),
(517,700,o),
(353,700,cs),
(126,700,l),
(9,0,l)
);
},
{
closed = 1;
nodes = (
(289,610,l),
(236,563,l),
(340,563,ls),
(387,563,o),
(414,540,o),
(414,498,cs),
(414,452,o),
(381,421,o),
(333,421,cs),
(169,421,l),
(146,291,l),
(314,291,ls),
(361,291,o),
(390,263,o),
(390,217,cs),
(390,169,o),
(354,136,o),
(303,136,cs),
(165,137,l),
(202,90,l)
);
}
);
userData = {
com.hugojourdan.ColorFlow = {
"0" = 0;
"1" = 0;
"10" = 0;
"11" = 0;
"2" = 0;
"3" = 0;
"4" = 0;
"5" = 0;
"6" = 0;
"7" = 0;
"8" = 0;
"9" = 0;
};
};
width = 619;
}
);
metricLeft = "=H";
note = B;
unicode = 66;
},
{
glyphname = C;
kernLeft = KO_O;
kernRight = KO_C;
layers = (
{
anchors = (
{
name = bottom;
pos = (362,0);
}
);
layerId = m01;
shapes = (
{
closed = 1;
nodes = (
(435,-10,o),
(508,16,o),
(555,69,c),
(516,98,l),
(489,52,o),
(426,22,o),
(361,22,cs),
(221,22,o),
(141,140,o),
(141,350,cs),
(141,560,o),
(221,678,o),
(361,678,cs),
(426,678,o),
(489,648,o),
(516,602,c),
(549,637,l),
(502,686,o),
(432,710,o),
(363,710,cs),
(187,710,o),
(88,581,o),
(88,350,cs),
(88,119,o),
(187,-10,o),
(363,-10,cs)
);
}
);
userData = {
com.hugojourdan.ColorFlow = {
"0" = 0;
"1" = 0;
"10" = 0;
"11" = 0;
"2" = 0;
"3" = 0;
"4" = 0;
"5" = 0;
"6" = 0;
"7" = 0;
"8" = 0;
"9" = 0;
};
};
width = 628;
},
{
anchors = (
{
name = bottom;
pos = (352,0);
}
);
layerId = "FF73925E-1E34-445B-881D-5A7CAAA8E8BE";
shapes = (
{
closed = 1;
nodes = (
(466,-10,o),
(565,40,o),
(615,121,c),
(486,211,l),
(462,155,o),
(420,80,o),
(361,80,cs),
(281,80,o),
(231,178,o),
(231,355,cs),
(231,523,o),
(277,616,o),
(349,616,cs),
(405,616,o),
(438,556,o),
(458,495,c),
(603,546,l),
(561,657,o),
(458,710,o),
(350,710,cs),
(157,710,o),
(43,581,o),
(43,350,cs),
(43,119,o),
(157,-10,o),
(349,-10,cs)
);
}
);
userData = {
com.hugojourdan.ColorFlow = {
"0" = 0;
"1" = 0;
"10" = 0;
"11" = 0;
"2" = 0;
"3" = 0;
"4" = 0;
"5" = 0;
"6" = 0;
"7" = 0;
"8" = 0;
"9" = 0;
};
};
width = 651;
},
{
anchors = (
{
name = bottom;
pos = (352,0);
}
);
layerId = "BF6BA5B2-0556-42F4-A103-614BEBF16A1A";
shapes = (
{
closed = 1;
nodes = (
(461,-10,o),
(557,43,o),
(588,114,c),
(506,145,l),
(485,86,o),
(424,42,o),
(354,42,cs),
(228,42,o),
(178,185,o),
(178,350,cs),
(178,515,o),
(228,658,o),
(353,658,cs),
(424,658,o),
(485,614,o),
(506,555,c),
(586,591,l),
(554,658,o),
(460,710,o),
(351,710,cs),
(152,710,o),
(73,530,o),
(73,350,cs),
(73,169,o),
(153,-10,o),
(351,-10,cs)
);
}
);
userData = {
com.hugojourdan.ColorFlow = {
"0" = 0;
"1" = 0;
"10" = 0;
"11" = 0;
"2" = 0;
"3" = 0;
"4" = 0;
"5" = 0;
"6" = 0;
"7" = 0;
"8" = 0;
"9" = 0;
};
};
width = 649;
},
{
anchors = (
{
name = bottom;
pos = (361,0);
}
);
background = {
shapes = (
{
pos = (18,0);
ref = O;
}
);
};
layerId = m004;
shapes = (
{
closed = 1;
nodes = (
(434,-10,o),
(508,16,o),
(555,69,c),
(522,104,l),
(494,68,o),
(428,34,o),
(360,34,cs),
(221,34,o),
(141,148,o),
(141,350,cs),
(141,552,o),
(221,666,o),
(360,666,cs),
(425,666,o),
(489,635,o),
(516,602,c),
(549,637,l),
(502,686,o),
(431,710,o),
(362,710,cs),
(187,710,o),
(88,581,o),
(88,350,cs),
(88,119,o),
(187,-10,o),
(362,-10,cs)
);
}
);
userData = {
com.hugojourdan.ColorFlow = {
"0" = 0;
"1" = 0;
"10" = 0;
"11" = 0;
"2" = 0;
"3" = 0;
"4" = 0;
"5" = 0;
"6" = 0;
"7" = 0;
"8" = 0;
"9" = 0;
};
};
width = 628;
},
{
anchors = (
{
name = bottom;
pos = (370,0);
}
);
background = {
shapes = (
{
pos = (12,0);
ref = O;
}
);
};
guides = (
{
angle = 90;
pos = (592,121);
},
{
angle = 90;
pos = (574,121);
}
);
layerId = m005;
shapes = (
{
closed = 1;
nodes = (
(458,-10,o),
(540,24,o),
(588,78,c),
(533,143,l),
(494,103,o),
(427,74,o),
(373,74,cs),
(249,74,o),
(179,175,o),
(179,350,cs),
(179,526,o),
(248,626,o),
(370,626,cs),
(426,626,o),
(494,597,o),
(534,557,c),
(585,626,l),
(535,678,o),
(453,710,o),
(368,710,cs),
(180,710,o),
(73,579,o),
(73,350,cs),
(73,120,o),
(181,-10,o),
(372,-10,cs)
);
}
);
userData = {
com.hugojourdan.ColorFlow = {
"0" = 0;
"1" = 0;
"10" = 0;
"11" = 0;
"2" = 0;
"3" = 0;
"4" = 0;
"5" = 0;
"6" = 0;
"7" = 0;
"8" = 0;
"9" = 0;
};
};
width = 649;
},
{
anchors = (
{
name = bottom;
pos = (369,0);
}
);
guides = (
{
angle = 122.969;
pos = (615,95);
},
{
angle = 90;
pos = (615,121);
},
{
angle = 90;
pos = (482,121);
},
{
pos = (446,43);
},
{
angle = 90;
pos = (597,121);
}
);
layerId = m006;
shapes = (
{
closed = 1;
nodes = (
(480,-10,o),
(569,39,o),
(615,92,c),
(535,215,l),
(496,178,o),
(435,138,o),
(380,138,cs),
(303,138,o),
(231,191,o),
(231,350,cs),
(231,509,o),
(299,562,o),
(371,562,cs),
(435,562,o),
(484,522,o),
(523,485,c),
(603,608,l),
(558,661,o),
(470,710,o),
(364,710,cs),
(163,710,o),
(43,581,o),
(43,350,cs),
(43,119,o),
(166,-10,o),
(373,-10,cs)
);
}
);
userData = {
com.hugojourdan.ColorFlow = {
"0" = 0;
"1" = 0;
"10" = 0;
"11" = 0;
"2" = 0;
"3" = 0;
"4" = 0;
"5" = 0;
"6" = 0;
"7" = 0;
"8" = 0;
"9" = 0;
};
};
width = 651;
},
{
anchors = (
{
name = bottom;
pos = (296,0);
}
);
background = {
shapes = (
{
pos = (21,0);
ref = O;
}
);
};
guides = (
{
angle = 80.5;
pos = (88,239);
},
{
angle = 80.5;
pos = (141,239);
},
{
angle = 80.5;
pos = (555,239);
}
);
layerId = "4E5694F4-F64E-4331-B998-78BE273203C7";
shapes = (
{
closed = 1;
nodes = (
(410,-10,o),
(475,11,o),
(524,54,c),
(497,91,l),
(467,60,o),
(406,33,o),
(345,33,cs),
(222,33,o),
(154,119,o),
(154,267,cs),
(154,413,o),
(215,667,o),
(412,667,cs),
(484,667,o),
(551,626,o),
(574,588,c),
(612,620,l),
(569,682,o),
(488,710,o),
(412,710,cs),
(168,710,o),
(101,422,o),
(101,264,cs),
(101,94,o),
(187,-10,o),
(346,-10,cs)
);
}
);
userData = {
com.hugojourdan.ColorFlow = {
"0" = 0;
"1" = 0;
"10" = 0;
"11" = 0;
"2" = 0;
"3" = 0;
"4" = 0;
"5" = 0;
"6" = 0;
"7" = 0;
"8" = 0;
"9" = 0;
};
};
width = 628;
},
{
anchors = (
{
name = bottom;
pos = (308,0);
}
);
background = {
shapes = (
{
pos = (-1,0);
ref = O;
}
);
};
guides = (
{
angle = 80.5;
pos = (73,245);
},
{
angle = 80.5;
pos = (178,245);
},
{
angle = 80.5;
pos = (588,245);
}
);
layerId = "DF4E5521-40BA-460F-874A-364F4D14AAD8";
shapes = (
{
closed = 1;
nodes = (
(435,-10,o),
(505,16,o),
(556,61,c),
(512,130,l),
(469,96,o),
(410,74,o),
(354,74,cs),
(247,74,o),
(191,157,o),
(191,280,cs),
(191,395,o),
(240,626,o),
(414,626,cs),
(482,626,o),
(544,591,o),
(581,542,c),
(643,607,l),
(590,680,o),
(495,710,o),
(412,710,cs),
(184,710,o),
(87,477,o),
(87,273,cs),
(87,73,o),
(207,-10,o),
(354,-10,cs)
);
}
);
userData = {
com.hugojourdan.ColorFlow = {
"0" = 0;
"1" = 0;
"10" = 0;
"11" = 0;
"2" = 0;
"3" = 0;
"4" = 0;
"5" = 0;
"6" = 0;
"7" = 0;
"8" = 0;
"9" = 0;
};
};
width = 648;
},
{
anchors = (
{
name = bottom;
pos = (357,0);
}
);
guides = (
{
angle = 80.5;
pos = (43,251);
},
{
angle = 80.5;
pos = (231,251);
},
{
angle = 80.5;
pos = (615,251);
}
);
layerId = "C6DE9ED7-34B3-46A1-8A00-A72C4A5E93A3";
shapes = (
{
closed = 1;
nodes = (
(456,-10,o),
(535,28,o),
(585,71,c),
(525,200,l),
(485,169,o),
(424,138,o),
(369,138,cs),
(305,138,o),
(243,180,o),
(243,294,cs),
(243,384,o),
(282,562,o),
(413,562,cs),
(480,562,o),
(524,515,o),
(559,472,c),
(658,587,l),
(607,668,o),
(507,710,o),
(404,710,cs),
(169,710,o),
(57,499,o),
(57,286,cs),
(57,81,o),
(195,-10,o),
(357,-10,cs)
);
}
);
userData = {
com.hugojourdan.ColorFlow = {
"0" = 0;
"1" = 0;
"10" = 0;
"11" = 0;
"2" = 0;
"3" = 0;
"4" = 0;
"5" = 0;
"6" = 0;
"7" = 0;
"8" = 0;
"9" = 0;
};
};
width = 651;
}
);
metricLeft = "=O";
metricRight = "=|*0.83";
note = C;
unicode = 67;
},
{
glyphname = D;
kernLeft = KO_H;
kernRight = KO_O;
layers = (
{
layerId = m01;
shapes = (
{
closed = 1;
nodes = (
(272,0,ls),
(475,0,o),
(580,119,o),
(580,350,cs),
(580,581,o),
(476,700,o),
(276,700,cs),
(102,700,l),
(102,0,l)
);
},
{
closed = 1;
nodes = (
(150,692,l),
(126,668,l),
(267,668,ls),
(440,668,o),
(527,562,o),
(527,350,cs),
(527,139,o),
(442,32,o),
(275,32,cs),
(126,32,l),
(150,8,l)
);
}
);
userData = {
com.hugojourdan.ColorFlow = {
"0" = 0;
"1" = 0;
"10" = 0;
"11" = 0;
"2" = 0;
"3" = 0;
"4" = 0;
"5" = 0;
"6" = 0;
"7" = 0;
"8" = 0;
"9" = 0;
};
};
width = 668;
},
{
layerId = "FF73925E-1E34-445B-881D-5A7CAAA8E8BE";
shapes = (
{
closed = 1;
nodes = (
(267,0,ls),
(503,0,o),
(620,116,o),
(620,350,cs),
(620,584,o),
(503,700,o),
(267,700,cs),
(51,700,l),
(51,0,l)
);
},
{
closed = 1;
nodes = (
(229,655,l),
(184,610,l),
(282,610,ls),
(382,610,o),
(432,524,o),
(432,350,cs),
(432,176,o),
(382,89,o),
(282,89,cs),
(184,89,l),
(229,44,l)
);
}
);
userData = {
com.hugojourdan.ColorFlow = {
"0" = 0;
"1" = 0;
"10" = 0;
"11" = 0;
"2" = 0;
"3" = 0;
"4" = 0;
"5" = 0;
"6" = 0;
"7" = 0;
"8" = 0;
"9" = 0;
};
};
width = 663;
},
{
layerId = "BF6BA5B2-0556-42F4-A103-614BEBF16A1A";
shapes = (
{
closed = 1;
nodes = (
(274,0,ls),
(469,0,o),
(603,142,o),
(603,350,cs),
(603,558,o),
(469,700,o),
(274,700,cs),
(88,700,l),
(88,0,l)
);
},
{
closed = 1;
nodes = (
(185,691,l),
(146,652,l),
(276,652,ls),
(409,652,o),
(498,531,o),
(498,350,cs),
(498,169,o),
(409,48,o),
(276,48,cs),
(146,48,l),
(185,9,l)
);
}
);
userData = {
com.hugojourdan.ColorFlow = {
"0" = 0;
"1" = 0;
"10" = 0;
"11" = 0;
"2" = 0;
"3" = 0;
"4" = 0;
"5" = 0;
"6" = 0;
"7" = 0;
"8" = 0;
"9" = 0;
};
};
width = 676;
},
{
layerId = m004;
shapes = (
{
closed = 1;
nodes = (
(305,0,ls),
(484,0,o),
(580,129,o),
(580,350,cs),
(580,571,o),
(484,700,o),
(309,700,cs),
(102,700,l),
(102,0,l)
);
},
{
closed = 1;
nodes = (
(150,676,l),
(132,658,l),
(300,658,ls),
(450,658,o),
(527,544,o),
(527,350,cs),
(527,156,o),
(450,42,o),
(308,42,cs),
(132,42,l),
(150,24,l)
);
}
);
userData = {
com.hugojourdan.ColorFlow = {
"0" = 0;
"1" = 0;
"10" = 0;
"11" = 0;
"2" = 0;
"3" = 0;
"4" = 0;
"5" = 0;
"6" = 0;
"7" = 0;
"8" = 0;
"9" = 0;
};
};
width = 668;
},
{
layerId = m005;
shapes = (
{
closed = 1;
nodes = (
(296,0,ls),
(499,0,o),
(603,124,o),
(603,350,cs),
(603,576,o),
(499,700,o),
(299,700,cs),
(88,700,l),
(88,0,l)
);
},
{
closed = 1;
nodes = (
(186,652,l),
(156,622,l),
(299,622,ls),
(431,622,o),
(498,524,o),
(498,350,cs),
(498,176,o),
(431,78,o),
(304,78,cs),
(156,78,l),
(186,48,l)
);
}
);
userData = {
com.hugojourdan.ColorFlow = {
"0" = 0;
"1" = 0;
"10" = 0;
"11" = 0;
"2" = 0;
"3" = 0;
"4" = 0;
"5" = 0;
"6" = 0;
"7" = 0;
"8" = 0;
"9" = 0;
};
};
width = 676;
},
{
layerId = m006;
shapes = (
{
closed = 1;
nodes = (
(267,0,ls),
(503,0,o),
(620,116,o),
(620,350,cs),
(620,584,o),
(503,700,o),
(267,700,cs),
(51,700,l),
(51,0,l)
);
},
{
closed = 1;
nodes = (
(229,610,l),
(183,564,l),
(282,564,ls),
(382,564,o),
(432,493,o),
(432,350,cs),
(432,207,o),
(382,136,o),
(282,136,cs),
(181,136,l),
(229,90,l)
);
}
);
userData = {
com.hugojourdan.ColorFlow = {
"0" = 0;
"1" = 0;
"10" = 0;
"11" = 0;
"2" = 0;
"3" = 0;
"4" = 0;
"5" = 0;
"6" = 0;
"7" = 0;
"8" = 0;
"9" = 0;
};
};
width = 663;
},
{
background = {
shapes = (
{
closed = 0;
nodes = (
(603,429,ls),
(603,592,o),
(531,687,o),
(386,700,c)
);
},
{
closed = 0;
nodes = (
(371,658,l),
(491,648,o),
(551,568,o),
(551,431,cs)
);
}
);
};
guides = (
{
angle = 80.5;
pos = (102,239);
},
{
angle = 80.5;
pos = (580,239);
},
{
angle = 80.5;
pos = (527,239);
},
{
angle = 80.5;
pos = (150,239);
},
{
angle = 80.5;
pos = (131,239);
}
);
layerId = "4E5694F4-F64E-4331-B998-78BE273203C7";
shapes = (
{
closed = 1;
nodes = (
(286,0,ls),
(531,0,o),
(603,264,o),
(603,429,cs),
(603,592,o),
(532,700,o),
(326,700,cs),
(179,700,l),
(62,0,l)
);
},
{
closed = 1;
nodes = (
(223,676,l),
(201,658,l),
(323,658,ls),
(492,658,o),
(551,568,o),
(551,431,cs),
(551,294,o),
(493,42,o),
(285,42,cs),
(98,42,l),
(114,24,l)
);
}
);
userData = {
com.hugojourdan.ColorFlow = {
"0" = 0;
"1" = 0;
"10" = 0;
"11" = 0;
"2" = 0;
"3" = 0;
"4" = 0;
"5" = 0;
"6" = 0;
"7" = 0;
"8" = 0;
"9" = 0;
};
};
width = 668;
},
{
guides = (
{
angle = 80.5069;
pos = (173,350);
},
{
angle = 80.5;
pos = (88,245);
},
{
angle = 80.5;
pos = (603,245);
},
{
angle = 80.5;
pos = (498,245);
}
);
layerId = "DF4E5521-40BA-460F-874A-364F4D14AAD8";
shapes = (
{
closed = 1;
nodes = (
(293,0,ls),
(535,0,o),
(624,232,o),
(624,417,cs),
(624,591,o),
(545,700,o),
(339,700,cs),
(164,700,l),
(47,0,l)
);
},
{
closed = 1;
nodes = (
(254,652,l),
(219,622,l),
(342,622,ls),
(468,622,o),
(521,544,o),
(521,424,cs),
(521,308,o),
(475,78,o),
(295,78,cs),
(128,78,l),
(153,48,l)
);
}
);
userData = {
com.hugojourdan.ColorFlow = {
"0" = 0;
"1" = 0;
"10" = 0;
"11" = 0;
"2" = 0;
"3" = 0;
"4" = 0;
"5" = 0;
"6" = 0;
"7" = 0;
"8" = 0;
"9" = 0;
};
};
width = 676;
},
{
background = {
shapes = (
{
closed = 0;
nodes = (
(333,563,l),
(413,556,o),
(453,510,o),
(453,413,cs)
);
},
{
closed = 0;
nodes = (
(638,403,ls),
(638,590,o),
(549,680,o),
(340,700,c)
);
}
);
};
guides = (
{
angle = 80.5;
pos = (51,251);
},
{
angle = 80.5;
pos = (620,251);
},
{
angle = 80.5;
pos = (229,251);
},
{
angle = 80.5;
pos = (432,251);
}
);
layerId = "C6DE9ED7-34B3-46A1-8A00-A72C4A5E93A3";
shapes = (
{
closed = 1;
nodes = (
(269,0,ls),
(493,0,o),
(637,156,o),
(637,398,cs),
(637,609,o),
(531,700,o),
(286,700,cs),
(126,700,l),
(9,0,l)
);
},
{
closed = 1;
nodes = (
(289,610,l),
(236,563,l),
(319,563,ls),
(411,563,o),
(452,514,o),
(452,405,cs),
(452,253,o),
(372,137,o),
(268,137,cs),
(165,137,l),
(202,90,l)
);
}
);
userData = {
com.hugojourdan.ColorFlow = {
"0" = 0;
"1" = 0;
"10" = 0;
"11" = 0;
"2" = 0;
"3" = 0;
"4" = 0;
"5" = 0;
"6" = 0;
"7" = 0;
"8" = 0;
"9" = 0;
};
};
width = 663;
}
);
metricLeft = "=H";
metricRight = "=O";
note = D;
unicode = 68;
},
{
glyphname = E;
kernLeft = KO_H;
kernRight = KO_E;
layers = (
{
anchors = (
{
name = top;
pos = (286,700);
}
);
layerId = m01;
shapes = (
{
closed = 1;
nodes = (
(483,0,l),
(483,32,l),
(126,32,l),
(150,8,l),
(150,692,l),
(126,668,l),
(470,668,l),
(470,700,l),
(102,700,l),
(102,0,l)
);
},
{
closed = 1;
nodes = (
(450,348,l),
(450,378,l),
(126,378,l),
(126,348,l)
);
}
);
userData = {
com.hugojourdan.ColorFlow = {
"0" = 0;
"1" = 0;
"10" = 0;
"11" = 0;
"2" = 0;
"3" = 0;
"4" = 0;
"5" = 0;
"6" = 0;
"7" = 0;
"8" = 0;
"9" = 0;
};
};
width = 530;
},
{
anchors = (
{
name = top;
pos = (267,700);
}
);
layerId = "FF73925E-1E34-445B-881D-5A7CAAA8E8BE";
shapes = (
{
closed = 1;
nodes = (
(492,0,l),
(492,90,l),
(184,90,l),
(229,45,l),
(229,655,l),
(184,610,l),
(482,610,l),
(482,700,l),
(51,700,l),
(51,0,l)
);
},
{
closed = 1;
nodes = (
(459,323,l),
(459,403,l),
(140,403,l),
(140,323,l)
);
}
);
userData = {
com.hugojourdan.ColorFlow = {
"0" = 0;
"1" = 0;
"10" = 0;
"11" = 0;
"2" = 0;
"3" = 0;
"4" = 0;
"5" = 0;
"6" = 0;
"7" = 0;
"8" = 0;
"9" = 0;
};
};
width = 515;
},
{
anchors = (
{
name = top;
pos = (284,700);
}
);
layerId = "BF6BA5B2-0556-42F4-A103-614BEBF16A1A";
shapes = (
{
closed = 1;
nodes = (
(491,0,l),
(491,52,l),
(146,52,l),
(185,13,l),
(185,687,l),
(146,648,l),
(479,648,l),
(479,700,l),
(88,700,l),
(88,0,l)
);
},
{
closed = 1;
nodes = (
(458,339,l),
(458,387,l),
(136,387,l),
(136,339,l)
);
}
);
userData = {
com.hugojourdan.ColorFlow = {
"0" = 0;
"1" = 0;
"10" = 0;
"11" = 0;
"2" = 0;
"3" = 0;
"4" = 0;
"5" = 0;
"6" = 0;
"7" = 0;
"8" = 0;
"9" = 0;
};
};
width = 531;
},
{
anchors = (
{
name = top;
pos = (286,700);
}
);
layerId = m004;
shapes = (
{
closed = 1;
nodes = (
(483,0,l),
(483,42,l),
(132,42,l),
(150,24,l),
(150,676,l),
(132,658,l),
(473,658,l),
(473,700,l),
(102,700,l),
(102,0,l)
);
},
{
closed = 1;
nodes = (
(450,342,l),
(450,384,l),
(126,384,l),
(126,342,l)
);
}
);
userData = {
com.hugojourdan.ColorFlow = {
"0" = 0;
"1" = 0;
"10" = 0;
"11" = 0;
"2" = 0;
"3" = 0;
"4" = 0;
"5" = 0;
"6" = 0;
"7" = 0;
"8" = 0;
"9" = 0;
};
};
width = 530;
},
{
anchors = (
{
name = top;
pos = (286,700);
}
);
layerId = m005;
shapes = (
{
closed = 1;
nodes = (
(496,0,l),
(496,78,l),
(156,78,l),
(186,48,l),
(186,652,l),
(156,622,l),
(484,622,l),
(484,700,l),
(88,700,l),
(88,0,l)
);
},
{
closed = 1;
nodes = (
(461,326,l),
(461,400,l),
(136,400,l),
(136,326,l)
);
}
);
userData = {
com.hugojourdan.ColorFlow = {
"0" = 0;
"1" = 0;
"10" = 0;
"11" = 0;
"2" = 0;
"3" = 0;
"4" = 0;
"5" = 0;
"6" = 0;
"7" = 0;
"8" = 0;
"9" = 0;
};
};
width = 536;
},
{
anchors = (
{
name = top;
pos = (267,700);
}
);
background = {
anchors = (
{
name = top;
pos = (267,700);
}
);
};
layerId = m006;
shapes = (
{
closed = 1;
nodes = (
(502,0,l),
(502,137,l),
(182,137,l),
(229,90,l),
(229,610,l),
(182,563,l),
(492,563,l),
(492,700,l),
(51,700,l),
(51,0,l)
);
},
{
closed = 1;
nodes = (
(469,298,l),
(469,428,l),
(140,428,l),
(140,298,l)
);
}
);
userData = {
com.hugojourdan.ColorFlow = {
"0" = 0;
"1" = 0;
"10" = 0;
"11" = 0;
"2" = 0;
"3" = 0;
"4" = 0;
"5" = 0;
"6" = 0;
"7" = 0;
"8" = 0;
"9" = 0;
};
};
width = 525;
},
{
anchors = (
{
name = top;
pos = (363,700);
}
);
background = {
shapes = (
{
ref = I;
}
);
};
layerId = "4E5694F4-F64E-4331-B998-78BE273203C7";
shapes = (
{
closed = 1;
nodes = (
(443,0,l),
(450,42,l),
(103,42,l),
(115,30,l),
(223,676,l),
(205,658,l),
(540,658,l),
(547,700,l),
(179,700,l),
(62,0,l)
);
},
{
closed = 1;
nodes = (
(467,342,l),
(474,384,l),
(153,384,l),
(147,342,l)
);
}
);
userData = {
com.hugojourdan.ColorFlow = {
"0" = 0;
"1" = 0;
"10" = 0;
"11" = 0;
"2" = 0;
"3" = 0;
"4" = 0;
"5" = 0;
"6" = 0;
"7" = 0;
"8" = 0;
"9" = 0;
};
};
width = 530;
},
{
anchors = (
{
name = top;
pos = (362,700);
}
);
background = {
shapes = (
{
ref = I;
}
);
};
guides = (
{
angle = 80.5069;
pos = (154,350);
}
);
layerId = "DF4E5521-40BA-460F-874A-364F4D14AAD8";
shapes = (
{
closed = 1;
nodes = (
(455,0,l),
(468,78,l),
(128,78,l),
(153,48,l),
(254,652,l),
(219,622,l),
(546,622,l),
(559,700,l),
(164,700,l),
(47,0,l)
);
},
{
closed = 1;
nodes = (
(473,326,l),
(487,400,l),
(162,400,l),
(150,326,l)
);
}
);
userData = {
com.hugojourdan.ColorFlow = {
"0" = 0;
"1" = 0;
"10" = 0;
"11" = 0;
"2" = 0;
"3" = 0;
"4" = 0;
"5" = 0;
"6" = 0;
"7" = 0;
"8" = 0;
"9" = 0;
};
};
width = 536;
},
{
anchors = (
{
name = top;
pos = (342,700);
}
);
background = {
anchors = (
{
name = top;
pos = (255,700);
}
);
};
guides = (
{
angle = 80.5;
pos = (51,251);
},
{
angle = 80.5;
pos = (229,251);
},
{
angle = 80.5;
pos = (502,251);
},
{
angle = 80.5;
pos = (469,251);
}
);
layerId = "C6DE9ED7-34B3-46A1-8A00-A72C4A5E93A3";
shapes = (
{
closed = 1;
nodes = (
(460,0,l),
(483,137,l),
(165,137,l),
(202,90,l),
(289,610,l),
(236,563,l),
(544,563,l),
(567,700,l),
(126,700,l),
(9,0,l)
);
},
{
closed = 1;
nodes = (
(477,298,l),
(499,428,l),
(170,428,l),
(148,298,l)
);
}
);
userData = {
com.hugojourdan.ColorFlow = {
"0" = 0;
"1" = 0;
"10" = 0;
"11" = 0;
"2" = 0;
"3" = 0;
"4" = 0;
"5" = 0;
"6" = 0;
"7" = 0;
"8" = 0;
"9" = 0;
};
};
width = 525;
}
);
metricLeft = "=H";
metricRight = "=H*0.46";
note = E;
unicode = 69;
userData = {
KernOnName = E;
};
},
{
glyphname = F;
kernLeft = KO_H;
kernRight = KO_F;
layers = (
{
layerId = m01;
shapes = (
{
closed = 1;
nodes = (
(150,0,l),
(150,692,l),
(126,668,l),
(483,668,l),
(483,700,l),
(102,700,l),
(102,0,l)
);
},
{
closed = 1;
nodes = (
(446,343,l),
(446,373,l),
(126,373,l),
(126,343,l)
);
}
);
userData = {
com.hugojourdan.ColorFlow = {
"0" = 0;
"1" = 0;
"10" = 0;
"11" = 0;
"2" = 0;
"3" = 0;
"4" = 0;
"5" = 0;
"6" = 0;
"7" = 0;
"8" = 0;
"9" = 0;
};
};
width = 526;
},
{
layerId = "FF73925E-1E34-445B-881D-5A7CAAA8E8BE";
shapes = (
{
closed = 1;
nodes = (
(229,0,l),
(229,655,l),
(184,610,l),
(498,610,l),
(498,700,l),
(51,700,l),
(51,0,l)
);
},
{
closed = 1;
nodes = (
(454,325,l),
(454,405,l),
(140,405,l),
(140,325,l)
);
}
);
userData = {
com.hugojourdan.ColorFlow = {
"0" = 0;
"1" = 0;
"10" = 0;
"11" = 0;
"2" = 0;
"3" = 0;
"4" = 0;
"5" = 0;
"6" = 0;
"7" = 0;
"8" = 0;
"9" = 0;
};
};
width = 519;
},
{
layerId = "BF6BA5B2-0556-42F4-A103-614BEBF16A1A";
shapes = (
{
closed = 1;
nodes = (
(186,0,l),
(186,687,l),
(147,648,l),
(496,648,l),
(496,700,l),
(88,700,l),
(88,0,l)
);
},
{
closed = 1;
nodes = (
(457,337,l),
(457,385,l),
(136,385,l),
(136,337,l)
);
}
);
userData = {
com.hugojourdan.ColorFlow = {
"0" = 0;
"1" = 0;
"10" = 0;
"11" = 0;
"2" = 0;
"3" = 0;
"4" = 0;
"5" = 0;
"6" = 0;
"7" = 0;
"8" = 0;
"9" = 0;
};
};
width = 533;
},
{
layerId = m004;
shapes = (
{
closed = 1;
nodes = (
(150,0,l),
(150,681,l),
(126,657,l),
(483,657,l),
(483,700,l),
(102,700,l),
(102,0,l)
);
},
{
closed = 1;
nodes = (
(446,337,l),
(446,379,l),
(126,379,l),
(126,337,l)
);
}
);
userData = {
com.hugojourdan.ColorFlow = {
"0" = 0;
"1" = 0;
"10" = 0;
"11" = 0;
"2" = 0;
"3" = 0;
"4" = 0;
"5" = 0;
"6" = 0;
"7" = 0;
"8" = 0;
"9" = 0;
};
};
width = 526;
},
{
layerId = m005;
shapes = (
{
closed = 1;
nodes = (
(186,0,l),
(186,652,l),
(156,622,l),
(496,622,l),
(496,700,l),
(88,700,l),
(88,0,l)
);
},
{
closed = 1;
nodes = (
(456,321,l),
(456,398,l),
(136,398,l),
(136,321,l)
);
}
);
userData = {
com.hugojourdan.ColorFlow = {
"0" = 0;
"1" = 0;
"10" = 0;
"11" = 0;
"2" = 0;
"3" = 0;
"4" = 0;
"5" = 0;
"6" = 0;
"7" = 0;
"8" = 0;
"9" = 0;
};
};
width = 533;
},
{
layerId = m006;
shapes = (
{
closed = 1;
nodes = (
(229,0,l),
(229,610,l),
(182,563,l),
(498,563,l),
(498,700,l),
(51,700,l),
(51,0,l)
);
},
{
closed = 1;
nodes = (
(454,297,l),
(454,430,l),
(140,430,l),
(140,297,l)
);
}
);
userData = {
com.hugojourdan.ColorFlow = {
"0" = 0;
"1" = 0;
"10" = 0;
"11" = 0;
"2" = 0;
"3" = 0;
"4" = 0;
"5" = 0;
"6" = 0;
"7" = 0;
"8" = 0;
"9" = 0;
};
};
width = 519;
},
{
layerId = "4E5694F4-F64E-4331-B998-78BE273203C7";
shapes = (
{
closed = 1;
nodes = (
(110,0,l),
(223,676,l),
(205,658,l),
(553,658,l),
(560,700,l),
(179,700,l),
(62,0,l)
);
},
{
closed = 1;
nodes = (
(466,338,l),
(473,380,l),
(151,380,l),
(145,338,l)
);
}
);
userData = {
com.hugojourdan.ColorFlow = {
"0" = 0;
"1" = 0;
"10" = 0;
"11" = 0;
"2" = 0;
"3" = 0;
"4" = 0;
"5" = 0;
"6" = 0;
"7" = 0;
"8" = 0;
"9" = 0;
};
};
width = 526;
},
{
guides = (
{
angle = 80.5069;
pos = (514,350);
},
{
angle = 80.5069;
pos = (474,350);
}
);
layerId = "DF4E5521-40BA-460F-874A-364F4D14AAD8";
shapes = (
{
closed = 1;
nodes = (
(145,0,l),
(254,652,l),
(219,622,l),
(559,622,l),
(572,700,l),
(164,700,l),
(47,0,l)
);
},
{
closed = 1;
nodes = (
(469,321,l),
(482,398,l),
(164,398,l),
(151,321,l)
);
}
);
userData = {
com.hugojourdan.ColorFlow = {
"0" = 0;
"1" = 0;
"10" = 0;
"11" = 0;
"2" = 0;
"3" = 0;
"4" = 0;
"5" = 0;
"6" = 0;
"7" = 0;
"8" = 0;
"9" = 0;
};
};
width = 533;
},
{
guides = (
{
angle = 80.5;
pos = (51,251);
},
{
angle = 80.5;
pos = (229,251);
},
{
angle = 80.5;
pos = (502,251);
},
{
angle = 80.5;
pos = (469,251);
}
);
layerId = "C6DE9ED7-34B3-46A1-8A00-A72C4A5E93A3";
shapes = (
{
closed = 1;
nodes = (
(187,0,l),
(289,610,l),
(236,563,l),
(554,563,l),
(577,700,l),
(126,700,l),
(9,0,l)
);
},
{
closed = 1;
nodes = (
(477,297,l),
(499,430,l),
(170,430,l),
(148,297,l)
);
}
);
userData = {
com.hugojourdan.ColorFlow = {
"0" = 0;
"1" = 0;
"10" = 0;
"11" = 0;
"2" = 0;
"3" = 0;
"4" = 0;
"5" = 0;
"6" = 0;
"7" = 0;
"8" = 0;
"9" = 0;
};
};
width = 523;
}
);
metricLeft = "=H";
metricRight = "=H*0.42";
note = F;
unicode = 70;
},
{
glyphname = G;
kernLeft = KO_O;
kernRight = KO_G;
layers = (
{
layerId = m01;
shapes = (
{
closed = 1;
nodes = (
(469,-10,o),
(546,45,o),
(563,138,c),
(547,138,l),
(547,0,l),
(584,0,l),
(584,344,l),
(369,344,l),
(369,312,l),
(565,307,l),
(536,334,l),
(536,187,ls),
(536,84,o),
(473,22,o),
(366,22,cs),
(222,22,o),
(141,141,o),
(141,350,cs),
(141,558,o),
(222,678,o),
(362,678,cs),
(434,678,o),
(499,648,o),
(528,602,c),
(561,637,l),
(514,684,o),
(443,710,o),
(363,710,cs),
(188,710,o),
(88,579,o),
(88,350,cs),
(88,123,o),
(187,-10,o),
(356,-10,cs)
);
}
);
userData = {
com.hugojourdan.ColorFlow = {
"0" = 0;
"1" = 0;
"10" = 0;
"11" = 0;
"2" = 0;
"3" = 0;
"4" = 0;
"5" = 0;
"6" = 0;
"7" = 0;
"8" = 0;
"9" = 0;
};
};
width = 686;
},
{
background = {
shapes = (
{
pos = (8,0);
ref = O;
}
);
};
layerId = "FF73925E-1E34-445B-881D-5A7CAAA8E8BE";
shapes = (
{
closed = 1;
nodes = (
(452,-10,o),
(525,51,o),
(537,160,c),
(529,160,l),
(529,0,l),
(622,0,l),
(622,365,l),
(319,365,l),
(319,299,l),
(500,298,l),
(455,334,l),
(455,196,ls),
(455,118,o),
(423,80,o),
(367,80,cs),
(280,80,o),
(231,179,o),
(231,355,cs),
(231,522,o),
(276,616,o),
(357,616,cs),
(407,616,o),
(448,571,o),
(472,491,c),
(617,542,l),
(578,650,o),
(487,710,o),
(361,710,cs),
(157,710,o),
(43,580,o),
(43,348,cs),
(43,118,o),
(148,-10,o),
(335,-10,cs)
);
}
);
userData = {
com.hugojourdan.ColorFlow = {
"0" = 0;
"1" = 0;
"10" = 0;
"11" = 0;
"2" = 0;
"3" = 0;
"4" = 0;
"5" = 0;
"6" = 0;
"7" = 0;
"8" = 0;
"9" = 0;
};
};
width = 673;
},
{
layerId = "BF6BA5B2-0556-42F4-A103-614BEBF16A1A";
shapes = (
{
closed = 1;
nodes = (
(465,-10,o),
(535,39,o),
(558,131,c),
(554,131,l),
(554,0,l),
(613,0,l),
(613,352,l),
(348,352,l),
(348,307,l),
(565,301,l),
(520,344,l),
(520,208,ls),
(520,105,o),
(465,42,o),
(376,42,cs),
(247,42,o),
(178,149,o),
(178,347,cs),
(178,541,o),
(247,658,o),
(360,658,cs),
(429,658,o),
(491,616,o),
(513,555,c),
(593,591,l),
(560,661,o),
(464,710,o),
(359,710,cs),
(184,710,o),
(73,570,o),
(73,345,cs),
(73,128,o),
(187,-10,o),
(363,-10,cs)
);
}
);
userData = {
com.hugojourdan.ColorFlow = {
"0" = 0;
"1" = 0;
"10" = 0;
"11" = 0;
"2" = 0;
"3" = 0;
"4" = 0;
"5" = 0;
"6" = 0;
"7" = 0;
"8" = 0;
"9" = 0;
};
};
width = 701;
},
{
layerId = m004;
shapes = (
{
closed = 1;
nodes = (
(469,-10,o),
(546,45,o),
(563,138,c),
(546,138,l),
(546,0,l),
(584,0,l),
(584,348,l),
(369,348,l),
(369,306,l),
(564,306,l),
(536,334,l),
(536,192,ls),
(537,92,o),
(473,32,o),
(366,32,cs),
(222,32,o),
(141,147,o),
(141,350,cs),
(141,552,o),
(222,668,o),
(362,668,cs),
(430,668,o),
(497,641,o),
(528,602,c),
(561,637,l),
(514,684,o),
(443,710,o),
(363,710,cs),
(188,710,o),
(88,579,o),
(88,350,cs),
(88,123,o),
(187,-10,o),
(356,-10,cs)
);
}
);
userData = {
com.hugojourdan.ColorFlow = {
"0" = 0;
"1" = 0;
"10" = 0;
"11" = 0;
"2" = 0;
"3" = 0;
"4" = 0;
"5" = 0;
"6" = 0;
"7" = 0;
"8" = 0;
"9" = 0;
};
};
width = 686;
},
{
layerId = m005;
shapes = (
{
closed = 1;
nodes = (
(469,-10,o),
(552,57,o),
(567,166,c),
(544,166,l),
(544,0,l),
(613,0,l),
(613,371,l),
(360,371,l),
(360,299,l),
(563,299,l),
(519,344,l),
(519,228,ls),
(519,131,o),
(459,75,o),
(372,75,cs),
(257,75,o),
(179,171,o),
(179,350,cs),
(179,535,o),
(260,627,o),
(378,627,cs),
(446,627,o),
(511,594,o),
(545,557,c),
(596,625,l),
(549,674,o),
(469,710,o),
(376,710,cs),
(185,710,o),
(73,580,o),
(73,350,cs),
(73,125,o),
(178,-10,o),
(348,-10,cs)
);
}
);
userData = {
com.hugojourdan.ColorFlow = {
"0" = 0;
"1" = 0;
"10" = 0;
"11" = 0;
"2" = 0;
"3" = 0;
"4" = 0;
"5" = 0;
"6" = 0;
"7" = 0;
"8" = 0;
"9" = 0;
};
};
width = 701;
},
{
background = {
shapes = (
{
pos = (8,0);
ref = C;
}
);
};
layerId = m006;
shapes = (
{
closed = 1;
nodes = (
(457,-10,o),
(534,62,o),
(549,194,c),
(503,210,l),
(503,0,l),
(622,0,l),
(622,412,l),
(334,412,l),
(334,292,l),
(500,292,l),
(455,334,l),
(455,284,ls),
(455,194,o),
(417,138,o),
(356,138,cs),
(281,138,o),
(231,221,o),
(231,348,cs),
(231,481,o),
(285,562,o),
(374,562,cs),
(426,562,o),
(482,535,o),
(535,485,c),
(615,608,l),
(556,674,o),
(467,710,o),
(364,710,cs),
(164,710,o),
(43,574,o),
(43,349,cs),
(43,131,o),
(156,-10,o),
(331,-10,cs)
);
}
);
userData = {
com.hugojourdan.ColorFlow = {
"0" = 0;
"1" = 0;
"10" = 0;
"11" = 0;
"2" = 0;
"3" = 0;
"4" = 0;
"5" = 0;
"6" = 0;
"7" = 0;
"8" = 0;
"9" = 0;
};
};
width = 673;
},
{
guides = (
{
angle = 80.5377;
pos = (573,174);
}
);
layerId = "4E5694F4-F64E-4331-B998-78BE273203C7";
shapes = (
{
closed = 1;
nodes = (
(441,-10,o),
(515,38,o),
(545,120,c),
(527,125,l),
(506,0,l),
(544,0,l),
(602,348,l),
(387,348,l),
(380,306,l),
(592,306,l),
(554,350,l),
(526,179,ls),
(511,87,o),
(447,32,o),
(351,32,cs),
(223,32,o),
(153,116,o),
(153,266,cs),
(153,407,o),
(213,668,o),
(418,668,cs),
(494,668,o),
(559,630,o),
(586,584,c),
(624,616,l),
(582,675,o),
(505,710,o),
(419,710,cs),
(174,710,o),
(101,428,o),
(101,263,cs),
(101,90,o),
(188,-10,o),
(343,-10,cs)
);
}
);
userData = {
com.hugojourdan.ColorFlow = {
"0" = 0;
"1" = 0;
"10" = 0;
"11" = 0;
"2" = 0;
"3" = 0;
"4" = 0;
"5" = 0;
"6" = 0;
"7" = 0;
"8" = 0;
"9" = 0;
};
};
width = 686;
},
{
background = {
shapes = (
{
pos = (18,0);
ref = C;
}
);
};
guides = (
{
angle = 80.5;
pos = (73,245);
},
{
angle = 80.5;
pos = (178,245);
},
{
angle = 80.5;
pos = (613,245);
},
{
angle = 80.5;
pos = (519,245);
},
{
angle = 80.5;
pos = (360,245);
}
);
layerId = "DF4E5521-40BA-460F-874A-364F4D14AAD8";
shapes = (
{
closed = 1;
nodes = (
(441,-10,o),
(522,49,o),
(552,148,c),
(528,149,l),
(503,0,l),
(572,0,l),
(634,371,l),
(381,371,l),
(369,299,l),
(571,299,l),
(533,329,l),
(514,215,ls),
(499,126,o),
(440,75,o),
(355,75,cs),
(254,75,o),
(191,147,o),
(191,283,cs),
(191,406,o),
(245,627,o),
(424,627,cs),
(502,627,o),
(565,585,o),
(594,540,c),
(656,604,l),
(605,677,o),
(510,710,o),
(421,710,cs),
(185,710,o),
(86,482,o),
(86,270,cs),
(86,96,o),
(186,-10,o),
(332,-10,cs)
);
}
);
userData = {
com.hugojourdan.ColorFlow = {
"0" = 0;
"1" = 0;
"10" = 0;
"11" = 0;
"2" = 0;
"3" = 0;
"4" = 0;
"5" = 0;
"6" = 0;
"7" = 0;
"8" = 0;
"9" = 0;
};
};
width = 701;
},
{
background = {
shapes = (
{
pos = (-3,0);
ref = C;
}
);
};
guides = (
{
angle = 80.5;
pos = (43,251);
},
{
angle = 80.5;
pos = (231,251);
},
{
angle = 80.5;
pos = (622,251);
},
{
angle = 80.5;
pos = (615,251);
},
{
angle = 80.5;
pos = (455,251);
},
{
angle = 80.5;
pos = (503,251);
}
);
layerId = "C6DE9ED7-34B3-46A1-8A00-A72C4A5E93A3";
shapes = (
{
closed = 1;
nodes = (
(417,-10,o),
(503,58,o),
(536,179,c),
(494,197,l),
(461,0,l),
(580,0,l),
(649,412,l),
(362,412,l),
(343,292,l),
(507,292,l),
(467,323,l),
(459,275,ls),
(444,187,o),
(404,138,o),
(348,138,cs),
(290,138,o),
(245,193,o),
(245,302,cs),
(245,445,o),
(324,562,o),
(419,562,cs),
(470,562,o),
(525,529,o),
(571,470,c),
(671,586,l),
(622,662,o),
(523,710,o),
(413,710,cs),
(200,710,o),
(57,529,o),
(57,289,cs),
(57,93,o),
(152,-10,o),
(300,-10,cs)
);
}
);
userData = {
com.hugojourdan.ColorFlow = {
"0" = 0;
"1" = 0;
"10" = 0;
"11" = 0;
"2" = 0;
"3" = 0;
"4" = 0;
"5" = 0;
"6" = 0;
"7" = 0;
"8" = 0;
"9" = 0;
};
};
width = 673;
}
);
metricLeft = "=O";
metricRight = "=H";
note = G;
unicode = 71;
},
{
glyphname = H;
kernLeft = KO_H;
kernRight = KO_H;
layers = (
{
layerId = m01;
metricLeft = "=n*1.34";
shapes = (
{
closed = 1;
nodes = (
(585,0,l),
(585,700,l),
(537,700,l),
(537,0,l)
);
},
{
closed = 1;
nodes = (
(150,0,l),
(150,700,l),
(102,700,l),
(102,0,l)
);
},
{
closed = 1;
nodes = (
(545,340,l),
(545,372,l),
(142,372,l),
(142,340,l)
);
}
);
userData = {
com.hugojourdan.ColorFlow = {
"0" = 0;
"1" = 0;
"10" = 0;
"11" = 0;
"2" = 0;
"3" = 0;
"4" = 0;
"5" = 0;
"6" = 0;
"7" = 0;
"8" = 0;
"9" = 0;
};
};
width = 687;
},
{
layerId = "FF73925E-1E34-445B-881D-5A7CAAA8E8BE";
metricLeft = "=n*1.34";
shapes = (
{
closed = 1;
nodes = (
(625,0,l),
(625,700,l),
(447,700,l),
(447,0,l)
);
},
{
closed = 1;
nodes = (
(229,0,l),
(229,700,l),
(51,700,l),
(51,0,l)
);
},
{
closed = 1;
nodes = (
(463,310,l),
(463,400,l),
(213,400,l),
(213,310,l)
);
}
);
userData = {
com.hugojourdan.ColorFlow = {
"0" = 0;
"1" = 0;
"10" = 0;
"11" = 0;
"2" = 0;
"3" = 0;
"4" = 0;
"5" = 0;
"6" = 0;
"7" = 0;
"8" = 0;
"9" = 0;
};
};
width = 676;
},
{
layerId = "BF6BA5B2-0556-42F4-A103-614BEBF16A1A";
metricLeft = "=n*1.34";
shapes = (
{
closed = 1;
nodes = (
(606,0,l),
(606,700,l),
(508,700,l),
(508,0,l)
);
},
{
closed = 1;
nodes = (
(186,0,l),
(186,700,l),
(88,700,l),
(88,0,l)
);
},
{
closed = 1;
nodes = (
(522,329,l),
(522,381,l),
(172,381,l),
(172,329,l)
);
}
);
userData = {
com.hugojourdan.ColorFlow = {
"0" = 0;
"1" = 0;
"10" = 0;
"11" = 0;
"2" = 0;
"3" = 0;
"4" = 0;
"5" = 0;
"6" = 0;
"7" = 0;
"8" = 0;
"9" = 0;
};
};
width = 694;
},
{
layerId = m004;
metricLeft = "=n*1.19";
shapes = (
{
closed = 1;
nodes = (
(585,0,l),
(585,700,l),
(537,700,l),
(537,0,l)
);
},
{
closed = 1;
nodes = (
(150,0,l),
(150,700,l),
(102,700,l),
(102,0,l)
);
},
{
closed = 1;
nodes = (
(565,334,l),
(565,377,l),
(122,377,l),
(122,334,l)
);
}
);
userData = {
com.hugojourdan.ColorFlow = {
"0" = 0;
"1" = 0;
"10" = 0;
"11" = 0;
"2" = 0;
"3" = 0;
"4" = 0;
"5" = 0;
"6" = 0;
"7" = 0;
"8" = 0;
"9" = 0;
};
};
width = 687;
},
{
layerId = m005;
metricLeft = "=n*1.16";
shapes = (
{
closed = 1;
nodes = (
(606,0,l),
(606,700,l),
(508,700,l),
(508,0,l)
);
},
{
closed = 1;
nodes = (
(186,0,l),
(186,700,l),
(88,700,l),
(88,0,l)
);
},
{
closed = 1;
nodes = (
(519,316,l),
(519,396,l),
(175,396,l),
(175,316,l)
);
}
);
userData = {
com.hugojourdan.ColorFlow = {
"0" = 0;
"1" = 0;
"10" = 0;
"11" = 0;
"2" = 0;
"3" = 0;
"4" = 0;
"5" = 0;
"6" = 0;
"7" = 0;
"8" = 0;
"9" = 0;
};
};
width = 694;
},
{
layerId = m006;
metricLeft = "=n*1.07";
shapes = (
{
closed = 1;
nodes = (
(625,0,l),
(625,700,l),
(447,700,l),
(447,0,l)
);
},
{
closed = 1;
nodes = (
(229,0,l),
(229,700,l),
(51,700,l),
(51,0,l)
);
},
{
closed = 1;
nodes = (
(513,285,l),
(513,425,l),
(163,425,l),
(163,285,l)
);
}
);
userData = {
com.hugojourdan.ColorFlow = {
"0" = 0;
"1" = 0;
"10" = 0;
"11" = 0;
"2" = 0;
"3" = 0;
"4" = 0;
"5" = 0;
"6" = 0;
"7" = 0;
"8" = 0;
"9" = 0;
};
};
width = 676;
},
{
layerId = "4E5694F4-F64E-4331-B998-78BE273203C7";
metricLeft = "=n*1.19";
shapes = (
{
closed = 1;
nodes = (
(545,0,l),
(662,700,l),
(614,700,l),
(497,0,l)
);
},
{
closed = 1;
nodes = (
(110,0,l),
(227,700,l),
(179,700,l),
(62,0,l)
);
},
{
closed = 1;
nodes = (
(578,334,l),
(585,377,l),
(147,377,l),
(139,334,l)
);
}
);
userData = {
com.hugojourdan.ColorFlow = {
"0" = 0;
"1" = 0;
"10" = 0;
"11" = 0;
"2" = 0;
"3" = 0;
"4" = 0;
"5" = 0;
"6" = 0;
"7" = 0;
"8" = 0;
"9" = 0;
};
};
width = 687;
},
{
layerId = "DF4E5521-40BA-460F-874A-364F4D14AAD8";
metricLeft = "=n*1.16";
shapes = (
{
closed = 1;
nodes = (
(565,0,l),
(682,700,l),
(584,700,l),
(467,0,l)
);
},
{
closed = 1;
nodes = (
(145,0,l),
(262,700,l),
(164,700,l),
(47,0,l)
);
},
{
closed = 1;
nodes = (
(530,316,l),
(543,396,l),
(201,396,l),
(188,316,l)
);
}
);
userData = {
com.hugojourdan.ColorFlow = {
"0" = 0;
"1" = 0;
"10" = 0;
"11" = 0;
"2" = 0;
"3" = 0;
"4" = 0;
"5" = 0;
"6" = 0;
"7" = 0;
"8" = 0;
"9" = 0;
};
};
width = 694;
},
{
layerId = "C6DE9ED7-34B3-46A1-8A00-A72C4A5E93A3";
metricLeft = "=n*1.07";
shapes = (
{
closed = 1;
nodes = (
(583,0,l),
(700,700,l),
(522,700,l),
(405,0,l)
);
},
{
closed = 1;
nodes = (
(187,0,l),
(304,700,l),
(126,700,l),
(9,0,l)
);
},
{
closed = 1;
nodes = (
(518,286,l),
(541,425,l),
(203,425,l),
(180,286,l)
);
}
);
userData = {
com.hugojourdan.ColorFlow = {
"0" = 0;
"1" = 0;
"10" = 0;
"11" = 0;
"2" = 0;
"3" = 0;
"4" = 0;
"5" = 0;
"6" = 0;
"7" = 0;
"8" = 0;
"9" = 0;
};
};
width = 676;
}
);
metricLeft = "=n+10*1.24";
metricRight = "=|";
note = H;
unicode = 72;
userData = {
KernOnName = H;
};
},
{
glyphname = I;
kernLeft = KO_H;
kernRight = KO_H;
layers = (
{
anchors = (
{
name = top;
pos = (126,700);
}
);
layerId = m01;
shapes = (
{
closed = 1;
nodes = (
(150,0,l),
(150,700,l),
(102,700,l),
(102,0,l)
);
}
);
userData = {
com.hugojourdan.ColorFlow = {
"0" = 0;
"1" = 0;
"10" = 0;
"11" = 0;
"2" = 0;
"3" = 0;
"4" = 0;
"5" = 0;
"6" = 0;
"7" = 0;
"8" = 0;
"9" = 0;
};
};
width = 252;
},
{
anchors = (
{
name = top;
pos = (140,700);
}
);
layerId = "FF73925E-1E34-445B-881D-5A7CAAA8E8BE";
shapes = (
{
closed = 1;
nodes = (
(229,0,l),
(229,700,l),
(51,700,l),
(51,0,l)
);
}
);
userData = {
com.hugojourdan.ColorFlow = {
"0" = 0;
"1" = 0;
"10" = 0;
"11" = 0;
"2" = 0;
"3" = 0;
"4" = 0;
"5" = 0;
"6" = 0;
"7" = 0;
"8" = 0;
"9" = 0;
};
};
width = 280;
},
{
anchors = (
{
name = top;
pos = (137,700);
}
);
layerId = "BF6BA5B2-0556-42F4-A103-614BEBF16A1A";
shapes = (
{
closed = 1;
nodes = (
(186,0,l),
(186,700,l),
(88,700,l),
(88,0,l)
);
}
);
userData = {
com.hugojourdan.ColorFlow = {
"0" = 0;
"1" = 0;
"10" = 0;
"11" = 0;
"2" = 0;
"3" = 0;
"4" = 0;
"5" = 0;
"6" = 0;
"7" = 0;
"8" = 0;
"9" = 0;
};
};
width = 274;
},
{
anchors = (
{
name = top;
pos = (126,700);
}
);
layerId = m004;
shapes = (
{
closed = 1;
nodes = (
(150,0,l),
(150,700,l),
(102,700,l),
(102,0,l)
);
}
);
userData = {
com.hugojourdan.ColorFlow = {
"0" = 0;
"1" = 0;
"10" = 0;
"11" = 0;
"2" = 0;
"3" = 0;
"4" = 0;
"5" = 0;
"6" = 0;
"7" = 0;
"8" = 0;
"9" = 0;
};
};
width = 252;
},
{
anchors = (
{
name = top;
pos = (137,700);
}
);
layerId = m005;
shapes = (
{
closed = 1;
nodes = (
(186,0,l),
(186,700,l),
(88,700,l),
(88,0,l)
);
}
);
userData = {
com.hugojourdan.ColorFlow = {
"0" = 0;
"1" = 0;
"10" = 0;
"11" = 0;
"2" = 0;
"3" = 0;
"4" = 0;
"5" = 0;
"6" = 0;
"7" = 0;
"8" = 0;
"9" = 0;
};
};
width = 274;
},
{
anchors = (
{
name = top;
pos = (140,700);
}
);
layerId = m006;
shapes = (
{
closed = 1;
nodes = (
(229,0,l),
(229,700,l),
(51,700,l),
(51,0,l)
);
}
);
userData = {
com.hugojourdan.ColorFlow = {
"0" = 0;
"1" = 0;
"10" = 0;
"11" = 0;
"2" = 0;
"3" = 0;
"4" = 0;
"5" = 0;
"6" = 0;
"7" = 0;
"8" = 0;
"9" = 0;
};
};
width = 280;
},
{
anchors = (
{
name = top;
pos = (203,700);
}
);
layerId = "4E5694F4-F64E-4331-B998-78BE273203C7";
shapes = (
{
closed = 1;
nodes = (
(110,0,l),
(227,700,l),
(179,700,l),
(62,0,l)
);
}
);
userData = {
com.hugojourdan.ColorFlow = {
"0" = 0;
"1" = 0;
"10" = 0;
"11" = 0;
"2" = 0;
"3" = 0;
"4" = 0;
"5" = 0;
"6" = 0;
"7" = 0;
"8" = 0;
"9" = 0;
};
};
width = 252;
},
{
anchors = (
{
name = top;
pos = (213,700);
}
);
layerId = "DF4E5521-40BA-460F-874A-364F4D14AAD8";
shapes = (
{
closed = 1;
nodes = (
(145,0,l),
(262,700,l),
(164,700,l),
(47,0,l)
);
}
);
userData = {
com.hugojourdan.ColorFlow = {
"0" = 0;
"1" = 0;
"10" = 0;
"11" = 0;
"2" = 0;
"3" = 0;
"4" = 0;
"5" = 0;
"6" = 0;
"7" = 0;
"8" = 0;
"9" = 0;
};
};
width = 274;
},
{
anchors = (
{
name = top;
pos = (215,700);
}
);
layerId = "C6DE9ED7-34B3-46A1-8A00-A72C4A5E93A3";
shapes = (
{
closed = 1;
nodes = (
(187,0,l),
(304,700,l),
(126,700,l),
(9,0,l)
);
}
);
userData = {
com.hugojourdan.ColorFlow = {
"0" = 0;
"1" = 0;
"10" = 0;
"11" = 0;
"2" = 0;
"3" = 0;
"4" = 0;
"5" = 0;
"6" = 0;
"7" = 0;
"8" = 0;
"9" = 0;
};
};
width = 280;
}
);
metricLeft = "=H";
metricRight = "=|";
note = I;
unicode = 73;
},
{
glyphname = J;
kernLeft = KO_J;
kernRight = KO_J;
layers = (
{
layerId = m01;
shapes = (
{
closed = 1;
nodes = (
(306,-10,o),
(394,55,o),
(394,177,cs),
(394,700,l),
(346,700,l),
(346,170,ls),
(346,78,o),
(281,24,o),
(208,24,cs),
(155,24,o),
(96,53,o),
(57,118,c),
(28,81,l),
(77,20,o),
(145,-10,o),
(210,-10,cs)
);
}
);
userData = {
com.hugojourdan.ColorFlow = {
"0" = 0;
"1" = 0;
"10" = 0;
"11" = 0;
"2" = 0;
"3" = 0;
"4" = 0;
"5" = 0;
"6" = 0;
"7" = 0;
"8" = 0;
"9" = 0;
};
};
width = 484;
},
{
layerId = "FF73925E-1E34-445B-881D-5A7CAAA8E8BE";
shapes = (
{
closed = 1;
nodes = (
(440,-10,o),
(530,79,o),
(530,239,cs),
(530,700,l),
(355,700,l),
(355,235,ls),
(355,136,o),
(327,80,o),
(277,80,cs),
(229,80,o),
(181,134,o),
(143,211,c),
(14,121,l),
(67,37,o),
(161,-10,o),
(278,-10,cs)
);
}
);
userData = {
com.hugojourdan.ColorFlow = {
"0" = 0;
"1" = 0;
"10" = 0;
"11" = 0;
"2" = 0;
"3" = 0;
"4" = 0;
"5" = 0;
"6" = 0;
"7" = 0;
"8" = 0;
"9" = 0;
};
};
width = 575;
},
{
layerId = "BF6BA5B2-0556-42F4-A103-614BEBF16A1A";
shapes = (
{
closed = 1;
nodes = (
(343,-10,o),
(409,59,o),
(409,183,cs),
(409,700,l),
(312,700,l),
(312,177,ls),
(312,90,o),
(281,41,o),
(225,41,cs),
(167,41,o),
(124,78,o),
(106,145,c),
(24,114,l),
(53,34,o),
(125,-10,o),
(225,-10,cs)
);
}
);
userData = {
com.hugojourdan.ColorFlow = {
"0" = 0;
"1" = 0;
"10" = 0;
"11" = 0;
"2" = 0;
"3" = 0;
"4" = 0;
"5" = 0;
"6" = 0;
"7" = 0;
"8" = 0;
"9" = 0;
};
};
width = 486;
},
{
layerId = m004;
shapes = (
{
closed = 1;
nodes = (
(318,-10,o),
(394,67,o),
(394,177,cs),
(394,700,l),
(346,700,l),
(346,170,ls),
(346,91,o),
(290,34,o),
(212,34,cs),
(157,34,o),
(99,61,o),
(61,104,c),
(28,69,l),
(83,18,o),
(147,-10,o),
(211,-10,cs)
);
}
);
userData = {
com.hugojourdan.ColorFlow = {
"0" = 0;
"1" = 0;
"10" = 0;
"11" = 0;
"2" = 0;
"3" = 0;
"4" = 0;
"5" = 0;
"6" = 0;
"7" = 0;
"8" = 0;
"9" = 0;
};
};
width = 484;
},
{
layerId = m005;
shapes = (
{
closed = 1;
nodes = (
(367,-10,o),
(449,71,o),
(449,202,cs),
(449,700,l),
(351,700,l),
(351,195,ls),
(351,122,o),
(307,74,o),
(238,74,cs),
(186,74,o),
(121,102,o),
(79,143,c),
(24,78,l),
(78,23,o),
(158,-10,o),
(236,-10,cs)
);
}
);
userData = {
com.hugojourdan.ColorFlow = {
"0" = 0;
"1" = 0;
"10" = 0;
"11" = 0;
"2" = 0;
"3" = 0;
"4" = 0;
"5" = 0;
"6" = 0;
"7" = 0;
"8" = 0;
"9" = 0;
};
};
width = 526;
},
{
layerId = m006;
shapes = (
{
closed = 1;
nodes = (
(447,-10,o),
(530,71,o),
(530,234,cs),
(530,700,l),
(352,700,l),
(352,235,ls),
(352,169,o),
(326,138,o),
(269,138,cs),
(213,138,o),
(149,168,o),
(94,221,c),
(14,98,l),
(76,28,o),
(171,-10,o),
(282,-10,cs)
);
}
);
userData = {
com.hugojourdan.ColorFlow = {
"0" = 0;
"1" = 0;
"10" = 0;
"11" = 0;
"2" = 0;
"3" = 0;
"4" = 0;
"5" = 0;
"6" = 0;
"7" = 0;
"8" = 0;
"9" = 0;
};
};
width = 575;
},
{
background = {
shapes = (
{
pos = (244,0);
ref = I;
}
);
};
layerId = "4E5694F4-F64E-4331-B998-78BE273203C7";
shapes = (
{
closed = 1;
nodes = (
(289,-10,o),
(364,57,o),
(381,162,cs),
(471,700,l),
(423,700,l),
(333,162,ls),
(320,85,o),
(262,34,o),
(189,34,cs),
(131,34,o),
(73,67,o),
(41,117,c),
(2,85,l),
(52,24,o),
(119,-10,o),
(190,-10,cs)
);
}
);
userData = {
com.hugojourdan.ColorFlow = {
"0" = 0;
"1" = 0;
"10" = 0;
"11" = 0;
"2" = 0;
"3" = 0;
"4" = 0;
"5" = 0;
"6" = 0;
"7" = 0;
"8" = 0;
"9" = 0;
};
};
width = 484;
},
{
background = {
shapes = (
{
pos = (263,0);
ref = I;
}
);
};
layerId = "DF4E5521-40BA-460F-874A-364F4D14AAD8";
shapes = (
{
closed = 1;
nodes = (
(336,-10,o),
(418,61,o),
(438,180,cs),
(525,700,l),
(427,700,l),
(341,186,ls),
(329,117,o),
(283,74,o),
(221,74,cs),
(167,74,o),
(100,109,o),
(64,157,c),
(-1,97,l),
(49,30,o),
(132,-10,o),
(219,-10,cs)
);
}
);
userData = {
com.hugojourdan.ColorFlow = {
"0" = 0;
"1" = 0;
"10" = 0;
"11" = 0;
"2" = 0;
"3" = 0;
"4" = 0;
"5" = 0;
"6" = 0;
"7" = 0;
"8" = 0;
"9" = 0;
};
};
width = 526;
},
{
background = {
shapes = (
{
pos = (301,0);
ref = I;
}
);
};
layerId = "C6DE9ED7-34B3-46A1-8A00-A72C4A5E93A3";
shapes = (
{
closed = 1;
nodes = (
(415,-10,o),
(499,65,o),
(524,215,cs),
(605,700,l),
(427,700,l),
(348,227,ls),
(338,167,o),
(311,138,o),
(261,138,cs),
(204,138,o),
(140,175,o),
(92,235,c),
(-8,119,l),
(45,40,o),
(151,-10,o),
(270,-10,cs)
);
}
);
userData = {
com.hugojourdan.ColorFlow = {
"0" = 0;
"1" = 0;
"10" = 0;
"11" = 0;
"2" = 0;
"3" = 0;
"4" = 0;
"5" = 0;
"6" = 0;
"7" = 0;
"8" = 0;
"9" = 0;
};
};
width = 575;
}
);
metricLeft = "=T";
metricRight = "=U";
note = J;
unicode = 74;
},
{
glyphname = K;
kernLeft = KO_H;
kernRight = KO_K;
layers = (
{
layerId = m01;
shapes = (
{
closed = 1;
nodes = (
(264,334,l),
(264,334,l),
(578,700,l),
(532,700,l),
(252,379,l),
(143,362,l),
(143,334,l)
);
},
{
closed = 1;
nodes = (
(150,0,l),
(150,700,l),
(102,700,l),
(102,0,l)
);
},
{
closed = 1;
nodes = (
(603,0,l),
(279,376,l),
(231,367,l),
(542,0,l)
);
}
);
userData = {
com.hugojourdan.ColorFlow = {
"0" = 0;
"1" = 0;
"10" = 0;
"11" = 0;
"2" = 0;
"3" = 0;
"4" = 0;
"5" = 0;
"6" = 0;
"7" = 0;
"8" = 0;
"9" = 0;
};
};
width = 656;
},
{
layerId = "FF73925E-1E34-445B-881D-5A7CAAA8E8BE";
shapes = (
{
closed = 1;
nodes = (
(357,322,l),
(357,322,l),
(626,700,l),
(516,700,l),
(314,417,l),
(213,404,l),
(213,322,l)
);
},
{
closed = 1;
nodes = (
(229,0,l),
(229,700,l),
(51,700,l),
(51,0,l)
);
},
{
closed = 1;
nodes = (
(646,0,l),
(407,418,l),
(259,365,l),
(449,0,l)
);
}
);
userData = {
com.hugojourdan.ColorFlow = {
"0" = 0;
"1" = 0;
"10" = 0;
"11" = 0;
"2" = 0;
"3" = 0;
"4" = 0;
"5" = 0;
"6" = 0;
"7" = 0;
"8" = 0;
"9" = 0;
};
};
width = 657;
},
{
layerId = "BF6BA5B2-0556-42F4-A103-614BEBF16A1A";
shapes = (
{
closed = 1;
nodes = (
(298,324,l),
(298,324,l),
(602,700,l),
(531,700,l),
(280,392,l),
(165,374,l),
(165,324,l)
);
},
{
closed = 1;
nodes = (
(185,0,l),
(185,700,l),
(88,700,l),
(88,0,l)
);
},
{
closed = 1;
nodes = (
(625,0,l),
(333,394,l),
(244,367,l),
(511,0,l)
);
}
);
userData = {
com.hugojourdan.ColorFlow = {
"0" = 0;
"1" = 0;
"10" = 0;
"11" = 0;
"2" = 0;
"3" = 0;
"4" = 0;
"5" = 0;
"6" = 0;
"7" = 0;
"8" = 0;
"9" = 0;
};
};
width = 661;
},
{
layerId = m004;
shapes = (
{
closed = 1;
nodes = (
(264,365,l),
(264,365,l),
(565,700,l),
(505,700,l),
(253,417,l),
(143,293,l),
(143,230,l)
);
},
{
closed = 1;
nodes = (
(150,0,l),
(150,700,l),
(102,700,l),
(102,0,l)
);
},
{
closed = 1;
nodes = (
(603,0,l),
(294,418,l),
(262,382,l),
(546,0,l)
);
}
);
userData = {
com.hugojourdan.ColorFlow = {
"0" = 0;
"1" = 0;
"10" = 0;
"11" = 0;
"2" = 0;
"3" = 0;
"4" = 0;
"5" = 0;
"6" = 0;
"7" = 0;
"8" = 0;
"9" = 0;
};
};
width = 645;
},
{
layerId = m005;
shapes = (
{
closed = 1;
nodes = (
(295,345,l),
(295,343,l),
(602,700,l),
(496,700,l),
(274,441,l),
(166,315,l),
(166,195,l)
);
},
{
closed = 1;
nodes = (
(186,0,l),
(186,700,l),
(88,700,l),
(88,0,l)
);
},
{
closed = 1;
nodes = (
(625,0,l),
(335,412,l),
(261,365,l),
(514,0,l)
);
}
);
userData = {
com.hugojourdan.ColorFlow = {
"0" = 0;
"1" = 0;
"10" = 0;
"11" = 0;
"2" = 0;
"3" = 0;
"4" = 0;
"5" = 0;
"6" = 0;
"7" = 0;
"8" = 0;
"9" = 0;
};
};
width = 661;
},
{
guides = (
{
angle = 90;
pos = (229,350);
},
{
angle = 90;
pos = (213,350);
},
{
angle = 90;
pos = (356,322);
}
);
layerId = m006;
shapes = (
{
closed = 1;
nodes = (
(356,356,l),
(356,345,l),
(646,700,l),
(466,700,l),
(314,512,l),
(213,387,l),
(213,181,l)
);
},
{
closed = 1;
nodes = (
(229,0,l),
(229,700,l),
(51,700,l),
(51,0,l)
);
},
{
closed = 1;
nodes = (
(646,0,l),
(385,403,l),
(245,338,l),
(449,0,l)
);
}
);
userData = {
com.hugojourdan.ColorFlow = {
"0" = 0;
"1" = 0;
"10" = 0;
"11" = 0;
"2" = 0;
"3" = 0;
"4" = 0;
"5" = 0;
"6" = 0;
"7" = 0;
"8" = 0;
"9" = 0;
};
};
width = 657;
},
{
associatedMasterId = m005;
layerId = "08F6F4D0-0A49-4B80-A84D-A6F92DF2C3BE";
name = "20 Jun 23 4.51 PM";
shapes = (
{
closed = 1;
nodes = (
(143,167,l),
(602,700,l),
(496,700,l),
(118,259,l),
(100,259,l),
(100,167,l)
);
},
{
closed = 1;
nodes = (
(186,0,l),
(186,700,l),
(88,700,l),
(88,0,l)
);
},
{
closed = 1;
nodes = (
(625,0,l),
(335,412,l),
(261,365,l),
(514,0,l)
);
}
);
userData = {
com.hugojourdan.ColorFlow = {
"0" = 0;
"1" = 0;
"10" = 0;
"11" = 0;
"2" = 0;
"3" = 0;
"4" = 0;
"5" = 0;
"6" = 0;
"7" = 0;
"8" = 0;
"9" = 0;
};
};
width = 655;
},
{
layerId = "4E5694F4-F64E-4331-B998-78BE273203C7";
shapes = (
{
closed = 1;
nodes = (
(286,372,l),
(286,372,l),
(660,700,l),
(595,700,l),
(283,425,l),
(154,311,l),
(144,248,l)
);
},
{
closed = 1;
nodes = (
(110,0,l),
(227,700,l),
(179,700,l),
(62,0,l)
);
},
{
closed = 1;
nodes = (
(563,0,l),
(338,423,l),
(300,389,l),
(509,0,l)
);
}
);
userData = {
com.hugojourdan.ColorFlow = {
"0" = 0;
"1" = 0;
"10" = 0;
"11" = 0;
"2" = 0;
"3" = 0;
"4" = 0;
"5" = 0;
"6" = 0;
"7" = 0;
"8" = 0;
"9" = 0;
};
};
width = 645;
},
{
layerId = "DF4E5521-40BA-460F-874A-364F4D14AAD8";
shapes = (
{
closed = 1;
nodes = (
(313,350,l),
(313,348,l),
(699,700,l),
(585,700,l),
(308,448,l),
(181,331,l),
(161,211,l)
);
},
{
closed = 1;
nodes = (
(145,0,l),
(262,700,l),
(164,700,l),
(47,0,l)
);
},
{
closed = 1;
nodes = (
(584,0,l),
(376,414,l),
(296,373,l),
(479,0,l)
);
}
);
userData = {
com.hugojourdan.ColorFlow = {
"0" = 0;
"1" = 0;
"10" = 0;
"11" = 0;
"2" = 0;
"3" = 0;
"4" = 0;
"5" = 0;
"6" = 0;
"7" = 0;
"8" = 0;
"9" = 0;
};
};
width = 661;
},
{
associatedMasterId = "DF4E5521-40BA-460F-874A-364F4D14AAD8";
layerId = "C1F258F3-652C-4BCC-9A10-007598A3D2A6";
name = "20 Jun 23 4.51 PM";
shapes = (
{
closed = 1;
nodes = (
(219,167,l),
(678,700,l),
(572,700,l),
(194,259,l),
(176,259,l),
(176,167,l)
);
},
{
closed = 1;
nodes = (
(262,0,l),
(262,700,l),
(164,700,l),
(164,0,l)
);
},
{
closed = 1;
nodes = (
(701,0,l),
(411,412,l),
(337,365,l),
(590,0,l)
);
}
);
userData = {
com.hugojourdan.ColorFlow = {
"0" = 0;
"1" = 0;
"10" = 0;
"11" = 0;
"2" = 0;
"3" = 0;
"4" = 0;
"5" = 0;
"6" = 0;
"7" = 0;
"8" = 0;
"9" = 0;
};
};
width = 772;
},
{
guides = (
{
angle = 80.5;
pos = (646,251);
}
);
layerId = "C6DE9ED7-34B3-46A1-8A00-A72C4A5E93A3";
shapes = (
{
closed = 1;
nodes = (
(348,355,l),
(348,344,l),
(721,700,l),
(526,700,l),
(334,514,l),
(213,398,l),
(178,193,l)
);
},
{
closed = 1;
nodes = (
(187,0,l),
(304,700,l),
(126,700,l),
(9,0,l)
);
},
{
closed = 1;
nodes = (
(604,0,l),
(407,431,l),
(258,378,l),
(416,0,l)
);
}
);
userData = {
com.hugojourdan.ColorFlow = {
"0" = 0;
"1" = 0;
"10" = 0;
"11" = 0;
"2" = 0;
"3" = 0;
"4" = 0;
"5" = 0;
"6" = 0;
"7" = 0;
"8" = 0;
"9" = 0;
};
};
width = 657;
}
);
metricLeft = "=H";
metricRight = "=V";
note = K;
unicode = 75;
},
{
glyphname = L;
kernLeft = KO_H;
kernRight = KO_L;
layers = (
{
layerId = m01;
shapes = (
{
closed = 1;
nodes = (
(474,0,l),
(474,32,l),
(150,32,l),
(150,700,l),
(102,700,l),
(102,0,l)
);
}
);
userData = {
com.hugojourdan.ColorFlow = {
"0" = 0;
"1" = 0;
"10" = 0;
"11" = 0;
"2" = 0;
"3" = 0;
"4" = 0;
"5" = 0;
"6" = 0;
"7" = 0;
"8" = 0;
"9" = 0;
};
};
width = 543;
},
{
layerId = "FF73925E-1E34-445B-881D-5A7CAAA8E8BE";
shapes = (
{
closed = 1;
nodes = (
(487,0,l),
(487,90,l),
(229,90,l),
(229,700,l),
(51,700,l),
(51,0,l)
);
}
);
userData = {
com.hugojourdan.ColorFlow = {
"0" = 0;
"1" = 0;
"10" = 0;
"11" = 0;
"2" = 0;
"3" = 0;
"4" = 0;
"5" = 0;
"6" = 0;
"7" = 0;
"8" = 0;
"9" = 0;
};
};
width = 522;
},
{
layerId = "BF6BA5B2-0556-42F4-A103-614BEBF16A1A";
shapes = (
{
closed = 1;
nodes = (
(484,0,l),
(484,52,l),
(185,52,l),
(185,700,l),
(88,700,l),
(88,0,l)
);
}
);
userData = {
com.hugojourdan.ColorFlow = {
"0" = 0;
"1" = 0;
"10" = 0;
"11" = 0;
"2" = 0;
"3" = 0;
"4" = 0;
"5" = 0;
"6" = 0;
"7" = 0;
"8" = 0;
"9" = 0;
};
};
width = 544;
},
{
background = {
guides = (
{
angle = 258.6901;
},
{
angle = 260.5377;
pos = (0,24);
}
);
shapes = (
{
closed = 1;
nodes = (
(0,0,l),
(9,45,l)
);
},
{
closed = 1;
nodes = (
(8,0,l),
(19,44,l)
);
},
{
closed = 1;
nodes = (
(-4,0,l),
(4,48,l)
);
}
);
};
layerId = m004;
shapes = (
{
closed = 1;
nodes = (
(474,0,l),
(474,42,l),
(150,42,l),
(150,700,l),
(102,700,l),
(102,0,l)
);
}
);
userData = {
com.hugojourdan.ColorFlow = {
"0" = 0;
"1" = 0;
"10" = 0;
"11" = 0;
"2" = 0;
"3" = 0;
"4" = 0;
"5" = 0;
"6" = 0;
"7" = 0;
"8" = 0;
"9" = 0;
};
};
width = 543;
},
{
layerId = m005;
shapes = (
{
closed = 1;
nodes = (
(485,0,l),
(485,83,l),
(186,83,l),
(186,700,l),
(88,700,l),
(88,0,l)
);
}
);
userData = {
com.hugojourdan.ColorFlow = {
"0" = 0;
"1" = 0;
"10" = 0;
"11" = 0;
"2" = 0;
"3" = 0;
"4" = 0;
"5" = 0;
"6" = 0;
"7" = 0;
"8" = 0;
"9" = 0;
};
};
width = 545;
},
{
layerId = m006;
shapes = (
{
closed = 1;
nodes = (
(487,0,l),
(487,143,l),
(229,143,l),
(229,700,l),
(51,700,l),
(51,0,l)
);
}
);
userData = {
com.hugojourdan.ColorFlow = {
"0" = 0;
"1" = 0;
"10" = 0;
"11" = 0;
"2" = 0;
"3" = 0;
"4" = 0;
"5" = 0;
"6" = 0;
"7" = 0;
"8" = 0;
"9" = 0;
};
};
width = 522;
},
{
layerId = "4E5694F4-F64E-4331-B998-78BE273203C7";
shapes = (
{
closed = 1;
nodes = (
(435,0,l),
(442,42,l),
(117,42,l),
(227,700,l),
(179,700,l),
(62,0,l)
);
}
);
userData = {
com.hugojourdan.ColorFlow = {
"0" = 0;
"1" = 0;
"10" = 0;
"11" = 0;
"2" = 0;
"3" = 0;
"4" = 0;
"5" = 0;
"6" = 0;
"7" = 0;
"8" = 0;
"9" = 0;
};
};
width = 544;
},
{
background = {
shapes = (
{
ref = I;
}
);
};
layerId = "DF4E5521-40BA-460F-874A-364F4D14AAD8";
shapes = (
{
closed = 1;
nodes = (
(444,0,l),
(458,83,l),
(159,83,l),
(262,700,l),
(164,700,l),
(47,0,l)
);
}
);
userData = {
com.hugojourdan.ColorFlow = {
"0" = 0;
"1" = 0;
"10" = 0;
"11" = 0;
"2" = 0;
"3" = 0;
"4" = 0;
"5" = 0;
"6" = 0;
"7" = 0;
"8" = 0;
"9" = 0;
};
};
width = 545;
},
{
background = {
shapes = (
{
ref = I;
}
);
};
layerId = "C6DE9ED7-34B3-46A1-8A00-A72C4A5E93A3";
shapes = (
{
closed = 1;
nodes = (
(445,0,l),
(469,143,l),
(211,143,l),
(304,700,l),
(126,700,l),
(9,0,l)
);
}
);
userData = {
com.hugojourdan.ColorFlow = {
"0" = 0;
"1" = 0;
"10" = 0;
"11" = 0;
"2" = 0;
"3" = 0;
"4" = 0;
"5" = 0;
"6" = 0;
"7" = 0;
"8" = 0;
"9" = 0;
};
};
width = 522;
}
);
metricLeft = "=H";
metricRight = "=H*0.68";
note = L;
unicode = 76;
},
{
glyphname = M;
kernLeft = KO_H;
kernRight = KO_H;
layers = (
{
layerId = m01;
shapes = (
{
closed = 1;
nodes = (
(139,0,l),
(139,673,l),
(121,669,l),
(409,0,l),
(439,0,l),
(723,671,l),
(705,675,l),
(705,0,l),
(754,0,l),
(754,700,l),
(696,700,l),
(414,36,l),
(450,36,l),
(163,700,l),
(102,700,l),
(102,0,l)
);
}
);
userData = {
com.hugojourdan.ColorFlow = {
"0" = 0;
"1" = 0;
"10" = 0;
"11" = 0;
"2" = 0;
"3" = 0;
"4" = 0;
"5" = 0;
"6" = 0;
"7" = 0;
"8" = 0;
"9" = 0;
};
};
width = 856;
},
{
layerId = "FF73925E-1E34-445B-881D-5A7CAAA8E8BE";
shapes = (
{
closed = 1;
nodes = (
(145,0,l),
(145,547,l),
(130,544,l),
(320,0,l),
(445,0,l),
(626,549,l),
(612,551,l),
(612,0,l),
(788,0,l),
(788,700,l),
(585,700,l),
(405,155,l),
(438,155,l),
(249,700,l),
(51,700,l),
(51,0,l)
);
}
);
userData = {
com.hugojourdan.ColorFlow = {
"0" = 0;
"1" = 0;
"10" = 0;
"11" = 0;
"2" = 0;
"3" = 0;
"4" = 0;
"5" = 0;
"6" = 0;
"7" = 0;
"8" = 0;
"9" = 0;
};
};
width = 839;
},
{
layerId = "BF6BA5B2-0556-42F4-A103-614BEBF16A1A";
shapes = (
{
closed = 1;
nodes = (
(148,0,l),
(148,624,l),
(131,621,l),
(381,0,l),
(447,0,l),
(691,628,l),
(675,631,l),
(675,0,l),
(773,0,l),
(773,700,l),
(655,700,l),
(418,78,l),
(451,78,l),
(203,700,l),
(88,700,l),
(88,0,l)
);
}
);
userData = {
com.hugojourdan.ColorFlow = {
"0" = 0;
"1" = 0;
"10" = 0;
"11" = 0;
"2" = 0;
"3" = 0;
"4" = 0;
"5" = 0;
"6" = 0;
"7" = 0;
"8" = 0;
"9" = 0;
};
};
width = 861;
},
{
guides = (
{
angle = -67.6543;
pos = (272,335);
},
{
angle = -67.654;
pos = (307,362);
}
);
layerId = m004;
shapes = (
{
closed = 1;
nodes = (
(150,0,l),
(150,673,l),
(134,669,l),
(409,0,l),
(448,0,l),
(723,669,l),
(707,673,l),
(707,0,l),
(754,0,l),
(754,700,l),
(689,700,l),
(411,24,l),
(446,24,l),
(168,700,l),
(102,700,l),
(102,0,l)
);
}
);
userData = {
com.hugojourdan.ColorFlow = {
"0" = 0;
"1" = 0;
"10" = 0;
"11" = 0;
"2" = 0;
"3" = 0;
"4" = 0;
"5" = 0;
"6" = 0;
"7" = 0;
"8" = 0;
"9" = 0;
};
};
width = 856;
},
{
guides = (
{
angle = 109.9686;
pos = (333,384);
},
{
angle = 109.969;
pos = (281,293);
}
);
layerId = m005;
shapes = (
{
closed = 1;
nodes = (
(186,0,l),
(186,606,l),
(170,590,l),
(384,0,l),
(477,0,l),
(691,590,l),
(677,606,l),
(677,0,l),
(773,0,l),
(773,700,l),
(636,700,l),
(407,67,l),
(453,67,l),
(223,700,l),
(88,700,l),
(88,0,l)
);
}
);
userData = {
com.hugojourdan.ColorFlow = {
"0" = 0;
"1" = 0;
"10" = 0;
"11" = 0;
"2" = 0;
"3" = 0;
"4" = 0;
"5" = 0;
"6" = 0;
"7" = 0;
"8" = 0;
"9" = 0;
};
};
width = 861;
},
{
guides = (
{
angle = -74.085;
pos = (283,249);
},
{
angle = -74.085;
pos = (341,435);
}
);
layerId = m006;
shapes = (
{
closed = 1;
nodes = (
(229,0,l),
(229,501,l),
(217,498,l),
(359,0,l),
(482,0,l),
(624,498,l),
(614,501,l),
(614,0,l),
(790,0,l),
(790,700,l),
(539,700,l),
(375,126,l),
(470,126,l),
(306,700,l),
(51,700,l),
(51,0,l)
);
}
);
userData = {
com.hugojourdan.ColorFlow = {
"0" = 0;
"1" = 0;
"10" = 0;
"11" = 0;
"2" = 0;
"3" = 0;
"4" = 0;
"5" = 0;
"6" = 0;
"7" = 0;
"8" = 0;
"9" = 0;
};
};
width = 841;
},
{
guides = (
{
angle = -67.6543;
pos = (263,335);
},
{
angle = -67.654;
pos = (298,362);
}
);
layerId = "4E5694F4-F64E-4331-B998-78BE273203C7";
shapes = (
{
closed = 1;
nodes = (
(110,0,l),
(223,673,l),
(206,669,l),
(369,0,l),
(408,0,l),
(795,669,l),
(780,673,l),
(667,0,l),
(714,0,l),
(831,700,l),
(764,700,l),
(373,24,l),
(408,24,l),
(243,700,l),
(179,700,l),
(62,0,l)
);
}
);
userData = {
com.hugojourdan.ColorFlow = {
"0" = 0;
"1" = 0;
"10" = 0;
"11" = 0;
"2" = 0;
"3" = 0;
"4" = 0;
"5" = 0;
"6" = 0;
"7" = 0;
"8" = 0;
"9" = 0;
};
};
width = 856;
},
{
guides = (
{
angle = 109.9686;
pos = (323,384);
},
{
angle = 109.969;
pos = (271,293);
}
);
layerId = "DF4E5521-40BA-460F-874A-364F4D14AAD8";
shapes = (
{
closed = 1;
nodes = (
(145,0,l),
(246,606,l),
(228,590,l),
(343,0,l),
(436,0,l),
(749,590,l),
(737,606,l),
(636,0,l),
(732,0,l),
(849,700,l),
(710,700,l),
(375,67,l),
(421,67,l),
(297,700,l),
(164,700,l),
(47,0,l)
);
}
);
userData = {
com.hugojourdan.ColorFlow = {
"0" = 0;
"1" = 0;
"10" = 0;
"11" = 0;
"2" = 0;
"3" = 0;
"4" = 0;
"5" = 0;
"6" = 0;
"7" = 0;
"8" = 0;
"9" = 0;
};
};
width = 861;
},
{
guides = (
{
angle = -74.085;
pos = (272,249);
},
{
angle = -74.085;
pos = (330,435);
}
);
layerId = "C6DE9ED7-34B3-46A1-8A00-A72C4A5E93A3";
shapes = (
{
closed = 1;
nodes = (
(187,0,l),
(271,501,l),
(258,498,l),
(317,0,l),
(440,0,l),
(665,498,l),
(656,501,l),
(572,0,l),
(748,0,l),
(865,700,l),
(605,700,l),
(345,126,l),
(440,126,l),
(372,700,l),
(126,700,l),
(9,0,l)
);
}
);
userData = {
com.hugojourdan.ColorFlow = {
"0" = 0;
"1" = 0;
"10" = 0;
"11" = 0;
"2" = 0;
"3" = 0;
"4" = 0;
"5" = 0;
"6" = 0;
"7" = 0;
"8" = 0;
"9" = 0;
};
};
width = 841;
}
);
metricLeft = "=H";
metricRight = "=|";
note = M;
unicode = 77;
},
{
glyphname = N;
kernLeft = KO_H;
kernRight = KO_H;
layers = (
{
anchors = (
{
name = top;
pos = (328,700);
}
);
layerId = m01;
shapes = (
{
closed = 1;
nodes = (
(139,0,l),
(139,650,l),
(113,643,l),
(525,0,l),
(557,0,l),
(557,700,l),
(520,700,l),
(520,55,l),
(542,62,l),
(132,700,l),
(102,700,l),
(102,0,l)
);
}
);
userData = {
com.hugojourdan.ColorFlow = {
"0" = 0;
"1" = 0;
"10" = 0;
"11" = 0;
"2" = 0;
"3" = 0;
"4" = 0;
"5" = 0;
"6" = 0;
"7" = 0;
"8" = 0;
"9" = 0;
};
};
width = 659;
},
{
anchors = (
{
name = top;
pos = (326,700);
}
);
layerId = "FF73925E-1E34-445B-881D-5A7CAAA8E8BE";
shapes = (
{
closed = 1;
nodes = (
(145,0,l),
(145,495,l),
(116,488,l),
(436,0,l),
(578,0,l),
(578,700,l),
(484,700,l),
(484,213,l),
(505,220,l),
(190,700,l),
(51,700,l),
(51,0,l)
);
}
);
userData = {
com.hugojourdan.ColorFlow = {
"0" = 0;
"1" = 0;
"10" = 0;
"11" = 0;
"2" = 0;
"3" = 0;
"4" = 0;
"5" = 0;
"6" = 0;
"7" = 0;
"8" = 0;
"9" = 0;
};
};
width = 629;
},
{
anchors = (
{
name = top;
pos = (333,700);
}
);
layerId = "BF6BA5B2-0556-42F4-A103-614BEBF16A1A";
shapes = (
{
closed = 1;
nodes = (
(147,0,l),
(147,590,l),
(121,583,l),
(497,0,l),
(571,0,l),
(571,700,l),
(512,700,l),
(512,115,l),
(534,122,l),
(160,700,l),
(88,700,l),
(88,0,l)
);
}
);
userData = {
com.hugojourdan.ColorFlow = {
"0" = 0;
"1" = 0;
"10" = 0;
"11" = 0;
"2" = 0;
"3" = 0;
"4" = 0;
"5" = 0;
"6" = 0;
"7" = 0;
"8" = 0;
"9" = 0;
};
};
width = 659;
},
{
anchors = (
{
name = top;
pos = (328,700);
}
);
layerId = m004;
shapes = (
{
closed = 1;
nodes = (
(150,0,l),
(150,650,l),
(124,643,l),
(518,0,l),
(557,0,l),
(557,700,l),
(509,700,l),
(509,55,l),
(534,57,l),
(140,700,l),
(102,700,l),
(102,0,l)
);
}
);
userData = {
com.hugojourdan.ColorFlow = {
"0" = 0;
"1" = 0;
"10" = 0;
"11" = 0;
"2" = 0;
"3" = 0;
"4" = 0;
"5" = 0;
"6" = 0;
"7" = 0;
"8" = 0;
"9" = 0;
};
};
width = 659;
},
{
anchors = (
{
name = top;
pos = (350,700);
}
);
guides = (
{
angle = -59.6032;
pos = (322,292);
},
{
angle = -59.603;
pos = (188,700);
}
);
layerId = m005;
shapes = (
{
closed = 1;
nodes = (
(186,0,l),
(186,590,l),
(153,583,l),
(495,0,l),
(595,0,l),
(595,700,l),
(497,700,l),
(497,116,l),
(524,124,l),
(186,700,l),
(88,700,l),
(88,0,l)
);
}
);
userData = {
com.hugojourdan.ColorFlow = {
"0" = 0;
"1" = 0;
"10" = 0;
"11" = 0;
"2" = 0;
"3" = 0;
"4" = 0;
"5" = 0;
"6" = 0;
"7" = 0;
"8" = 0;
"9" = 0;
};
};
width = 683;
},
{
anchors = (
{
name = top;
pos = (345,700);
}
);
layerId = m006;
shapes = (
{
closed = 1;
nodes = (
(228,0,l),
(228,530,l),
(187,522,l),
(426,0,l),
(639,0,l),
(639,700,l),
(462,700,l),
(462,178,l),
(495,186,l),
(261,700,l),
(51,700,l),
(51,0,l)
);
}
);
userData = {
com.hugojourdan.ColorFlow = {
"0" = 0;
"1" = 0;
"10" = 0;
"11" = 0;
"2" = 0;
"3" = 0;
"4" = 0;
"5" = 0;
"6" = 0;
"7" = 0;
"8" = 0;
"9" = 0;
};
};
width = 690;
},
{
anchors = (
{
name = top;
pos = (407,700);
}
);
layerId = "4E5694F4-F64E-4331-B998-78BE273203C7";
shapes = (
{
closed = 1;
nodes = (
(110,0,l),
(219,650,l),
(195,643,l),
(478,0,l),
(517,0,l),
(634,700,l),
(586,700,l),
(478,55,l),
(501,57,l),
(217,700,l),
(179,700,l),
(62,0,l)
);
}
);
userData = {
com.hugojourdan.ColorFlow = {
"0" = 0;
"1" = 0;
"10" = 0;
"11" = 0;
"2" = 0;
"3" = 0;
"4" = 0;
"5" = 0;
"6" = 0;
"7" = 0;
"8" = 0;
"9" = 0;
};
};
width = 659;
},
{
anchors = (
{
name = top;
pos = (417,700);
}
);
guides = (
{
angle = -59.6032;
pos = (311,292);
},
{
angle = -59.603;
pos = (177,700);
}
);
layerId = "DF4E5521-40BA-460F-874A-364F4D14AAD8";
shapes = (
{
closed = 1;
nodes = (
(145,0,l),
(244,590,l),
(214,583,l),
(454,0,l),
(554,0,l),
(671,700,l),
(573,700,l),
(475,116,l),
(499,124,l),
(262,700,l),
(164,700,l),
(47,0,l)
);
}
);
userData = {
com.hugojourdan.ColorFlow = {
"0" = 0;
"1" = 0;
"10" = 0;
"11" = 0;
"2" = 0;
"3" = 0;
"4" = 0;
"5" = 0;
"6" = 0;
"7" = 0;
"8" = 0;
"9" = 0;
};
};
width = 683;
},
{
anchors = (
{
name = top;
pos = (419,700);
}
);
layerId = "C6DE9ED7-34B3-46A1-8A00-A72C4A5E93A3";
shapes = (
{
closed = 1;
nodes = (
(186,0,l),
(275,530,l),
(232,522,l),
(384,0,l),
(597,0,l),
(714,700,l),
(537,700,l),
(450,178,l),
(484,186,l),
(336,700,l),
(126,700,l),
(9,0,l)
);
}
);
userData = {
com.hugojourdan.ColorFlow = {
"0" = 0;
"1" = 0;
"10" = 0;
"11" = 0;
"2" = 0;
"3" = 0;
"4" = 0;
"5" = 0;
"6" = 0;
"7" = 0;
"8" = 0;
"9" = 0;
};
};
width = 690;
}
);
metricLeft = "=H";
metricRight = "=|";
note = N;
unicode = 78;
},
{
glyphname = O;
kernLeft = KO_O;
kernRight = KO_O;
layers = (
{
anchors = (
{
name = center;
pos = (355,350);
},
{
name = top;
pos = (355,700);
}
);
layerId = m01;
metricLeft = "=H*0.86";
shapes = (
{
closed = 1;
nodes = (
(526,-10,o),
(622,119,o),
(622,350,cs),
(622,581,o),
(526,710,o),
(355,710,cs),
(184,710,o),
(88,581,o),
(88,350,cs),
(88,119,o),
(184,-10,o),
(355,-10,cs)
);
},
{
closed = 1;
nodes = (
(218,22,o),
(141,140,o),
(141,350,cs),
(141,560,o),
(218,678,o),
(355,678,cs),
(492,678,o),
(569,560,o),
(569,350,cs),
(569,140,o),
(492,22,o),
(355,22,cs)
);
}
);
userData = {
com.hugojourdan.ColorFlow = {
"0" = 0;
"1" = 0;
"10" = 0;
"11" = 0;
"2" = 0;
"3" = 0;
"4" = 0;
"5" = 0;
"6" = 0;
"7" = 0;
"8" = 0;
"9" = 0;
};
};
width = 710;
},
{
anchors = (
{
name = center;
pos = (342,350);
},
{
name = top;
pos = (342,700);
}
);
layerId = "FF73925E-1E34-445B-881D-5A7CAAA8E8BE";
metricLeft = "=H*0.84";
shapes = (
{
closed = 1;
nodes = (
(543,-10,o),
(641,109,o),
(641,350,cs),
(641,591,o),
(543,710,o),
(343,710,cs),
(143,710,o),
(43,590,o),
(43,351,cs),
(43,111,o),
(144,-10,o),
(344,-10,cs)
);
},
{
closed = 1;
nodes = (
(268,80,o),
(231,169,o),
(231,350,cs),
(231,531,o),
(268,620,o),
(343,620,cs),
(417,620,o),
(453,532,o),
(453,350,cs),
(453,169,o),
(417,80,o),
(343,80,cs)
);
}
);
userData = {
com.hugojourdan.ColorFlow = {
"0" = 0;
"1" = 0;
"10" = 0;
"11" = 0;
"2" = 0;
"3" = 0;
"4" = 0;
"5" = 0;
"6" = 0;
"7" = 0;
"8" = 0;
"9" = 0;
};
};
width = 684;
},
{
anchors = (
{
name = center;
pos = (353,350);
},
{
name = top;
pos = (353,700);
}
);
layerId = "BF6BA5B2-0556-42F4-A103-614BEBF16A1A";
metricLeft = "=H*0.83";
shapes = (
{
closed = 1;
nodes = (
(533,-10,o),
(633,118,o),
(633,350,cs),
(633,586,o),
(536,710,o),
(353,710,cs),
(172,710,o),
(73,582,o),
(73,350,cs),
(73,113,o),
(168,-10,o),
(353,-10,cs)
);
},
{
closed = 1;
nodes = (
(235,38,o),
(178,139,o),
(178,351,cs),
(178,562,o),
(235,662,o),
(353,662,cs),
(470,662,o),
(528,560,o),
(528,351,cs),
(528,141,o),
(470,38,o),
(353,38,cs)
);
}
);
userData = {
com.hugojourdan.ColorFlow = {
"0" = 0;
"1" = 0;
"10" = 0;
"11" = 0;
"2" = 0;
"3" = 0;
"4" = 0;
"5" = 0;
"6" = 0;
"7" = 0;
"8" = 0;
"9" = 0;
};
};
width = 706;
},
{
anchors = (
{
name = center;
pos = (355,350);
},
{
name = top;
pos = (355,700);
}
);
layerId = m004;
metricLeft = "=H*0.86";
shapes = (
{
closed = 1;
nodes = (
(526,-10,o),
(622,119,o),
(622,350,cs),
(622,581,o),
(526,710,o),
(355,710,cs),
(184,710,o),
(88,581,o),
(88,350,cs),
(88,119,o),
(184,-10,o),
(355,-10,cs)
);
},
{
closed = 1;
nodes = (
(218,33,o),
(141,148,o),
(141,350,cs),
(141,552,o),
(218,667,o),
(355,667,cs),
(492,667,o),
(569,552,o),
(569,350,cs),
(569,148,o),
(492,33,o),
(355,33,cs)
);
}
);
userData = {
com.hugojourdan.ColorFlow = {
"0" = 0;
"1" = 0;
"10" = 0;
"11" = 0;
"2" = 0;
"3" = 0;
"4" = 0;
"5" = 0;
"6" = 0;
"7" = 0;
"8" = 0;
"9" = 0;
};
};
width = 710;
},
{
anchors = (
{
name = center;
pos = (353,350);
},
{
name = top;
pos = (353,700);
}
);
layerId = m005;
metricLeft = "=H*0.83";
shapes = (
{
closed = 1;
nodes = (
(535,-10,o),
(633,116,o),
(633,350,cs),
(633,585,o),
(535,710,o),
(353,710,cs),
(169,710,o),
(73,585,o),
(73,350,cs),
(73,115,o),
(170,-10,o),
(353,-10,cs)
);
},
{
closed = 1;
nodes = (
(239,75,o),
(178,171,o),
(178,350,cs),
(178,530,o),
(239,626,o),
(353,626,cs),
(466,626,o),
(528,530,o),
(528,350,cs),
(528,171,o),
(466,75,o),
(353,75,cs)
);
}
);
userData = {
com.hugojourdan.ColorFlow = {
"0" = 0;
"1" = 0;
"10" = 0;
"11" = 0;
"2" = 0;
"3" = 0;
"4" = 0;
"5" = 0;
"6" = 0;
"7" = 0;
"8" = 0;
"9" = 0;
};
};
width = 706;
},
{
anchors = (
{
name = center;
pos = (343,350);
},
{
name = top;
pos = (343,700);
}
);
layerId = m006;
metricLeft = "=H*0.84";
shapes = (
{
closed = 1;
nodes = (
(543,-10,o),
(641,110,o),
(641,351,cs),
(641,592,o),
(543,710,o),
(343,710,cs),
(143,710,o),
(43,591,o),
(43,351,cs),
(43,111,o),
(143,-10,o),
(343,-10,cs)
);
},
{
closed = 1;
nodes = (
(268,138,o),
(231,209,o),
(231,351,cs),
(231,493,o),
(268,562,o),
(343,562,cs),
(417,562,o),
(453,493,o),
(453,351,cs),
(453,207,o),
(417,138,o),
(343,138,cs)
);
}
);
userData = {
com.hugojourdan.ColorFlow = {
"0" = 0;
"1" = 0;
"10" = 0;
"11" = 0;
"2" = 0;
"3" = 0;
"4" = 0;
"5" = 0;
"6" = 0;
"7" = 0;
"8" = 0;
"9" = 0;
};
};
width = 684;
},
{
anchors = (
{
name = center;
pos = (373,350);
},
{
name = top;
pos = (432,700);
}
);
background = {
shapes = (
{
closed = 1;
nodes = (
(495,-10,o),
(601,110,o),
(637,328,cs),
(644,368,o),
(647,405,o),
(647,439,cs),
(647,612,o),
(563,710,o),
(407,710,cs),
(252,710,o),
(146,590,o),
(110,372,cs),
(103,332,o),
(100,295,o),
(100,261,cs),
(100,88,o),
(184,-10,o),
(339,-10,cs)
);
},
{
closed = 1;
nodes = (
(217,33,o),
(153,116,o),
(153,263,cs),
(153,295,o),
(156,330,o),
(162,368,cs),
(193,560,o),
(281,667,o),
(406,667,cs),
(530,667,o),
(594,582,o),
(594,436,cs),
(594,404,o),
(591,369,o),
(585,332,cs),
(554,140,o),
(465,33,o),
(340,33,cs)
);
}
);
};
guides = (
{
angle = 80.5;
pos = (88,239);
},
{
angle = 80.5;
pos = (622,239);
},
{
angle = 80.5;
pos = (141,239);
},
{
angle = 80.5;
pos = (569,239);
}
);
layerId = "4E5694F4-F64E-4331-B998-78BE273203C7";
metricLeft = "=H*0.86";
shapes = (
{
closed = 1;
nodes = (
(576,-10,o),
(646,271,o),
(646,439,cs),
(646,612,o),
(563,710,o),
(407,710,cs),
(171,710,o),
(101,429,o),
(101,261,cs),
(101,88,o),
(184,-10,o),
(340,-10,cs)
);
},
{
closed = 1;
nodes = (
(217,33,o),
(154,116,o),
(154,263,cs),
(154,410,o),
(211,667,o),
(406,667,cs),
(530,667,o),
(593,584,o),
(593,437,cs),
(593,292,o),
(536,33,o),
(341,33,cs)
);
}
);
userData = {
com.hugojourdan.ColorFlow = {
"0" = 0;
"1" = 0;
"10" = 0;
"11" = 0;
"2" = 0;
"3" = 0;
"4" = 0;
"5" = 0;
"6" = 0;
"7" = 0;
"8" = 0;
"9" = 0;
};
};
width = 710;
},
{
anchors = (
{
name = center;
pos = (370,350);
},
{
name = top;
pos = (429,700);
}
);
background = {
shapes = (
{
closed = 1;
nodes = (
(320,-10,o),
(330,-10,o),
(340,-10,cs),
(504,-10,o),
(611,107,o),
(647,327,cs),
(654,367,o),
(657,404,o),
(657,438,cs),
(657,603,o),
(579,697,o),
(430,709,cs),
(420,710,o),
(409,710,o),
(399,710,cs),
(234,710,o),
(129,594,o),
(93,373,cs),
(87,333,o),
(83,296,o),
(83,262,cs),
(83,97,o),
(160,3,o),
(310,-9,cs)
);
},
{
closed = 1;
nodes = (
(240,75,o),
(188,142,o),
(188,266,cs),
(188,295,o),
(191,328,o),
(197,364,cs),
(226,536,o),
(296,626,o),
(401,626,cs),
(498,626,o),
(551,559,o),
(551,434,cs),
(551,405,o),
(548,372,o),
(542,336,cs),
(514,165,o),
(443,75,o),
(339,75,cs)
);
}
);
};
guides = (
{
angle = 80.5;
pos = (72,245);
},
{
angle = 80.5;
pos = (632,245);
},
{
angle = 80.5;
pos = (177,245);
},
{
angle = 80.5;
pos = (527,245);
}
);
layerId = "DF4E5521-40BA-460F-874A-364F4D14AAD8";
metricLeft = "=H*0.83";
shapes = (
{
closed = 1;
nodes = (
(588,-10,o),
(655,269,o),
(655,438,cs),
(655,615,o),
(568,710,o),
(400,710,cs),
(146,710,o),
(85,421,o),
(85,262,cs),
(85,82,o),
(177,-10,o),
(340,-10,cs)
);
},
{
closed = 1;
nodes = (
(240,74,o),
(188,141,o),
(188,266,cs),
(188,388,o),
(235,626,o),
(401,626,cs),
(499,626,o),
(552,559,o),
(552,434,cs),
(552,312,o),
(506,74,o),
(339,74,cs)
);
}
);
userData = {
com.hugojourdan.ColorFlow = {
"0" = 0;
"1" = 0;
"10" = 0;
"11" = 0;
"2" = 0;
"3" = 0;
"4" = 0;
"5" = 0;
"6" = 0;
"7" = 0;
"8" = 0;
"9" = 0;
};
};
width = 705;
},
{
anchors = (
{
name = center;
pos = (359,350);
},
{
name = top;
pos = (418,700);
}
);
background = {
shapes = (
{
closed = 1;
nodes = (
(176,-10,o),
(336,-10,cs),
(511,-10,o),
(617,102,o),
(654,326,cs),
(661,367,o),
(664,405,o),
(664,439,cs),
(664,638,o),
(543,710,o),
(383,710,cs),
(207,710,o),
(101,599,o),
(64,376,cs),
(57,336,o),
(54,299,o),
(54,265,cs),
(54,65,o)
);
},
{
closed = 1;
nodes = (
(272,138,o),
(241,182,o),
(241,270,cs),
(241,297,o),
(243,326,o),
(249,360,cs),
(272,497,o),
(317,562,o),
(387,562,cs),
(447,562,o),
(477,520,o),
(477,433,cs),
(477,407,o),
(475,376,o),
(469,342,cs),
(446,203,o),
(402,138,o),
(334,138,cs)
);
}
);
};
guides = (
{
angle = 80.5;
pos = (43,251);
},
{
angle = 80.5;
pos = (641,251);
},
{
angle = 80.5;
pos = (231,251);
},
{
angle = 80.5;
pos = (453,251);
}
);
layerId = "C6DE9ED7-34B3-46A1-8A00-A72C4A5E93A3";
metricLeft = "=H*0.84";
shapes = (
{
closed = 1;
nodes = (
(607,-10,o),
(662,277,o),
(662,435,cs),
(662,635,o),
(549,710,o),
(381,710,cs),
(110,710,o),
(55,423,o),
(55,265,cs),
(55,65,o),
(172,-10,o),
(336,-10,cs)
);
},
{
closed = 1;
nodes = (
(272,138,o),
(241,182,o),
(241,270,cs),
(241,356,o),
(269,562,o),
(384,562,cs),
(446,562,o),
(476,518,o),
(476,430,cs),
(476,344,o),
(449,138,o),
(334,138,cs)
);
}
);
userData = {
com.hugojourdan.ColorFlow = {
"0" = 0;
"1" = 0;
"10" = 0;
"11" = 0;
"2" = 0;
"3" = 0;
"4" = 0;
"5" = 0;
"6" = 0;
"7" = 0;
"8" = 0;
"9" = 0;
};
};
width = 684;
}
);
metricRight = "=|";
note = O;
unicode = 79;
userData = {
KernOnName = O;
};
},
{
glyphname = OE;
kernLeft = KO_O;
kernRight = KO_E;
layers = (
{
layerId = m01;
shapes = (
{
closed = 1;
nodes = (
(521,-10,o),
(617,119,o),
(617,350,cs),
(617,581,o),
(523,710,o),
(355,710,cs),
(184,710,o),
(88,581,o),
(88,350,cs),
(88,119,o),
(183,-10,o),
(350,-10,cs)
);
},
{
closed = 1;
nodes = (
(218,22,o),
(141,140,o),
(141,350,cs),
(141,560,o),
(218,678,o),
(355,678,cs),
(492,678,o),
(569,560,o),
(569,350,cs),
(569,140,o),
(492,22,o),
(355,22,cs)
);
},
{
closed = 1;
nodes = (
(950,0,l),
(950,32,l),
(593,32,l),
(617,8,l),
(617,692,l),
(593,668,l),
(937,668,l),
(937,700,l),
(569,700,l),
(569,0,l)
);
},
{
closed = 1;
nodes = (
(917,348,l),
(917,378,l),
(593,378,l),
(593,348,l)
);
}
);
userData = {
com.hugojourdan.ColorFlow = {
"0" = 0;
"1" = 0;
"10" = 0;
"11" = 0;
"2" = 0;
"3" = 0;
"4" = 0;
"5" = 0;
"6" = 0;
"7" = 0;
"8" = 0;
"9" = 0;
};
};
width = 997;
},
{
layerId = "BF6BA5B2-0556-42F4-A103-614BEBF16A1A";
shapes = (
{
closed = 1;
nodes = (
(520,-10,o),
(613,116,o),
(613,350,cs),
(613,587,o),
(522,710,o),
(348,710,cs),
(172,710,o),
(73,581,o),
(73,350,cs),
(73,114,o),
(168,-10,o),
(348,-10,cs)
);
},
{
closed = 1;
nodes = (
(235,41,o),
(178,141,o),
(178,351,cs),
(178,560,o),
(235,659,o),
(354,659,cs),
(472,659,o),
(530,558,o),
(530,351,cs),
(530,143,o),
(472,41,o),
(354,41,cs)
);
},
{
closed = 1;
nodes = (
(933,0,l),
(933,52,l),
(588,52,l),
(627,13,l),
(627,687,l),
(588,648,l),
(921,648,l),
(921,700,l),
(530,700,l),
(530,0,l)
);
},
{
closed = 1;
nodes = (
(900,339,l),
(900,387,l),
(578,387,l),
(578,339,l)
);
}
);
userData = {
com.hugojourdan.ColorFlow = {
"0" = 0;
"1" = 0;
"10" = 0;
"11" = 0;
"2" = 0;
"3" = 0;
"4" = 0;
"5" = 0;
"6" = 0;
"7" = 0;
"8" = 0;
"9" = 0;
};
};
width = 973;
},
{
layerId = "FF73925E-1E34-445B-881D-5A7CAAA8E8BE";
shapes = (
{
closed = 1;
nodes = (
(462,-10,o),
(551,125,o),
(551,350,cs),
(551,576,o),
(462,710,o),
(313,710,cs),
(137,710,o),
(43,585,o),
(43,350,cs),
(43,116,o),
(138,-10,o),
(313,-10,cs)
);
},
{
closed = 1;
nodes = (
(268,84,o),
(231,172,o),
(231,350,cs),
(231,528,o),
(268,616,o),
(343,616,cs),
(417,616,o),
(453,529,o),
(453,350,cs),
(453,172,o),
(417,84,o),
(343,84,cs)
);
},
{
closed = 1;
nodes = (
(894,0,l),
(894,90,l),
(586,90,l),
(631,45,l),
(631,655,l),
(586,610,l),
(884,610,l),
(884,700,l),
(453,700,l),
(453,0,l)
);
},
{
closed = 1;
nodes = (
(861,323,l),
(861,403,l),
(542,403,l),
(542,323,l)
);
}
);
userData = {
com.hugojourdan.ColorFlow = {
"0" = 0;
"1" = 0;
"10" = 0;
"11" = 0;
"2" = 0;
"3" = 0;
"4" = 0;
"5" = 0;
"6" = 0;
"7" = 0;
"8" = 0;
"9" = 0;
};
};
width = 917;
},
{
layerId = m004;
shapes = (
{
closed = 1;
nodes = (
(523,-10,o),
(617,119,o),
(617,350,cs),
(617,581,o),
(523,710,o),
(355,710,cs),
(184,710,o),
(88,581,o),
(88,350,cs),
(88,119,o),
(184,-10,o),
(355,-10,cs)
);
},
{
closed = 1;
nodes = (
(218,34,o),
(141,148,o),
(141,350,cs),
(141,552,o),
(218,666,o),
(355,666,cs),
(492,666,o),
(569,552,o),
(569,350,cs),
(569,148,o),
(492,34,o),
(355,34,cs)
);
},
{
closed = 1;
nodes = (
(950,0,l),
(950,43,l),
(593,43,l),
(617,19,l),
(617,681,l),
(593,657,l),
(937,657,l),
(937,700,l),
(569,700,l),
(569,0,l)
);
},
{
closed = 1;
nodes = (
(917,342,l),
(917,384,l),
(593,384,l),
(593,342,l)
);
}
);
userData = {
com.hugojourdan.ColorFlow = {
"0" = 0;
"1" = 0;
"10" = 0;
"11" = 0;
"2" = 0;
"3" = 0;
"4" = 0;
"5" = 0;
"6" = 0;
"7" = 0;
"8" = 0;
"9" = 0;
};
};
width = 997;
},
{
layerId = m005;
shapes = (
{
closed = 1;
nodes = (
(520,-10,o),
(611,114,o),
(611,350,cs),
(611,586,o),
(520,710,o),
(347,710,cs),
(170,710,o),
(73,584,o),
(73,350,cs),
(73,117,o),
(170,-10,o),
(347,-10,cs)
);
},
{
closed = 1;
nodes = (
(240,75,o),
(178,172,o),
(178,350,cs),
(178,528,o),
(240,625,o),
(352,625,cs),
(464,625,o),
(525,529,o),
(525,350,cs),
(525,171,o),
(464,75,o),
(352,75,cs)
);
},
{
closed = 1;
nodes = (
(933,0,l),
(933,77,l),
(583,77,l),
(623,38,l),
(623,662,l),
(583,623,l),
(921,623,l),
(921,700,l),
(525,700,l),
(525,0,l)
);
},
{
closed = 1;
nodes = (
(898,326,l),
(898,400,l),
(573,400,l),
(573,326,l)
);
}
);
userData = {
com.hugojourdan.ColorFlow = {
"0" = 0;
"1" = 0;
"10" = 0;
"11" = 0;
"2" = 0;
"3" = 0;
"4" = 0;
"5" = 0;
"6" = 0;
"7" = 0;
"8" = 0;
"9" = 0;
};
};
width = 973;
},
{
layerId = m006;
shapes = (
{
closed = 1;
nodes = (
(478,-10,o),
(551,104,o),
(551,351,cs),
(551,597,o),
(478,710,o),
(319,710,cs),
(139,710,o),
(43,586,o),
(43,351,cs),
(43,115,o),
(139,-10,o),
(319,-10,cs)
);
},
{
closed = 1;
nodes = (
(268,143,o),
(231,212,o),
(231,351,cs),
(231,489,o),
(268,557,o),
(343,557,cs),
(417,557,o),
(453,490,o),
(453,351,cs),
(453,211,o),
(417,143,o),
(343,143,cs)
);
},
{
closed = 1;
nodes = (
(904,0,l),
(904,136,l),
(586,136,l),
(631,91,l),
(631,609,l),
(586,564,l),
(894,564,l),
(894,700,l),
(453,700,l),
(453,0,l)
);
},
{
closed = 1;
nodes = (
(871,298,l),
(871,428,l),
(542,428,l),
(542,298,l)
);
}
);
userData = {
com.hugojourdan.ColorFlow = {
"0" = 0;
"1" = 0;
"10" = 0;
"11" = 0;
"2" = 0;
"3" = 0;
"4" = 0;
"5" = 0;
"6" = 0;
"7" = 0;
"8" = 0;
"9" = 0;
};
};
width = 927;
},
{
layerId = "4E5694F4-F64E-4331-B998-78BE273203C7";
shapes = (
{
closed = 1;
nodes = (
(571,-10,o),
(640,271,o),
(640,439,cs),
(640,612,o),
(559,710,o),
(407,710,cs),
(171,710,o),
(101,429,o),
(101,261,cs),
(101,88,o),
(184,-10,o),
(340,-10,cs)
);
},
{
closed = 1;
nodes = (
(217,33,o),
(154,116,o),
(154,263,cs),
(154,410,o),
(211,667,o),
(406,667,cs),
(530,667,o),
(593,584,o),
(593,437,cs),
(593,292,o),
(536,33,o),
(341,33,cs)
);
},
{
closed = 1;
nodes = (
(910,0,l),
(917,42,l),
(570,42,l),
(582,30,l),
(690,676,l),
(672,658,l),
(1007,658,l),
(1014,700,l),
(646,700,l),
(529,0,l)
);
},
{
closed = 1;
nodes = (
(934,342,l),
(941,384,l),
(620,384,l),
(614,342,l)
);
}
);
userData = {
com.hugojourdan.ColorFlow = {
"0" = 0;
"1" = 0;
"10" = 0;
"11" = 0;
"2" = 0;
"3" = 0;
"4" = 0;
"5" = 0;
"6" = 0;
"7" = 0;
"8" = 0;
"9" = 0;
};
};
width = 997;
},
{
layerId = "DF4E5521-40BA-460F-874A-364F4D14AAD8";
shapes = (
{
closed = 1;
nodes = (
(571,-10,o),
(634,269,o),
(634,438,cs),
(634,615,o),
(553,710,o),
(392,710,cs),
(147,710,o),
(85,421,o),
(85,262,cs),
(85,82,o),
(177,-10,o),
(332,-10,cs)
);
},
{
closed = 1;
nodes = (
(239,74,o),
(188,141,o),
(188,266,cs),
(188,388,o),
(235,626,o),
(399,626,cs),
(496,626,o),
(548,559,o),
(548,434,cs),
(548,312,o),
(502,74,o),
(337,74,cs)
);
},
{
closed = 1;
nodes = (
(892,0,l),
(905,78,l),
(565,78,l),
(590,48,l),
(691,652,l),
(656,622,l),
(983,622,l),
(996,700,l),
(601,700,l),
(484,0,l)
);
},
{
closed = 1;
nodes = (
(910,326,l),
(924,400,l),
(599,400,l),
(587,326,l)
);
}
);
userData = {
com.hugojourdan.ColorFlow = {
"0" = 0;
"1" = 0;
"10" = 0;
"11" = 0;
"2" = 0;
"3" = 0;
"4" = 0;
"5" = 0;
"6" = 0;
"7" = 0;
"8" = 0;
"9" = 0;
};
};
width = 973;
},
{
layerId = "C6DE9ED7-34B3-46A1-8A00-A72C4A5E93A3";
shapes = (
{
closed = 1;
nodes = (
(531,-10,o),
(571,277,o),
(571,435,cs),
(571,635,o),
(494,710,o),
(364,710,cs),
(111,710,o),
(56,423,o),
(56,265,cs),
(56,65,o),
(173,-10,o),
(294,-10,cs)
);
},
{
closed = 1;
nodes = (
(273,138,o),
(242,182,o),
(242,270,cs),
(242,356,o),
(270,562,o),
(384,562,cs),
(445,562,o),
(475,518,o),
(475,430,cs),
(475,344,o),
(448,138,o),
(334,138,cs)
);
},
{
closed = 1;
nodes = (
(862,0,l),
(885,137,l),
(567,137,l),
(604,90,l),
(691,610,l),
(638,563,l),
(946,563,l),
(969,700,l),
(528,700,l),
(411,0,l)
);
},
{
closed = 1;
nodes = (
(879,298,l),
(901,428,l),
(572,428,l),
(550,298,l)
);
}
);
userData = {
com.hugojourdan.ColorFlow = {
"0" = 0;
"1" = 0;
"10" = 0;
"11" = 0;
"2" = 0;
"3" = 0;
"4" = 0;
"5" = 0;
"6" = 0;
"7" = 0;
"8" = 0;
"9" = 0;
};
};
width = 927;
}
);
metricLeft = "=O";
metricRight = "=E";
unicode = 338;
},
{
glyphname = P;
kernLeft = KO_H;
kernRight = KO_P;
layers = (
{
layerId = m01;
shapes = (
{
closed = 1;
nodes = (
(150,0,l),
(150,692,l),
(126,668,l),
(254,668,ls),
(396,668,o),
(476,607,o),
(476,497,cs),
(476,387,o),
(396,325,o),
(254,325,cs),
(126,325,l),
(126,293,l),
(256,293,ls),
(430,293,o),
(528,366,o),
(528,497,cs),
(528,627,o),
(430,700,o),
(256,700,cs),
(102,700,l),
(102,0,l)
);
}
);
userData = {
com.hugojourdan.ColorFlow = {
"0" = 0;
"1" = 0;
"10" = 0;
"11" = 0;
"2" = 0;
"3" = 0;
"4" = 0;
"5" = 0;
"6" = 0;
"7" = 0;
"8" = 0;
"9" = 0;
};
};
width = 616;
},
{
layerId = "FF73925E-1E34-445B-881D-5A7CAAA8E8BE";
shapes = (
{
closed = 1;
nodes = (
(228,0,l),
(228,655,l),
(183,610,l),
(270,610,ls),
(359,610,o),
(408,564,o),
(408,481,cs),
(408,398,o),
(359,352,o),
(270,352,cs),
(140,352,l),
(140,263,l),
(280,263,ls),
(481,263,o),
(594,342,o),
(594,482,cs),
(594,622,o),
(481,700,o),
(280,700,cs),
(51,700,l),
(51,0,l)
);
}
);
userData = {
com.hugojourdan.ColorFlow = {
"0" = 0;
"1" = 0;
"10" = 0;
"11" = 0;
"2" = 0;
"3" = 0;
"4" = 0;
"5" = 0;
"6" = 0;
"7" = 0;
"8" = 0;
"9" = 0;
};
};
width = 637;
},
{
layerId = "BF6BA5B2-0556-42F4-A103-614BEBF16A1A";
shapes = (
{
closed = 1;
nodes = (
(186,0,l),
(186,688,l),
(150,652,l),
(276,652,ls),
(390,652,o),
(458,593,o),
(458,491,cs),
(458,388,o),
(391,329,o),
(276,329,cs),
(137,329,l),
(137,281,l),
(281,281,ls),
(461,281,o),
(563,357,o),
(563,491,cs),
(563,624,o),
(461,700,o),
(281,700,cs),
(88,700,l),
(88,0,l)
);
}
);
userData = {
com.hugojourdan.ColorFlow = {
"0" = 0;
"1" = 0;
"10" = 0;
"11" = 0;
"2" = 0;
"3" = 0;
"4" = 0;
"5" = 0;
"6" = 0;
"7" = 0;
"8" = 0;
"9" = 0;
};
};
width = 636;
},
{
layerId = m004;
shapes = (
{
closed = 1;
nodes = (
(150,0,l),
(150,681,l),
(126,658,l),
(254,658,ls),
(396,658,o),
(476,600,o),
(476,497,cs),
(476,393,o),
(396,335,o),
(254,335,cs),
(126,335,l),
(126,293,l),
(256,293,ls),
(430,293,o),
(528,366,o),
(528,497,cs),
(528,627,o),
(430,700,o),
(256,700,cs),
(102,700,l),
(102,0,l)
);
}
);
userData = {
com.hugojourdan.ColorFlow = {
"0" = 0;
"1" = 0;
"10" = 0;
"11" = 0;
"2" = 0;
"3" = 0;
"4" = 0;
"5" = 0;
"6" = 0;
"7" = 0;
"8" = 0;
"9" = 0;
};
};
width = 616;
},
{
layerId = m005;
shapes = (
{
closed = 1;
nodes = (
(186,0,l),
(186,652,l),
(156,622,l),
(282,622,ls),
(400,622,o),
(458,579,o),
(458,491,cs),
(458,402,o),
(401,359,o),
(282,359,cs),
(137,359,l),
(137,281,l),
(279,281,ls),
(463,281,o),
(563,355,o),
(563,491,cs),
(563,627,o),
(463,700,o),
(279,700,cs),
(88,700,l),
(88,0,l)
);
}
);
userData = {
com.hugojourdan.ColorFlow = {
"0" = 0;
"1" = 0;
"10" = 0;
"11" = 0;
"2" = 0;
"3" = 0;
"4" = 0;
"5" = 0;
"6" = 0;
"7" = 0;
"8" = 0;
"9" = 0;
};
};
width = 636;
},
{
layerId = m006;
shapes = (
{
closed = 1;
nodes = (
(228,0,l),
(228,610,l),
(182,564,l),
(310,564,ls),
(376,564,o),
(408,537,o),
(408,481,cs),
(408,425,o),
(376,398,o),
(310,398,cs),
(212,398,l),
(212,263,l),
(300,263,ls),
(495,263,o),
(594,337,o),
(594,482,cs),
(594,627,o),
(495,700,o),
(300,700,cs),
(51,700,l),
(51,0,l)
);
}
);
userData = {
com.hugojourdan.ColorFlow = {
"0" = 0;
"1" = 0;
"10" = 0;
"11" = 0;
"2" = 0;
"3" = 0;
"4" = 0;
"5" = 0;
"6" = 0;
"7" = 0;
"8" = 0;
"9" = 0;
};
};
width = 637;
},
{
background = {
shapes = (
{
closed = 1;
nodes = (
(110,0,l),
(223,676,l),
(205,658,l),
(297,658,ls),
(463,658,o),
(523,603,o),
(523,521,cs),
(523,428,o),
(435,370,o),
(311,370,cs),
(150,370,l),
(143,328,l),
(313,328,ls),
(474,328,o),
(573,406,o),
(573,523,cs),
(573,631,o),
(495,700,o),
(305,700,cs),
(179,700,l),
(62,0,l)
);
}
);
};
layerId = "4E5694F4-F64E-4331-B998-78BE273203C7";
shapes = (
{
closed = 1;
nodes = (
(110,0,l),
(223,676,l),
(205,658,l),
(293,658,ls),
(459,658,o),
(519,596,o),
(519,504,cs),
(519,400,o),
(431,335,o),
(307,335,cs),
(146,335,l),
(139,293,l),
(309,293,ls),
(470,293,o),
(569,378,o),
(569,506,cs),
(569,624,o),
(495,700,o),
(301,700,cs),
(179,700,l),
(62,0,l)
);
}
);
userData = {
com.hugojourdan.ColorFlow = {
"0" = 0;
"1" = 0;
"10" = 0;
"11" = 0;
"2" = 0;
"3" = 0;
"4" = 0;
"5" = 0;
"6" = 0;
"7" = 0;
"8" = 0;
"9" = 0;
};
};
width = 616;
},
{
background = {
shapes = (
{
closed = 0;
nodes = (
(603,511,ls),
(603,620,o),
(517,686,o),
(354,700,c)
);
},
{
closed = 0;
nodes = (
(345,622,l),
(448,613,o),
(500,575,o),
(500,508,cs)
);
}
);
};
guides = (
{
angle = 80.5069;
pos = (581,350);
},
{
angle = 80.5069;
pos = (476,350);
}
);
layerId = "DF4E5521-40BA-460F-874A-364F4D14AAD8";
shapes = (
{
closed = 1;
nodes = (
(145,0,l),
(254,652,l),
(219,622,l),
(321,622,ls),
(442,622,o),
(499,583,o),
(499,502,cs),
(499,419,o),
(437,359,o),
(336,359,cs),
(156,359,l),
(143,281,l),
(335,281,ls),
(503,281,o),
(603,371,o),
(603,503,cs),
(603,633,o),
(508,700,o),
(326,700,cs),
(164,700,l),
(47,0,l)
);
}
);
userData = {
com.hugojourdan.ColorFlow = {
"0" = 0;
"1" = 0;
"10" = 0;
"11" = 0;
"2" = 0;
"3" = 0;
"4" = 0;
"5" = 0;
"6" = 0;
"7" = 0;
"8" = 0;
"9" = 0;
};
};
width = 636;
},
{
guides = (
{
angle = 260.7443;
pos = (159,365);
},
{
angle = 260.7443;
pos = (613,365);
},
{
angle = 260.7443;
pos = (427,365);
}
);
layerId = "C6DE9ED7-34B3-46A1-8A00-A72C4A5E93A3";
shapes = (
{
closed = 1;
nodes = (
(187,0,l),
(289,610,l),
(236,564,l),
(359,564,ls),
(418,564,o),
(446,540,o),
(446,491,cs),
(446,434,o),
(409,398,o),
(351,398,cs),
(164,398,l),
(142,263,l),
(358,263,ls),
(531,263,o),
(631,355,o),
(631,496,cs),
(631,629,o),
(542,700,o),
(373,700,cs),
(126,700,l),
(9,0,l)
);
}
);
userData = {
com.hugojourdan.ColorFlow = {
"0" = 0;
"1" = 0;
"10" = 0;
"11" = 0;
"2" = 0;
"3" = 0;
"4" = 0;
"5" = 0;
"6" = 0;
"7" = 0;
"8" = 0;
"9" = 0;
};
};
width = 637;
}
);
metricLeft = "=H";
metricRight = "=O";
note = P;
unicode = 80;
},
{
glyphname = Thorn;
kernLeft = KO_H;
layers = (
{
layerId = m01;
shapes = (
{
closed = 1;
nodes = (
(256,147,ls),
(430,147,o),
(528,220,o),
(528,351,cs),
(528,481,o),
(430,554,o),
(256,554,cs),
(126,554,l),
(126,522,l),
(254,522,ls),
(396,522,o),
(476,461,o),
(476,351,cs),
(476,241,o),
(396,179,o),
(254,179,cs),
(126,179,l),
(126,147,l)
);
},
{
closed = 1;
nodes = (
(150,0,l),
(150,700,l),
(102,700,l),
(102,0,l)
);
}
);
userData = {
com.hugojourdan.ColorFlow = {
"0" = 0;
"1" = 0;
"10" = 0;
"11" = 0;
"2" = 0;
"3" = 0;
"4" = 0;
"5" = 0;
"6" = 0;
"7" = 0;
"8" = 0;
"9" = 0;
};
};
width = 616;
},
{
layerId = "BF6BA5B2-0556-42F4-A103-614BEBF16A1A";
shapes = (
{
closed = 1;
nodes = (
(281,141,ls),
(461,141,o),
(563,217,o),
(563,351,cs),
(563,484,o),
(461,560,o),
(281,560,cs),
(140,560,l),
(140,512,l),
(276,512,ls),
(390,512,o),
(458,453,o),
(458,351,cs),
(458,248,o),
(391,189,o),
(276,189,cs),
(140,189,l),
(140,141,l)
);
},
{
closed = 1;
nodes = (
(186,0,l),
(186,700,l),
(88,700,l),
(88,0,l)
);
}
);
userData = {
com.hugojourdan.ColorFlow = {
"0" = 0;
"1" = 0;
"10" = 0;
"11" = 0;
"2" = 0;
"3" = 0;
"4" = 0;
"5" = 0;
"6" = 0;
"7" = 0;
"8" = 0;
"9" = 0;
};
};
width = 636;
},
{
layerId = "FF73925E-1E34-445B-881D-5A7CAAA8E8BE";
shapes = (
{
closed = 1;
nodes = (
(280,132,ls),
(481,132,o),
(594,211,o),
(594,351,cs),
(594,491,o),
(481,569,o),
(280,569,cs),
(140,569,l),
(140,479,l),
(270,479,ls),
(359,479,o),
(408,433,o),
(408,350,cs),
(408,267,o),
(359,221,o),
(270,221,cs),
(140,221,l),
(140,132,l)
);
},
{
closed = 1;
nodes = (
(228,0,l),
(228,700,l),
(51,700,l),
(51,0,l)
);
}
);
userData = {
com.hugojourdan.ColorFlow = {
"0" = 0;
"1" = 0;
"10" = 0;
"11" = 0;
"2" = 0;
"3" = 0;
"4" = 0;
"5" = 0;
"6" = 0;
"7" = 0;
"8" = 0;
"9" = 0;
};
};
width = 637;
},
{
layerId = m004;
shapes = (
{
closed = 1;
nodes = (
(256,147,ls),
(430,147,o),
(528,220,o),
(528,351,cs),
(528,481,o),
(430,554,o),
(256,554,cs),
(126,554,l),
(126,512,l),
(254,512,ls),
(397,512,o),
(476,454,o),
(476,351,cs),
(476,247,o),
(396,189,o),
(254,189,cs),
(126,189,l),
(126,147,l)
);
},
{
closed = 1;
nodes = (
(150,0,l),
(150,700,l),
(102,700,l),
(102,0,l)
);
}
);
userData = {
com.hugojourdan.ColorFlow = {
"0" = 0;
"1" = 0;
"10" = 0;
"11" = 0;
"2" = 0;
"3" = 0;
"4" = 0;
"5" = 0;
"6" = 0;
"7" = 0;
"8" = 0;
"9" = 0;
};
};
width = 616;
},
{
layerId = m005;
shapes = (
{
closed = 1;
nodes = (
(281,141,ls),
(461,141,o),
(563,217,o),
(563,351,cs),
(563,484,o),
(461,560,o),
(281,560,cs),
(140,560,l),
(140,482,l),
(276,482,ls),
(390,482,o),
(458,434,o),
(458,351,cs),
(458,267,o),
(391,219,o),
(276,219,cs),
(140,219,l),
(140,141,l)
);
},
{
closed = 1;
nodes = (
(186,0,l),
(186,700,l),
(88,700,l),
(88,0,l)
);
}
);
userData = {
com.hugojourdan.ColorFlow = {
"0" = 0;
"1" = 0;
"10" = 0;
"11" = 0;
"2" = 0;
"3" = 0;
"4" = 0;
"5" = 0;
"6" = 0;
"7" = 0;
"8" = 0;
"9" = 0;
};
};
width = 636;
},
{
layerId = m006;
shapes = (
{
closed = 1;
nodes = (
(300,132,ls),
(502,132,o),
(594,211,o),
(594,351,cs),
(594,491,o),
(502,569,o),
(300,569,cs),
(212,569,l),
(212,433,l),
(310,433,ls),
(379,433,o),
(408,403,o),
(408,350,cs),
(408,297,o),
(379,267,o),
(310,267,cs),
(212,267,l),
(212,132,l)
);
},
{
closed = 1;
nodes = (
(228,0,l),
(228,700,l),
(51,700,l),
(51,0,l)
);
}
);
userData = {
com.hugojourdan.ColorFlow = {
"0" = 0;
"1" = 0;
"10" = 0;
"11" = 0;
"2" = 0;
"3" = 0;
"4" = 0;
"5" = 0;
"6" = 0;
"7" = 0;
"8" = 0;
"9" = 0;
};
};
width = 637;
},
{
guides = (
{
angle = 80.5;
pos = (102,239);
},
{
angle = 80.5;
pos = (528,239);
}
);
layerId = "4E5694F4-F64E-4331-B998-78BE273203C7";
shapes = (
{
closed = 1;
nodes = (
(285,147,ls),
(446,147,o),
(545,232,o),
(545,360,cs),
(545,478,o),
(471,554,o),
(277,554,cs),
(183,554,l),
(176,512,l),
(269,512,ls),
(435,512,o),
(495,450,o),
(495,358,cs),
(495,254,o),
(407,189,o),
(283,189,cs),
(122,189,l),
(115,147,l)
);
},
{
closed = 1;
nodes = (
(110,0,l),
(227,700,l),
(179,700,l),
(62,0,l)
);
}
);
userData = {
com.hugojourdan.ColorFlow = {
"0" = 0;
"1" = 0;
"10" = 0;
"11" = 0;
"2" = 0;
"3" = 0;
"4" = 0;
"5" = 0;
"6" = 0;
"7" = 0;
"8" = 0;
"9" = 0;
};
};
width = 616;
},
{
layerId = "DF4E5521-40BA-460F-874A-364F4D14AAD8";
shapes = (
{
closed = 1;
nodes = (
(313,141,ls),
(481,141,o),
(581,231,o),
(581,363,cs),
(581,493,o),
(486,560,o),
(304,560,cs),
(197,560,l),
(184,482,l),
(299,482,ls),
(420,482,o),
(477,443,o),
(477,362,cs),
(477,279,o),
(415,219,o),
(314,219,cs),
(134,219,l),
(121,141,l)
);
},
{
closed = 1;
nodes = (
(145,0,l),
(262,700,l),
(164,700,l),
(47,0,l)
);
}
);
userData = {
com.hugojourdan.ColorFlow = {
"0" = 0;
"1" = 0;
"10" = 0;
"11" = 0;
"2" = 0;
"3" = 0;
"4" = 0;
"5" = 0;
"6" = 0;
"7" = 0;
"8" = 0;
"9" = 0;
};
};
width = 638;
},
{
layerId = "C6DE9ED7-34B3-46A1-8A00-A72C4A5E93A3";
shapes = (
{
closed = 1;
nodes = (
(337,132,ls),
(510,132,o),
(610,224,o),
(610,365,cs),
(610,498,o),
(521,569,o),
(352,569,cs),
(192,569,l),
(170,433,l),
(338,433,ls),
(397,433,o),
(425,409,o),
(425,360,cs),
(425,303,o),
(388,267,o),
(330,267,cs),
(143,267,l),
(121,132,l)
);
},
{
closed = 1;
nodes = (
(187,0,l),
(304,700,l),
(126,700,l),
(9,0,l)
);
}
);
userData = {
com.hugojourdan.ColorFlow = {
"0" = 0;
"1" = 0;
"10" = 0;
"11" = 0;
"2" = 0;
"3" = 0;
"4" = 0;
"5" = 0;
"6" = 0;
"7" = 0;
"8" = 0;
"9" = 0;
};
};
width = 638;
}
);
metricLeft = "=H";
metricRight = "=O";
unicode = 222;
},
{
glyphname = Q;
kernLeft = KO_O;
layers = (
{
layerId = m01;
shapes = (
{
closed = 1;
nodes = (
(526,-10,o),
(622,119,o),
(622,350,cs),
(622,581,o),
(526,710,o),
(355,710,cs),
(184,710,o),
(88,581,o),
(88,350,cs),
(88,119,o),
(184,-10,o),
(355,-10,cs)
);
},
{
closed = 1;
nodes = (
(620,-120,l),
(515,-27,o),
(429,76,o),
(364,189,c),
(339,170,l),
(400,54,o),
(482,-52,o),
(583,-148,c)
);
},
{
closed = 1;
nodes = (
(218,22,o),
(141,140,o),
(141,350,cs),
(141,560,o),
(218,678,o),
(355,678,cs),
(492,678,o),
(569,560,o),
(569,350,cs),
(569,140,o),
(492,22,o),
(355,22,cs)
);
}
);
userData = {
com.hugojourdan.ColorFlow = {
"0" = 0;
"1" = 0;
"10" = 0;
"11" = 0;
"2" = 0;
"3" = 0;
"4" = 0;
"5" = 0;
"6" = 0;
"7" = 0;
"8" = 0;
"9" = 0;
};
};
width = 710;
},
{
layerId = "FF73925E-1E34-445B-881D-5A7CAAA8E8BE";
metricRight = "=|-33";
shapes = (
{
closed = 1;
nodes = (
(543,-10,o),
(641,109,o),
(641,350,cs),
(641,591,o),
(543,710,o),
(343,710,cs),
(143,710,o),
(43,590,o),
(43,351,cs),
(43,111,o),
(144,-10,o),
(344,-10,cs)
);
},
{
closed = 1;
nodes = (
(674,-49,l),
(556,-7,o),
(473,50,o),
(425,118,c),
(383,86,l),
(418,8,o),
(488,-70,o),
(590,-148,c)
);
},
{
closed = 1;
nodes = (
(268,80,o),
(231,169,o),
(231,350,cs),
(231,531,o),
(268,620,o),
(343,620,cs),
(417,620,o),
(453,532,o),
(453,350,cs),
(453,169,o),
(417,80,o),
(343,80,cs)
);
}
);
userData = {
com.hugojourdan.ColorFlow = {
"0" = 0;
"1" = 0;
"10" = 0;
"11" = 0;
"2" = 0;
"3" = 0;
"4" = 0;
"5" = 0;
"6" = 0;
"7" = 0;
"8" = 0;
"9" = 0;
};
};
width = 684;
},
{
layerId = "BF6BA5B2-0556-42F4-A103-614BEBF16A1A";
metricRight = "=|-9";
shapes = (
{
closed = 1;
nodes = (
(533,-10,o),
(633,118,o),
(633,350,cs),
(633,586,o),
(536,710,o),
(353,710,cs),
(172,710,o),
(73,582,o),
(73,350,cs),
(73,113,o),
(168,-10,o),
(353,-10,cs)
);
},
{
closed = 1;
nodes = (
(642,-88,l),
(560,-51,o),
(499,2,o),
(457,70,c),
(426,46,l),
(461,-29,o),
(516,-93,o),
(595,-148,c)
);
},
{
closed = 1;
nodes = (
(235,38,o),
(178,139,o),
(178,351,cs),
(178,562,o),
(235,662,o),
(353,662,cs),
(470,662,o),
(528,560,o),
(528,351,cs),
(528,141,o),
(470,38,o),
(353,38,cs)
);
}
);
userData = {
com.hugojourdan.ColorFlow = {
"0" = 0;
"1" = 0;
"10" = 0;
"11" = 0;
"2" = 0;
"3" = 0;
"4" = 0;
"5" = 0;
"6" = 0;
"7" = 0;
"8" = 0;
"9" = 0;
};
};
width = 706;
},
{
layerId = m004;
shapes = (
{
closed = 1;
nodes = (
(526,-10,o),
(622,119,o),
(622,350,cs),
(622,581,o),
(526,710,o),
(355,710,cs),
(184,710,o),
(88,581,o),
(88,350,cs),
(88,119,o),
(184,-10,o),
(355,-10,cs)
);
},
{
closed = 1;
nodes = (
(620,-120,l),
(537,-16,o),
(453,89,o),
(370,193,c),
(333,165,l),
(416,61,o),
(500,-44,o),
(583,-148,c)
);
},
{
closed = 1;
nodes = (
(218,33,o),
(141,148,o),
(141,350,cs),
(141,552,o),
(218,667,o),
(355,667,cs),
(492,667,o),
(569,552,o),
(569,350,cs),
(569,148,o),
(492,33,o),
(355,33,cs)
);
}
);
userData = {
com.hugojourdan.ColorFlow = {
"0" = 0;
"1" = 0;
"10" = 0;
"11" = 0;
"2" = 0;
"3" = 0;
"4" = 0;
"5" = 0;
"6" = 0;
"7" = 0;
"8" = 0;
"9" = 0;
};
};
width = 710;
},
{
layerId = m005;
metricRight = "=|-9";
shapes = (
{
closed = 1;
nodes = (
(535,-10,o),
(633,116,o),
(633,350,cs),
(633,585,o),
(535,710,o),
(353,710,cs),
(169,710,o),
(73,585,o),
(73,350,cs),
(73,115,o),
(170,-10,o),
(353,-10,cs)
);
},
{
closed = 1;
nodes = (
(642,-102,l),
(585,-31,o),
(528,41,o),
(471,112,c),
(410,66,l),
(467,-5,o),
(524,-77,o),
(581,-148,c)
);
},
{
closed = 1;
nodes = (
(239,75,o),
(178,171,o),
(178,350,cs),
(178,530,o),
(239,626,o),
(353,626,cs),
(466,626,o),
(528,530,o),
(528,350,cs),
(528,171,o),
(466,75,o),
(353,75,cs)
);
}
);
userData = {
com.hugojourdan.ColorFlow = {
"0" = 0;
"1" = 0;
"10" = 0;
"11" = 0;
"2" = 0;
"3" = 0;
"4" = 0;
"5" = 0;
"6" = 0;
"7" = 0;
"8" = 0;
"9" = 0;
};
};
width = 706;
},
{
layerId = m006;
metricRight = "=|-33";
shapes = (
{
closed = 1;
nodes = (
(543,-10,o),
(641,110,o),
(641,351,cs),
(641,592,o),
(543,710,o),
(343,710,cs),
(143,710,o),
(43,591,o),
(43,351,cs),
(43,111,o),
(143,-10,o),
(343,-10,cs)
);
},
{
closed = 1;
nodes = (
(674,-69,l),
(612,9,o),
(549,87,o),
(487,165,c),
(383,86,l),
(445,8,o),
(508,-70,o),
(570,-148,c)
);
},
{
closed = 1;
nodes = (
(268,138,o),
(231,209,o),
(231,351,cs),
(231,493,o),
(268,562,o),
(343,562,cs),
(417,562,o),
(453,493,o),
(453,351,cs),
(453,207,o),
(417,138,o),
(343,138,cs)
);
}
);
userData = {
com.hugojourdan.ColorFlow = {
"0" = 0;
"1" = 0;
"10" = 0;
"11" = 0;
"2" = 0;
"3" = 0;
"4" = 0;
"5" = 0;
"6" = 0;
"7" = 0;
"8" = 0;
"9" = 0;
};
};
width = 684;
},
{
layerId = "4E5694F4-F64E-4331-B998-78BE273203C7";
shapes = (
{
closed = 1;
nodes = (
(576,-10,o),
(646,271,o),
(646,439,cs),
(646,612,o),
(563,710,o),
(407,710,cs),
(171,710,o),
(101,429,o),
(101,261,cs),
(101,88,o),
(184,-10,o),
(340,-10,cs)
);
},
{
closed = 1;
nodes = (
(558,-141,l),
(494,-30,o),
(428,82,o),
(363,192,c),
(321,167,l),
(387,57,o),
(452,-55,o),
(517,-165,c)
);
},
{
closed = 1;
nodes = (
(217,33,o),
(154,116,o),
(154,263,cs),
(154,410,o),
(211,667,o),
(406,667,cs),
(530,667,o),
(593,584,o),
(593,437,cs),
(593,292,o),
(536,33,o),
(341,33,cs)
);
}
);
userData = {
com.hugojourdan.ColorFlow = {
"0" = 0;
"1" = 0;
"10" = 0;
"11" = 0;
"2" = 0;
"3" = 0;
"4" = 0;
"5" = 0;
"6" = 0;
"7" = 0;
"8" = 0;
"9" = 0;
};
};
width = 710;
},
{
layerId = "DF4E5521-40BA-460F-874A-364F4D14AAD8";
metricRight = "=|-9";
shapes = (
{
closed = 1;
nodes = (
(588,-10,o),
(655,269,o),
(655,438,cs),
(655,615,o),
(568,710,o),
(400,710,cs),
(146,710,o),
(85,421,o),
(85,262,cs),
(85,82,o),
(177,-10,o),
(340,-10,cs)
);
},
{
closed = 1;
nodes = (
(581,-124,l),
(536,-49,o),
(492,28,o),
(448,103,c),
(379,62,l),
(424,-13,o),
(469,-90,o),
(513,-165,c)
);
},
{
closed = 1;
nodes = (
(240,74,o),
(188,141,o),
(188,266,cs),
(188,388,o),
(235,626,o),
(401,626,cs),
(499,626,o),
(552,559,o),
(552,434,cs),
(552,312,o),
(506,74,o),
(339,74,cs)
);
}
);
userData = {
com.hugojourdan.ColorFlow = {
"0" = 0;
"1" = 0;
"10" = 0;
"11" = 0;
"2" = 0;
"3" = 0;
"4" = 0;
"5" = 0;
"6" = 0;
"7" = 0;
"8" = 0;
"9" = 0;
};
};
width = 706;
},
{
layerId = "C6DE9ED7-34B3-46A1-8A00-A72C4A5E93A3";
metricRight = "=|-33";
shapes = (
{
closed = 1;
nodes = (
(607,-10,o),
(662,277,o),
(662,435,cs),
(662,635,o),
(549,710,o),
(381,710,cs),
(110,710,o),
(55,423,o),
(55,265,cs),
(55,65,o),
(172,-10,o),
(336,-10,cs)
);
},
{
closed = 1;
nodes = (
(617,-94,l),
(569,-11,o),
(519,72,o),
(471,155,c),
(355,85,l),
(403,2,o),
(452,-81,o),
(501,-164,c)
);
},
{
closed = 1;
nodes = (
(272,138,o),
(241,182,o),
(241,270,cs),
(241,356,o),
(269,562,o),
(384,562,cs),
(446,562,o),
(476,518,o),
(476,430,cs),
(476,344,o),
(449,138,o),
(334,138,cs)
);
}
);
userData = {
com.hugojourdan.ColorFlow = {
"0" = 0;
"1" = 0;
"10" = 0;
"11" = 0;
"2" = 0;
"3" = 0;
"4" = 0;
"5" = 0;
"6" = 0;
"7" = 0;
"8" = 0;
"9" = 0;
};
};
width = 684;
}
);
metricLeft = "=O";
metricRight = "=|";
note = Q;
unicode = 81;
},
{
glyphname = R;
kernLeft = KO_H;
kernRight = KO_R;
layers = (
{
layerId = m01;
shapes = (
{
closed = 1;
nodes = (
(150,0,l),
(150,692,l),
(126,668,l),
(254,668,ls),
(396,668,o),
(476,612,o),
(476,512,cs),
(476,415,o),
(396,360,o),
(254,360,cs),
(142,360,l),
(142,328,l),
(256,328,ls),
(430,328,o),
(528,394,o),
(528,512,cs),
(528,633,o),
(431,700,o),
(256,700,cs),
(102,700,l),
(102,0,l)
);
},
{
closed = 1;
nodes = (
(562,0,l),
(295,347,l),
(239,347,l),
(502,0,l)
);
}
);
userData = {
com.hugojourdan.ColorFlow = {
"0" = 0;
"1" = 0;
"10" = 0;
"11" = 0;
"2" = 0;
"3" = 0;
"4" = 0;
"5" = 0;
"6" = 0;
"7" = 0;
"8" = 0;
"9" = 0;
};
};
width = 594;
},
{
layerId = "FF73925E-1E34-445B-881D-5A7CAAA8E8BE";
shapes = (
{
closed = 1;
nodes = (
(228,0,l),
(228,655,l),
(183,610,l),
(270,610,ls),
(360,610,o),
(409,569,o),
(409,496,cs),
(409,424,o),
(359,383,o),
(270,383,cs),
(140,383,l),
(140,293,l),
(280,293,ls),
(482,293,o),
(595,366,o),
(595,497,cs),
(595,627,o),
(482,700,o),
(280,700,cs),
(51,700,l),
(51,0,l)
);
},
{
closed = 1;
nodes = (
(630,0,l),
(423,342,l),
(257,345,l),
(436,0,l)
);
}
);
userData = {
com.hugojourdan.ColorFlow = {
"0" = 0;
"1" = 0;
"10" = 0;
"11" = 0;
"2" = 0;
"3" = 0;
"4" = 0;
"5" = 0;
"6" = 0;
"7" = 0;
"8" = 0;
"9" = 0;
};
};
width = 636;
},
{
layerId = "BF6BA5B2-0556-42F4-A103-614BEBF16A1A";
shapes = (
{
closed = 1;
nodes = (
(186,0,l),
(186,688,l),
(150,652,l),
(286,652,ls),
(394,652,o),
(452,604,o),
(452,508,cs),
(452,411,o),
(394,363,o),
(286,363,cs),
(174,363,l),
(174,315,l),
(291,315,ls),
(465,315,o),
(556,379,o),
(556,508,cs),
(556,636,o),
(465,700,o),
(291,700,cs),
(88,700,l),
(88,0,l)
);
},
{
closed = 1;
nodes = (
(594,0,l),
(361,332,l),
(261,332,l),
(484,0,l)
);
}
);
userData = {
com.hugojourdan.ColorFlow = {
"0" = 0;
"1" = 0;
"10" = 0;
"11" = 0;
"2" = 0;
"3" = 0;
"4" = 0;
"5" = 0;
"6" = 0;
"7" = 0;
"8" = 0;
"9" = 0;
};
};
width = 614;
},
{
layerId = m004;
shapes = (
{
closed = 1;
nodes = (
(150,0,l),
(150,681,l),
(126,658,l),
(264,658,ls),
(400,658,o),
(476,606,o),
(476,514,cs),
(476,422,o),
(400,370,o),
(264,370,cs),
(126,370,l),
(126,328,l),
(266,328,ls),
(434,328,o),
(528,395,o),
(528,514,cs),
(528,633,o),
(434,700,o),
(266,700,cs),
(102,700,l),
(102,0,l)
);
},
{
closed = 1;
nodes = (
(562,0,l),
(295,347,l),
(232,347,l),
(501,0,l)
);
}
);
userData = {
com.hugojourdan.ColorFlow = {
"0" = 0;
"1" = 0;
"10" = 0;
"11" = 0;
"2" = 0;
"3" = 0;
"4" = 0;
"5" = 0;
"6" = 0;
"7" = 0;
"8" = 0;
"9" = 0;
};
};
width = 594;
},
{
layerId = m005;
shapes = (
{
closed = 1;
nodes = (
(186,0,l),
(186,652,l),
(156,622,l),
(276,622,ls),
(395,622,o),
(453,577,o),
(453,497,cs),
(453,418,o),
(395,374,o),
(276,374,cs),
(175,374,l),
(175,296,l),
(277,296,ls),
(461,296,o),
(558,368,o),
(558,497,cs),
(558,627,o),
(461,700,o),
(277,700,cs),
(88,700,l),
(88,0,l)
);
},
{
closed = 1;
nodes = (
(594,0,l),
(353,346,l),
(249,346,l),
(483,0,l)
);
}
);
userData = {
com.hugojourdan.ColorFlow = {
"0" = 0;
"1" = 0;
"10" = 0;
"11" = 0;
"2" = 0;
"3" = 0;
"4" = 0;
"5" = 0;
"6" = 0;
"7" = 0;
"8" = 0;
"9" = 0;
};
};
width = 614;
},
{
layerId = m006;
shapes = (
{
closed = 1;
nodes = (
(228,0,l),
(228,610,l),
(182,564,l),
(310,564,ls),
(377,564,o),
(409,538,o),
(409,483,cs),
(409,428,o),
(377,402,o),
(310,402,cs),
(212,402,l),
(212,267,l),
(300,267,ls),
(496,267,o),
(595,340,o),
(595,484,cs),
(595,628,o),
(496,700,o),
(300,700,cs),
(51,700,l),
(51,0,l)
);
},
{
closed = 1;
nodes = (
(630,0,l),
(431,344,l),
(261,344,l),
(440,0,l)
);
}
);
userData = {
com.hugojourdan.ColorFlow = {
"0" = 0;
"1" = 0;
"10" = 0;
"11" = 0;
"2" = 0;
"3" = 0;
"4" = 0;
"5" = 0;
"6" = 0;
"7" = 0;
"8" = 0;
"9" = 0;
};
};
width = 636;
},
{
layerId = "4E5694F4-F64E-4331-B998-78BE273203C7";
shapes = (
{
closed = 1;
nodes = (
(110,0,l),
(223,676,l),
(205,658,l),
(297,658,ls),
(463,658,o),
(523,603,o),
(523,521,cs),
(523,428,o),
(435,370,o),
(311,370,cs),
(150,370,l),
(143,328,l),
(313,328,ls),
(474,328,o),
(573,406,o),
(573,523,cs),
(573,631,o),
(495,700,o),
(305,700,cs),
(179,700,l),
(62,0,l)
);
},
{
closed = 1;
nodes = (
(522,0,l),
(323,354,l),
(266,354,l),
(467,0,l)
);
}
);
userData = {
com.hugojourdan.ColorFlow = {
"0" = 0;
"1" = 0;
"10" = 0;
"11" = 0;
"2" = 0;
"3" = 0;
"4" = 0;
"5" = 0;
"6" = 0;
"7" = 0;
"8" = 0;
"9" = 0;
};
};
width = 594;
},
{
layerId = "DF4E5521-40BA-460F-874A-364F4D14AAD8";
shapes = (
{
closed = 1;
nodes = (
(145,0,l),
(254,652,l),
(219,622,l),
(316,622,ls),
(437,622,o),
(494,585,o),
(494,509,cs),
(494,431,o),
(432,374,o),
(331,374,cs),
(158,374,l),
(146,296,l),
(330,296,ls),
(498,296,o),
(598,383,o),
(598,510,cs),
(598,635,o),
(503,700,o),
(321,700,cs),
(164,700,l),
(47,0,l)
);
},
{
closed = 1;
nodes = (
(553,0,l),
(382,346,l),
(283,346,l),
(448,0,l)
);
}
);
userData = {
com.hugojourdan.ColorFlow = {
"0" = 0;
"1" = 0;
"10" = 0;
"11" = 0;
"2" = 0;
"3" = 0;
"4" = 0;
"5" = 0;
"6" = 0;
"7" = 0;
"8" = 0;
"9" = 0;
};
};
width = 614;
},
{
layerId = "C6DE9ED7-34B3-46A1-8A00-A72C4A5E93A3";
shapes = (
{
closed = 1;
nodes = (
(187,0,l),
(289,610,l),
(236,564,l),
(359,564,ls),
(418,564,o),
(446,541,o),
(446,493,cs),
(446,437,o),
(409,402,o),
(351,402,cs),
(165,402,l),
(143,267,l),
(358,267,ls),
(531,267,o),
(631,358,o),
(631,498,cs),
(631,630,o),
(542,700,o),
(373,700,cs),
(126,700,l),
(9,0,l)
);
},
{
closed = 1;
nodes = (
(588,0,l),
(454,344,l),
(287,344,l),
(401,0,l)
);
}
);
userData = {
com.hugojourdan.ColorFlow = {
"0" = 0;
"1" = 0;
"10" = 0;
"11" = 0;
"2" = 0;
"3" = 0;
"4" = 0;
"5" = 0;
"6" = 0;
"7" = 0;
"8" = 0;
"9" = 0;
};
};
width = 636;
}
);
metricLeft = "=H";
note = R;
unicode = 82;
},
{
glyphname = S;
kernLeft = KO_S;
kernRight = KO_S;
layers = (
{
anchors = (
{
name = bottom;
pos = (272,0);
},
{
name = top;
pos = (279,700);
}
);
guides = (
{
angle = 236.31;
pos = (84,103);
}
);
layerId = m01;
shapes = (
{
closed = 1;
nodes = (
(398,-10,o),
(483,65,o),
(483,176,cs),
(483,303,o),
(380,334,o),
(273,388,cs),
(163,443,o),
(127,481,o),
(127,543,cs),
(127,623,o),
(188,678,o),
(276,678,cs),
(341,678,o),
(401,648,o),
(427,602,c),
(460,637,l),
(418,683,o),
(352,710,o),
(281,710,cs),
(163,710,o),
(78,638,o),
(78,537,cs),
(78,460,o),
(123,409,o),
(245,349,cs),
(332,306,o),
(435,272,o),
(435,169,cs),
(435,85,o),
(365,22,o),
(270,22,cs),
(200,22,o),
(139,64,o),
(104,133,c),
(69,81,l),
(114,24,o),
(191,-10,o),
(274,-10,cs)
);
}
);
userData = {
com.hugojourdan.ColorFlow = {
"0" = 0;
"1" = 0;
"10" = 0;
"11" = 0;
"2" = 0;
"3" = 0;
"4" = 0;
"5" = 0;
"6" = 0;
"7" = 0;
"8" = 0;
"9" = 0;
};
};
width = 566;
},
{
anchors = (
{
name = bottom;
pos = (295,0);
},
{
name = top;
pos = (286,700);
}
);
guides = (
{
angle = 233.3544;
pos = (66,121);
},
{
angle = 90;
pos = (58,95);
},
{
angle = 90;
pos = (501,601);
},
{
angle = 44.158;
pos = (463,573);
}
);
layerId = "BF6BA5B2-0556-42F4-A103-614BEBF16A1A";
shapes = (
{
closed = 1;
nodes = (
(429,-10,o),
(521,63,o),
(521,172,cs),
(521,299,o),
(394,355,o),
(303,407,cs),
(203,463,o),
(167,503,o),
(167,558,cs),
(167,621,o),
(213,664,o),
(284,664,cs),
(349,664,o),
(398,628,o),
(440,549,c),
(497,604,l),
(447,675,o),
(378,710,o),
(287,710,cs),
(162,710,o),
(74,634,o),
(74,528,cs),
(74,404,o),
(194,355,o),
(288,304,cs),
(390,248,o),
(428,209,o),
(428,153,cs),
(428,83,o),
(376,38,o),
(296,38,cs),
(207,38,o),
(142,91,o),
(114,187,c),
(57,110,l),
(105,36,o),
(195,-10,o),
(293,-10,cs)
);
}
);
userData = {
com.hugojourdan.ColorFlow = {
"0" = 0;
"1" = 0;
"10" = 0;
"11" = 0;
"2" = 0;
"3" = 0;
"4" = 0;
"5" = 0;
"6" = 0;
"7" = 0;
"8" = 0;
"9" = 0;
};
};
width = 590;
},
{
associatedMasterId = "FF73925E-1E34-445B-881D-5A7CAAA8E8BE";
layerId = "01D1DCD4-D6A4-4EDB-B9BC-2A98E82E96A8";
name = "10 Jun 23 12.27 PM";
shapes = (
{
closed = 1;
nodes = (
(428,-10,o),
(522,70,o),
(522,191,cs),
(522,272,o),
(478,326,o),
(351,399,cs),
(253,456,o),
(221,491,o),
(221,542,cs),
(221,587,o),
(244,616,o),
(278,616,cs),
(318,616,o),
(352,574,o),
(379,491,c),
(524,542,l),
(485,647,o),
(395,710,o),
(282,710,cs),
(149,710,o),
(62,626,o),
(62,498,cs),
(62,411,o),
(102,359,o),
(213,303,cs),
(314,252,o),
(346,218,o),
(346,162,cs),
(346,113,o),
(320,80,o),
(281,80,cs),
(236,80,o),
(191,128,o),
(157,211,c),
(28,121,l),
(80,39,o),
(176,-10,o),
(286,-10,cs)
);
}
);
userData = {
com.hugojourdan.ColorFlow = {
"0" = 0;
"1" = 0;
"10" = 0;
"11" = 0;
"2" = 0;
"3" = 0;
"4" = 0;
"5" = 0;
"6" = 0;
"7" = 0;
"8" = 0;
"9" = 0;
};
};
width = 560;
},
{
anchors = (
{
name = bottom;
pos = (306,0);
},
{
name = top;
pos = (300,700);
}
);
guides = (
{
angle = 90;
pos = (543,599);
},
{
angle = 44.158;
pos = (495,553);
}
);
layerId = "FF73925E-1E34-445B-881D-5A7CAAA8E8BE";
name = Bold;
shapes = (
{
closed = 1;
nodes = (
(457,-10,o),
(556,70,o),
(556,191,cs),
(556,286,o),
(503,350,o),
(376,419,cs),
(268,479,o),
(235,505,o),
(235,548,cs),
(234,595,o),
(262,622,o),
(313,622,cs),
(364,622,o),
(414,580,o),
(455,506,c),
(551,599,l),
(487,675,o),
(410,710,o),
(307,710,cs),
(157,710,o),
(62,629,o),
(62,503,cs),
(62,408,o),
(115,344,o),
(239,275,cs),
(346,215,o),
(379,189,o),
(380,146,cs),
(380,104,o),
(353,80,o),
(305,80,cs),
(246,80,o),
(181,135,o),
(122,234,c),
(34,115,l),
(91,38,o),
(195,-10,o),
(306,-10,cs)
);
}
);
userData = {
com.hugojourdan.ColorFlow = {
"0" = 0;
"1" = 0;
"10" = 0;
"11" = 0;
"2" = 0;
"3" = 0;
"4" = 0;
"5" = 0;
"6" = 0;
"7" = 0;
"8" = 0;
"9" = 0;
};
};
width = 596;
},
{
anchors = (
{
name = top;
pos = (280,700);
}
);
associatedMasterId = "FF73925E-1E34-445B-881D-5A7CAAA8E8BE";
guides = (
{
angle = 151.2602;
pos = (219,285);
}
);
layerId = "D8E4FFE5-BED4-4E71-8FF9-723148DABEAF";
name = "10 Jun 23 10.21 PM";
shapes = (
{
closed = 1;
nodes = (
(428,-10,o),
(522,70,o),
(522,191,cs),
(522,282,o),
(474,344,o),
(356,409,cs),
(235,475,o),
(187,493,o),
(186,562,cs),
(186,614,o),
(223,660,o),
(268,660,cs),
(318,660,o),
(352,603,o),
(379,491,c),
(524,542,l),
(485,647,o),
(395,710,o),
(282,710,cs),
(145,710,o),
(56,628,o),
(56,503,cs),
(56,412,o),
(103,349,o),
(219,285,cs),
(338,220,o),
(385,201,o),
(386,132,cs),
(386,88,o),
(361,40,o),
(291,40,cs),
(236,40,o),
(191,103,o),
(157,211,c),
(28,121,l),
(80,39,o),
(176,-10,o),
(286,-10,cs)
);
}
);
userData = {
com.hugojourdan.ColorFlow = {
"0" = 0;
"1" = 0;
"10" = 0;
"11" = 0;
"2" = 0;
"3" = 0;
"4" = 0;
"5" = 0;
"6" = 0;
"7" = 0;
"8" = 0;
"9" = 0;
};
};
width = 560;
},
{
anchors = (
{
name = bottom;
pos = (272,0);
},
{
name = top;
pos = (279,700);
}
);
layerId = m004;
shapes = (
{
closed = 1;
nodes = (
(381,-10,o),
(483,50,o),
(483,176,cs),
(483,292,o),
(381,340,o),
(287,384,cs),
(204,423,o),
(127,459,o),
(127,536,cs),
(127,613,o),
(187,668,o),
(276,668,cs),
(341,668,o),
(401,639,o),
(427,602,c),
(460,637,l),
(415,686,o),
(347,710,o),
(281,710,cs),
(178,710,o),
(78,651,o),
(78,537,cs),
(78,430,o),
(174,385,o),
(266,341,cs),
(352,300,o),
(435,261,o),
(435,175,cs),
(435,92,o),
(364,32,o),
(270,32,cs),
(200,32,o),
(135,66,o),
(98,118,c),
(69,81,l),
(117,21,o),
(197,-10,o),
(274,-10,cs)
);
}
);
userData = {
com.hugojourdan.ColorFlow = {
"0" = 0;
"1" = 0;
"10" = 0;
"11" = 0;
"2" = 0;
"3" = 0;
"4" = 0;
"5" = 0;
"6" = 0;
"7" = 0;
"8" = 0;
"9" = 0;
};
};
width = 566;
},
{
anchors = (
{
name = bottom;
pos = (290,0);
},
{
name = top;
pos = (293,700);
}
);
layerId = m005;
shapes = (
{
closed = 1;
nodes = (
(411,-10,o),
(521,56,o),
(521,190,cs),
(521,319,o),
(411,363,o),
(315,403,cs),
(238,434,o),
(169,462,o),
(169,526,cs),
(169,583,o),
(211,628,o),
(291,628,cs),
(357,628,o),
(415,598,o),
(444,559,c),
(507,622,l),
(456,681,o),
(376,710,o),
(297,710,cs),
(168,710,o),
(72,633,o),
(72,517,cs),
(72,395,o),
(178,352,o),
(273,313,cs),
(353,280,o),
(425,250,o),
(425,181,cs),
(425,117,o),
(368,72,o),
(289,72,cs),
(214,72,o),
(149,111,o),
(118,156,c),
(57,86,l),
(104,28,o),
(189,-10,o),
(290,-10,cs)
);
}
);
userData = {
com.hugojourdan.ColorFlow = {
"0" = 0;
"1" = 0;
"10" = 0;
"11" = 0;
"2" = 0;
"3" = 0;
"4" = 0;
"5" = 0;
"6" = 0;
"7" = 0;
"8" = 0;
"9" = 0;
};
};
width = 590;
},
{
anchors = (
{
name = bottom;
pos = (297,0);
},
{
name = top;
pos = (290,700);
}
);
layerId = m006;
name = Bold;
shapes = (
{
closed = 1;
nodes = (
(433,-10,o),
(557,66,o),
(557,212,cs),
(557,364,o),
(423,405,o),
(322,437,cs),
(260,456,o),
(210,474,o),
(210,511,cs),
(210,547,o),
(240,565,o),
(280,565,cs),
(326,565,o),
(386,540,o),
(426,490,c),
(537,599,l),
(476,674,o),
(378,710,o),
(298,710,cs),
(126,710,o),
(37,604,o),
(37,486,cs),
(37,334,o),
(171,294,o),
(273,264,cs),
(335,245,o),
(385,228,o),
(385,191,cs),
(385,154,o),
(349,136,o),
(304,136,cs),
(249,136,o),
(180,163,o),
(145,215,c),
(34,95,l),
(78,39,o),
(171,-10,o),
(290,-10,cs)
);
}
);
userData = {
com.hugojourdan.ColorFlow = {
"0" = 0;
"1" = 0;
"10" = 0;
"11" = 0;
"2" = 0;
"3" = 0;
"4" = 0;
"5" = 0;
"6" = 0;
"7" = 0;
"8" = 0;
"9" = 0;
};
};
width = 597;
},
{
anchors = (
{
name = bottom;
pos = (250,0);
},
{
name = top;
pos = (342,700);
}
);
background = {
shapes = (
{
closed = 1;
nodes = (
(374,-10,o),
(472,72,o),
(472,189,cs),
(472,285,o),
(388,336,o),
(310,383,cs),
(240,425,o),
(178,464,o),
(178,532,cs),
(178,596,o),
(230,668,o),
(329,668,cs),
(401,668,o),
(463,631,o),
(484,589,c),
(523,621,l),
(482,679,o),
(408,710,o),
(335,710,cs),
(219,710,o),
(129,634,o),
(129,526,cs),
(129,437,o),
(205,388,o),
(281,342,cs),
(353,298,o),
(423,256,o),
(423,183,cs),
(423,94,o),
(344,32,o),
(253,32,cs),
(175,32,o),
(112,74,o),
(81,134,c),
(46,99,l),
(88,29,o),
(169,-10,o),
(253,-10,cs)
);
}
);
};
layerId = "4E5694F4-F64E-4331-B998-78BE273203C7";
shapes = (
{
closed = 1;
nodes = (
(373,-10,o),
(471,73,o),
(471,184,cs),
(471,284,o),
(388,335,o),
(310,382,cs),
(238,426,o),
(178,463,o),
(178,532,cs),
(178,596,o),
(230,668,o),
(329,668,cs),
(401,668,o),
(463,631,o),
(484,589,c),
(523,621,l),
(482,679,o),
(408,710,o),
(335,710,cs),
(219,710,o),
(129,633,o),
(129,530,cs),
(129,437,o),
(202,392,o),
(281,343,cs),
(358,296,o),
(422,256,o),
(422,182,cs),
(422,95,o),
(343,32,o),
(252,32,cs),
(176,32,o),
(112,74,o),
(81,134,c),
(46,99,l),
(88,29,o),
(169,-10,o),
(252,-10,cs)
);
}
);
userData = {
com.hugojourdan.ColorFlow = {
"0" = 0;
"1" = 0;
"10" = 0;
"11" = 0;
"2" = 0;
"3" = 0;
"4" = 0;
"5" = 0;
"6" = 0;
"7" = 0;
"8" = 0;
"9" = 0;
};
};
width = 566;
},
{
anchors = (
{
name = bottom;
pos = (268,0);
},
{
name = top;
pos = (365,700);
}
);
background = {
shapes = (
{
closed = 1;
nodes = (
(413,-10,o),
(510,75,o),
(510,205,cs),
(510,310,o),
(419,357,o),
(338,401,cs),
(272,435,o),
(213,467,o),
(213,522,cs),
(213,570,o),
(253,628,o),
(335,628,cs),
(409,628,o),
(468,590,o),
(492,545,c),
(565,603,l),
(519,674,o),
(433,710,o),
(346,710,cs),
(216,710,o),
(114,623,o),
(114,502,cs),
(114,403,o),
(203,357,o),
(282,314,cs),
(351,278,o),
(411,244,o),
(411,185,cs),
(411,117,o),
(346,72,o),
(275,72,cs),
(194,72,o),
(130,119,o),
(105,171,c),
(33,106,l),
(80,27,o),
(187,-10,o),
(272,-10,cs)
);
}
);
};
layerId = "DF4E5521-40BA-460F-874A-364F4D14AAD8";
shapes = (
{
closed = 1;
nodes = (
(412,-10,o),
(510,78,o),
(510,200,cs),
(510,306,o),
(434,348,o),
(339,399,cs),
(267,437,o),
(213,467,o),
(213,523,cs),
(213,570,o),
(252,628,o),
(338,628,cs),
(408,628,o),
(468,590,o),
(492,545,c),
(565,603,l),
(520,673,o),
(433,710,o),
(348,710,cs),
(216,710,o),
(114,622,o),
(114,507,cs),
(114,406,o),
(193,363,o),
(281,316,cs),
(363,272,o),
(411,241,o),
(411,184,cs),
(411,117,o),
(348,72,o),
(272,72,cs),
(196,72,o),
(131,119,o),
(106,171,c),
(34,106,l),
(82,26,o),
(187,-10,o),
(275,-10,cs)
);
}
);
userData = {
com.hugojourdan.ColorFlow = {
"0" = 0;
"1" = 0;
"10" = 0;
"11" = 0;
"2" = 0;
"3" = 0;
"4" = 0;
"5" = 0;
"6" = 0;
"7" = 0;
"8" = 0;
"9" = 0;
};
};
width = 590;
},
{
anchors = (
{
name = bottom;
pos = (275,0);
},
{
name = top;
pos = (366,700);
}
);
background = {
shapes = (
{
closed = 1;
nodes = (
(428,-10,o),
(549,81,o),
(549,230,cs),
(549,353,o),
(436,400,o),
(350,436,cs),
(295,460,o),
(251,480,o),
(251,512,cs),
(251,543,o),
(282,565,o),
(321,565,cs),
(369,565,o),
(428,535,o),
(462,479,c),
(590,578,l),
(537,666,o),
(438,710,o),
(340,710,cs),
(182,710,o),
(73,604,o),
(73,467,cs),
(73,344,o),
(185,299,o),
(273,264,cs),
(328,241,o),
(372,222,o),
(372,189,cs),
(372,154,o),
(334,136,o),
(296,136,cs),
(239,136,o),
(166,169,o),
(138,228,c),
(9,118,l),
(58,31,o),
(176,-10,o),
(277,-10,cs)
);
}
);
};
layerId = "C6DE9ED7-34B3-46A1-8A00-A72C4A5E93A3";
name = Bold;
shapes = (
{
closed = 1;
nodes = (
(429,-10,o),
(549,84,o),
(549,225,cs),
(549,344,o),
(460,385,o),
(353,431,cs),
(295,456,o),
(251,477,o),
(251,514,cs),
(251,543,o),
(282,565,o),
(322,565,cs),
(369,565,o),
(428,535,o),
(462,479,c),
(590,578,l),
(537,666,o),
(439,710,o),
(339,710,cs),
(184,710,o),
(76,602,o),
(76,471,cs),
(76,351,o),
(170,309,o),
(272,268,cs),
(326,246,o),
(372,226,o),
(372,187,cs),
(372,154,o),
(334,136,o),
(294,136,cs),
(241,136,o),
(168,169,o),
(141,228,c),
(12,118,l),
(60,31,o),
(177,-10,o),
(277,-10,cs)
);
}
);
userData = {
com.hugojourdan.ColorFlow = {
"0" = 0;
"1" = 0;
"10" = 0;
"11" = 0;
"2" = 0;
"3" = 0;
"4" = 0;
"5" = 0;
"6" = 0;
"7" = 0;
"8" = 0;
"9" = 0;
};
};
width = 597;
}
);
metricLeft = "=O*0.78";
metricRight = "=O*0.94";
note = S;
unicode = 83;
},
{
glyphname = Germandbls;
layers = (
{
layerId = m01;
shapes = (
{
closed = 1;
nodes = (
(473,-10,o),
(564,63,o),
(564,207,cs),
(564,330,o),
(494,405,o),
(377,408,c),
(382,400,l),
(544,673,l),
(544,700,l),
(310,700,ls),
(173,700,o),
(102,624,o),
(102,478,cs),
(102,0,l),
(150,0,l),
(150,472,ls),
(150,612,o),
(198,668,o),
(316,668,cs),
(516,668,l),
(496,676,l),
(339,411,l),
(349,377,l),
(363,377,ls),
(454,377,o),
(511,311,o),
(511,205,cs),
(511,81,o),
(441,22,o),
(292,22,c),
(292,-10,l)
);
}
);
userData = {
com.hugojourdan.ColorFlow = {
"0" = 0;
"1" = 0;
"10" = 0;
"11" = 0;
"2" = 0;
"3" = 0;
"4" = 0;
"5" = 0;
"6" = 0;
"7" = 0;
"8" = 0;
"9" = 0;
};
};
width = 651;
},
{
layerId = "BF6BA5B2-0556-42F4-A103-614BEBF16A1A";
shapes = (
{
closed = 1;
nodes = (
(484,-10,o),
(580,62,o),
(580,208,cs),
(580,330,o),
(510,405,o),
(398,403,c),
(409,392,l),
(565,655,l),
(565,700,l),
(323,700,ls),
(170,700,o),
(88,619,o),
(88,467,cs),
(88,0,l),
(187,0,l),
(187,493,ls),
(187,603,o),
(227,648,o),
(326,648,cs),
(504,648,l),
(482,670,l),
(321,399,l),
(334,357,l),
(357,357,ls),
(432,357,o),
(476,305,o),
(476,209,cs),
(476,95,o),
(415,42,o),
(289,42,c),
(289,-10,l)
);
}
);
userData = {
com.hugojourdan.ColorFlow = {
"0" = 0;
"1" = 0;
"10" = 0;
"11" = 0;
"2" = 0;
"3" = 0;
"4" = 0;
"5" = 0;
"6" = 0;
"7" = 0;
"8" = 0;
"9" = 0;
};
};
width = 650;
},
{
layerId = "FF73925E-1E34-445B-881D-5A7CAAA8E8BE";
shapes = (
{
closed = 1;
nodes = (
(497,-10,o),
(599,62,o),
(599,205,cs),
(599,318,o),
(518,386,o),
(386,384,c),
(433,355,l),
(594,627,l),
(594,700,l),
(327,700,ls),
(150,700,o),
(51,610,o),
(51,450,cs),
(51,0,l),
(229,0,l),
(229,508,ls),
(229,581,o),
(258,612,o),
(326,612,cs),
(472,612,l),
(448,652,l),
(287,380,l),
(305,322,l),
(323,322,ls),
(390,322,o),
(416,290,o),
(416,206,cs),
(416,121,o),
(379,81,o),
(295,78,c),
(295,-10,l)
);
}
);
userData = {
com.hugojourdan.ColorFlow = {
"0" = 0;
"1" = 0;
"10" = 0;
"11" = 0;
"2" = 0;
"3" = 0;
"4" = 0;
"5" = 0;
"6" = 0;
"7" = 0;
"8" = 0;
"9" = 0;
};
};
width = 643;
},
{
background = {
shapes = (
{
closed = 0;
nodes = (
(159,24,l),
(544,673,l),
(544,700,l)
);
},
{
closed = 0;
nodes = (
(496,676,l),
(110,25,l)
);
}
);
};
guides = (
{
angle = 24.7108;
pos = (320,429);
},
{
angle = 270;
pos = (554,270);
},
{
angle = 270;
pos = (524,270);
},
{
angle = 59.3148;
pos = (463,537);
}
);
layerId = m004;
shapes = (
{
closed = 1;
nodes = (
(473,-10,o),
(564,63,o),
(564,207,cs),
(564,333,o),
(494,410,o),
(377,413,c),
(382,400,l),
(544,673,l),
(544,700,l),
(310,700,ls),
(173,700,o),
(102,624,o),
(102,478,cs),
(102,0,l),
(150,0,l),
(150,472,ls),
(150,604,o),
(198,658,o),
(316,658,cs),
(516,658,l),
(496,676,l),
(339,411,l),
(349,377,l),
(363,377,ls),
(454,377,o),
(511,311,o),
(511,205,cs),
(511,89,o),
(441,34,o),
(282,34,c),
(282,-10,l)
);
}
);
userData = {
com.hugojourdan.ColorFlow = {
"0" = 0;
"1" = 0;
"10" = 0;
"11" = 0;
"2" = 0;
"3" = 0;
"4" = 0;
"5" = 0;
"6" = 0;
"7" = 0;
"8" = 0;
"9" = 0;
};
};
width = 651;
},
{
layerId = m005;
shapes = (
{
closed = 1;
nodes = (
(485,-10,o),
(580,63,o),
(580,208,cs),
(580,334,o),
(510,411,o),
(398,409,c),
(409,392,l),
(565,655,l),
(565,700,l),
(323,700,ls),
(170,700,o),
(88,619,o),
(88,467,cs),
(88,0,l),
(187,0,l),
(187,467,ls),
(187,577,o),
(227,622,o),
(326,622,cs),
(489,622,l),
(470,650,l),
(321,399,l),
(337,346,l),
(357,346,ls),
(432,346,o),
(476,296,o),
(476,213,cs),
(476,113,o),
(420,68,o),
(289,67,c),
(289,-10,l)
);
}
);
userData = {
com.hugojourdan.ColorFlow = {
"0" = 0;
"1" = 0;
"10" = 0;
"11" = 0;
"2" = 0;
"3" = 0;
"4" = 0;
"5" = 0;
"6" = 0;
"7" = 0;
"8" = 0;
"9" = 0;
};
};
width = 650;
},
{
guides = (
{
angle = 59.315;
pos = (594,627);
}
);
layerId = m006;
shapes = (
{
closed = 1;
nodes = (
(498,-10,o),
(599,63,o),
(599,210,cs),
(599,320,o),
(530,388,o),
(426,380,c),
(435,359,l),
(594,627,l),
(594,700,l),
(327,700,ls),
(150,700,o),
(51,610,o),
(51,450,cs),
(51,0,l),
(229,0,l),
(229,460,ls),
(229,533,o),
(258,564,o),
(326,564,cs),
(440,564,l),
(423,610,l),
(287,380,l),
(312,298,l),
(343,298,ls),
(391,298,o),
(416,273,o),
(416,226,cs),
(416,152,o),
(381,122,o),
(295,120,c),
(295,-10,l)
);
}
);
userData = {
com.hugojourdan.ColorFlow = {
"0" = 0;
"1" = 0;
"10" = 0;
"11" = 0;
"2" = 0;
"3" = 0;
"4" = 0;
"5" = 0;
"6" = 0;
"7" = 0;
"8" = 0;
"9" = 0;
};
};
width = 643;
},
{
background = {
shapes = (
{
closed = 0;
nodes = (
(204,24,l),
(589,673,l),
(589,700,l)
);
},
{
closed = 0;
nodes = (
(541,676,l),
(155,25,l)
);
}
);
};
guides = (
{
angle = 24.7108;
pos = (365,429);
},
{
angle = 270;
pos = (599,270);
},
{
angle = 270;
pos = (569,270);
},
{
angle = 59.3148;
pos = (508,537);
}
);
layerId = "4E5694F4-F64E-4331-B998-78BE273203C7";
shapes = (
{
closed = 1;
nodes = (
(431,-10,o),
(535,63,o),
(559,207,cs),
(580,333,o),
(523,410,o),
(406,413,c),
(409,400,l),
(617,673,l),
(621,700,l),
(387,700,ls),
(250,700,o),
(166,624,o),
(142,478,cs),
(62,0,l),
(110,0,l),
(189,472,ls),
(211,604,o),
(268,658,o),
(386,658,cs),
(586,658,l),
(569,676,l),
(368,411,l),
(372,377,l),
(386,377,ls),
(477,377,o),
(523,311,o),
(505,205,cs),
(486,89,o),
(407,34,o),
(248,34,c),
(240,-10,l)
);
}
);
userData = {
com.hugojourdan.ColorFlow = {
"0" = 0;
"1" = 0;
"10" = 0;
"11" = 0;
"2" = 0;
"3" = 0;
"4" = 0;
"5" = 0;
"6" = 0;
"7" = 0;
"8" = 0;
"9" = 0;
};
};
width = 651;
},
{
layerId = "DF4E5521-40BA-460F-874A-364F4D14AAD8";
shapes = (
{
closed = 1;
nodes = (
(442,-10,o),
(550,63,o),
(574,208,cs),
(595,334,o),
(538,411,o),
(425,409,c),
(434,392,l),
(634,655,l),
(641,700,l),
(399,700,ls),
(246,700,o),
(151,619,o),
(125,467,cs),
(47,0,l),
(146,0,l),
(224,467,ls),
(243,577,o),
(290,622,o),
(389,622,cs),
(552,622,l),
(538,650,l),
(347,399,l),
(354,346,l),
(374,346,ls),
(449,346,o),
(485,296,o),
(471,213,cs),
(454,113,o),
(390,68,o),
(259,67,c),
(246,-10,l)
);
}
);
userData = {
com.hugojourdan.ColorFlow = {
"0" = 0;
"1" = 0;
"10" = 0;
"11" = 0;
"2" = 0;
"3" = 0;
"4" = 0;
"5" = 0;
"6" = 0;
"7" = 0;
"8" = 0;
"9" = 0;
};
};
width = 650;
},
{
guides = (
{
angle = 59.315;
pos = (327,374);
}
);
layerId = "C6DE9ED7-34B3-46A1-8A00-A72C4A5E93A3";
shapes = (
{
closed = 1;
nodes = (
(454,-10,o),
(568,63,o),
(592,210,cs),
(611,320,o),
(553,388,o),
(448,380,c),
(453,359,l),
(657,627,l),
(669,700,l),
(402,700,ls),
(225,700,o),
(111,610,o),
(84,450,cs),
(9,0,l),
(187,0,l),
(264,460,ls),
(276,533,o),
(310,564,o),
(378,564,cs),
(492,564,l),
(483,610,l),
(309,380,l),
(320,298,l),
(351,298,ls),
(399,298,o),
(420,273,o),
(412,226,cs),
(399,152,o),
(359,122,o),
(273,120,c),
(251,-10,l)
);
}
);
userData = {
com.hugojourdan.ColorFlow = {
"0" = 0;
"1" = 0;
"10" = 0;
"11" = 0;
"2" = 0;
"3" = 0;
"4" = 0;
"5" = 0;
"6" = 0;
"7" = 0;
"8" = 0;
"9" = 0;
};
};
width = 643;
}
);
metricLeft = "=I";
metricRight = "=eight";
unicode = 7838;
},
{
glyphname = T;
kernLeft = KO_T;
kernRight = KO_T;
layers = (
{
layerId = m01;
shapes = (
{
closed = 1;
nodes = (
(296,0,l),
(296,668,l),
(516,668,l),
(516,700,l),
(28,700,l),
(28,668,l),
(248,668,l),
(248,0,l)
);
}
);
userData = {
com.hugojourdan.ColorFlow = {
"0" = 0;
"1" = 0;
"10" = 0;
"11" = 0;
"2" = 0;
"3" = 0;
"4" = 0;
"5" = 0;
"6" = 0;
"7" = 0;
"8" = 0;
"9" = 0;
};
};
width = 544;
},
{
layerId = "FF73925E-1E34-445B-881D-5A7CAAA8E8BE";
shapes = (
{
closed = 1;
nodes = (
(377,0,l),
(377,610,l),
(562,610,l),
(562,700,l),
(14,700,l),
(14,610,l),
(199,610,l),
(199,0,l)
);
}
);
userData = {
com.hugojourdan.ColorFlow = {
"0" = 0;
"1" = 0;
"10" = 0;
"11" = 0;
"2" = 0;
"3" = 0;
"4" = 0;
"5" = 0;
"6" = 0;
"7" = 0;
"8" = 0;
"9" = 0;
};
};
width = 576;
},
{
layerId = "BF6BA5B2-0556-42F4-A103-614BEBF16A1A";
shapes = (
{
closed = 1;
nodes = (
(328,0,l),
(328,648,l),
(534,648,l),
(534,700,l),
(24,700,l),
(24,648,l),
(230,648,l),
(230,0,l)
);
}
);
userData = {
com.hugojourdan.ColorFlow = {
"0" = 0;
"1" = 0;
"10" = 0;
"11" = 0;
"2" = 0;
"3" = 0;
"4" = 0;
"5" = 0;
"6" = 0;
"7" = 0;
"8" = 0;
"9" = 0;
};
};
width = 558;
},
{
layerId = m004;
shapes = (
{
closed = 1;
nodes = (
(296,0,l),
(296,658,l),
(516,658,l),
(516,700,l),
(28,700,l),
(28,658,l),
(248,658,l),
(248,0,l)
);
}
);
userData = {
com.hugojourdan.ColorFlow = {
"0" = 0;
"1" = 0;
"10" = 0;
"11" = 0;
"2" = 0;
"3" = 0;
"4" = 0;
"5" = 0;
"6" = 0;
"7" = 0;
"8" = 0;
"9" = 0;
};
};
width = 544;
},
{
layerId = m005;
shapes = (
{
closed = 1;
nodes = (
(328,0,l),
(328,617,l),
(534,617,l),
(534,700,l),
(24,700,l),
(24,617,l),
(230,617,l),
(230,0,l)
);
}
);
userData = {
com.hugojourdan.ColorFlow = {
"0" = 0;
"1" = 0;
"10" = 0;
"11" = 0;
"2" = 0;
"3" = 0;
"4" = 0;
"5" = 0;
"6" = 0;
"7" = 0;
"8" = 0;
"9" = 0;
};
};
width = 558;
},
{
layerId = m006;
shapes = (
{
closed = 1;
nodes = (
(377,0,l),
(377,557,l),
(562,557,l),
(562,700,l),
(14,700,l),
(14,557,l),
(199,557,l),
(199,0,l)
);
}
);
userData = {
com.hugojourdan.ColorFlow = {
"0" = 0;
"1" = 0;
"10" = 0;
"11" = 0;
"2" = 0;
"3" = 0;
"4" = 0;
"5" = 0;
"6" = 0;
"7" = 0;
"8" = 0;
"9" = 0;
};
};
width = 576;
},
{
layerId = "4E5694F4-F64E-4331-B998-78BE273203C7";
shapes = (
{
closed = 1;
nodes = (
(256,0,l),
(366,658,l),
(586,658,l),
(593,700,l),
(105,700,l),
(98,658,l),
(318,658,l),
(208,0,l)
);
}
);
userData = {
com.hugojourdan.ColorFlow = {
"0" = 0;
"1" = 0;
"10" = 0;
"11" = 0;
"2" = 0;
"3" = 0;
"4" = 0;
"5" = 0;
"6" = 0;
"7" = 0;
"8" = 0;
"9" = 0;
};
};
width = 544;
},
{
layerId = "DF4E5521-40BA-460F-874A-364F4D14AAD8";
shapes = (
{
closed = 1;
nodes = (
(287,0,l),
(390,617,l),
(596,617,l),
(610,700,l),
(100,700,l),
(86,617,l),
(292,617,l),
(189,0,l)
);
}
);
userData = {
com.hugojourdan.ColorFlow = {
"0" = 0;
"1" = 0;
"10" = 0;
"11" = 0;
"2" = 0;
"3" = 0;
"4" = 0;
"5" = 0;
"6" = 0;
"7" = 0;
"8" = 0;
"9" = 0;
};
};
width = 558;
},
{
layerId = "C6DE9ED7-34B3-46A1-8A00-A72C4A5E93A3";
shapes = (
{
closed = 1;
nodes = (
(335,0,l),
(428,557,l),
(613,557,l),
(637,700,l),
(89,700,l),
(65,557,l),
(250,557,l),
(157,0,l)
);
}
);
userData = {
com.hugojourdan.ColorFlow = {
"0" = 0;
"1" = 0;
"10" = 0;
"11" = 0;
"2" = 0;
"3" = 0;
"4" = 0;
"5" = 0;
"6" = 0;
"7" = 0;
"8" = 0;
"9" = 0;
};
};
width = 576;
}
);
metricLeft = "=H*0.27";
metricRight = "=|";
note = T;
unicode = 84;
userData = {
KernOnName = T;
};
},
{
glyphname = U;
kernLeft = KO_U;
kernRight = KO_U;
layers = (
{
anchors = (
{
name = top;
pos = (322,700);
}
);
layerId = m01;
shapes = (
{
closed = 1;
nodes = (
(468,-10,o),
(541,81,o),
(541,280,cs),
(541,700,l),
(503,700,l),
(503,261,ls),
(503,97,o),
(444,22,o),
(315,22,cs),
(194,22,o),
(138,86,o),
(138,226,cs),
(138,700,l),
(90,700,l),
(90,250,ls),
(90,71,o),
(160,-10,o),
(309,-10,cs)
);
}
);
userData = {
com.hugojourdan.ColorFlow = {
"0" = 0;
"1" = 0;
"10" = 0;
"11" = 0;
"2" = 0;
"3" = 0;
"4" = 0;
"5" = 0;
"6" = 0;
"7" = 0;
"8" = 0;
"9" = 0;
};
};
width = 631;
},
{
anchors = (
{
name = top;
pos = (348,700);
}
);
layerId = "FF73925E-1E34-445B-881D-5A7CAAA8E8BE";
shapes = (
{
closed = 1;
nodes = (
(503,-10,o),
(593,86,o),
(593,288,cs),
(593,700,l),
(472,700,l),
(472,244,ls),
(472,131,o),
(433,80,o),
(348,80,cs),
(265,80,o),
(223,129,o),
(223,224,cs),
(223,700,l),
(45,700,l),
(45,242,ls),
(45,74,o),
(135,-10,o),
(313,-10,cs)
);
}
);
userData = {
com.hugojourdan.ColorFlow = {
"0" = 0;
"1" = 0;
"10" = 0;
"11" = 0;
"2" = 0;
"3" = 0;
"4" = 0;
"5" = 0;
"6" = 0;
"7" = 0;
"8" = 0;
"9" = 0;
};
};
width = 638;
},
{
anchors = (
{
name = top;
pos = (347,700);
}
);
layerId = "BF6BA5B2-0556-42F4-A103-614BEBF16A1A";
shapes = (
{
closed = 1;
nodes = (
(499,-10,o),
(581,84,o),
(581,283,cs),
(581,700,l),
(511,700,l),
(511,249,ls),
(511,104,o),
(458,38,o),
(341,38,cs),
(235,38,o),
(183,95,o),
(183,213,cs),
(183,700,l),
(77,700,l),
(77,241,ls),
(77,72,o),
(159,-10,o),
(325,-10,cs)
);
}
);
userData = {
com.hugojourdan.ColorFlow = {
"0" = 0;
"1" = 0;
"10" = 0;
"11" = 0;
"2" = 0;
"3" = 0;
"4" = 0;
"5" = 0;
"6" = 0;
"7" = 0;
"8" = 0;
"9" = 0;
};
};
width = 658;
},
{
anchors = (
{
name = top;
pos = (322,700);
}
);
layerId = m004;
shapes = (
{
closed = 1;
nodes = (
(474,-10,o),
(541,76,o),
(541,280,cs),
(541,700,l),
(493,700,l),
(493,271,ls),
(493,102,o),
(441,32,o),
(315,32,cs),
(195,32,o),
(138,97,o),
(138,236,cs),
(138,700,l),
(90,700,l),
(90,250,ls),
(90,70,o),
(160,-10,o),
(315,-10,cs)
);
}
);
userData = {
com.hugojourdan.ColorFlow = {
"0" = 0;
"1" = 0;
"10" = 0;
"11" = 0;
"2" = 0;
"3" = 0;
"4" = 0;
"5" = 0;
"6" = 0;
"7" = 0;
"8" = 0;
"9" = 0;
};
};
width = 631;
},
{
anchors = (
{
name = top;
pos = (329,700);
}
);
layerId = m005;
shapes = (
{
closed = 1;
nodes = (
(499,-10,o),
(581,85,o),
(581,282,cs),
(581,700,l),
(475,700,l),
(475,269,ls),
(475,135,o),
(430,75,o),
(329,75,cs),
(231,75,o),
(183,132,o),
(183,248,cs),
(183,700,l),
(77,700,l),
(77,264,ls),
(77,82,o),
(161,-10,o),
(329,-10,cs)
);
}
);
userData = {
com.hugojourdan.ColorFlow = {
"0" = 0;
"1" = 0;
"10" = 0;
"11" = 0;
"2" = 0;
"3" = 0;
"4" = 0;
"5" = 0;
"6" = 0;
"7" = 0;
"8" = 0;
"9" = 0;
};
};
width = 658;
},
{
anchors = (
{
name = top;
pos = (323,700);
}
);
layerId = m006;
shapes = (
{
closed = 1;
nodes = (
(498,-10,o),
(593,91,o),
(593,279,cs),
(593,700,l),
(415,700,l),
(415,267,ls),
(415,182,o),
(383,138,o),
(319,138,cs),
(255,138,o),
(223,182,o),
(223,267,cs),
(223,700,l),
(45,700,l),
(45,279,ls),
(45,91,o),
(140,-10,o),
(319,-10,cs)
);
}
);
userData = {
com.hugojourdan.ColorFlow = {
"0" = 0;
"1" = 0;
"10" = 0;
"11" = 0;
"2" = 0;
"3" = 0;
"4" = 0;
"5" = 0;
"6" = 0;
"7" = 0;
"8" = 0;
"9" = 0;
};
};
width = 638;
},
{
anchors = (
{
name = top;
pos = (397,700);
}
);
background = {
shapes = (
{
closed = 1;
nodes = (
(98,0,l),
(215,702,l),
(167,702,l),
(50,0,l)
);
},
{
closed = 1;
nodes = (
(501,0,l),
(618,702,l),
(570,702,l),
(453,0,l)
);
}
);
};
layerId = "4E5694F4-F64E-4331-B998-78BE273203C7";
shapes = (
{
closed = 1;
nodes = (
(439,-10,o),
(513,71,o),
(545,263,cs),
(618,700,l),
(570,700,l),
(496,257,ls),
(469,94,o),
(414,32,o),
(297,32,cs),
(171,32,o),
(116,109,o),
(140,251,cs),
(215,700,l),
(167,700,l),
(95,269,ls),
(65,88,o),
(135,-10,o),
(295,-10,cs)
);
}
);
userData = {
com.hugojourdan.ColorFlow = {
"0" = 0;
"1" = 0;
"10" = 0;
"11" = 0;
"2" = 0;
"3" = 0;
"4" = 0;
"5" = 0;
"6" = 0;
"7" = 0;
"8" = 0;
"9" = 0;
};
};
width = 631;
},
{
anchors = (
{
name = top;
pos = (409,700);
}
);
background = {
shapes = (
{
closed = 1;
nodes = (
(134,0,l),
(251,700,l),
(153,700,l),
(36,0,l)
);
},
{
closed = 1;
nodes = (
(538,0,l),
(655,700,l),
(557,700,l),
(440,0,l)
);
}
);
};
layerId = "DF4E5521-40BA-460F-874A-364F4D14AAD8";
shapes = (
{
closed = 1;
nodes = (
(469,-10,o),
(550,72,o),
(582,263,cs),
(655,700,l),
(557,700,l),
(483,257,ls),
(462,130,o),
(411,75,o),
(314,75,cs),
(206,75,o),
(158,142,o),
(178,263,cs),
(251,700,l),
(153,700,l),
(84,287,ls),
(52,98,o),
(135,-10,o),
(312,-10,cs)
);
}
);
userData = {
com.hugojourdan.ColorFlow = {
"0" = 0;
"1" = 0;
"10" = 0;
"11" = 0;
"2" = 0;
"3" = 0;
"4" = 0;
"5" = 0;
"6" = 0;
"7" = 0;
"8" = 0;
"9" = 0;
};
};
width = 656;
},
{
anchors = (
{
name = top;
pos = (399,700);
}
);
background = {
shapes = (
{
closed = 1;
nodes = (
(181,0,l),
(298,700,l),
(120,700,l),
(3,0,l)
);
},
{
closed = 1;
nodes = (
(551,0,l),
(668,700,l),
(490,700,l),
(373,0,l)
);
}
);
};
layerId = "C6DE9ED7-34B3-46A1-8A00-A72C4A5E93A3";
shapes = (
{
closed = 1;
nodes = (
(469,-10,o),
(564,77,o),
(594,257,cs),
(668,700,l),
(490,700,l),
(416,257,ls),
(402,174,o),
(370,138,o),
(313,138,cs),
(246,138,o),
(213,189,o),
(227,275,cs),
(298,700,l),
(120,700,l),
(54,305,ls),
(21,109,o),
(115,-10,o),
(306,-10,cs)
);
}
);
userData = {
com.hugojourdan.ColorFlow = {
"0" = 0;
"1" = 0;
"10" = 0;
"11" = 0;
"2" = 0;
"3" = 0;
"4" = 0;
"5" = 0;
"6" = 0;
"7" = 0;
"8" = 0;
"9" = 0;
};
};
width = 638;
}
);
metricLeft = "=H*0.88";
metricRight = "=|";
note = U;
unicode = 85;
},
{
glyphname = V;
kernLeft = KO_V;
kernRight = KO_V;
layers = (
{
layerId = m01;
metricLeft = "=W*1.03";
shapes = (
{
closed = 1;
nodes = (
(317,0,l),
(554,700,l),
(516,700,l),
(293,39,l),
(321,39,l),
(107,700,l),
(53,700,l),
(289,0,l)
);
}
);
userData = {
com.hugojourdan.ColorFlow = {
"0" = 0;
"1" = 0;
"10" = 0;
"11" = 0;
"2" = 0;
"3" = 0;
"4" = 0;
"5" = 0;
"6" = 0;
"7" = 0;
"8" = 0;
"9" = 0;
};
};
width = 607;
},
{
layerId = "FF73925E-1E34-445B-881D-5A7CAAA8E8BE";
shapes = (
{
closed = 1;
nodes = (
(399,0,l),
(595,700,l),
(495,700,l),
(339,135,l),
(352,135,l),
(206,700,l),
(11,700,l),
(208,0,l)
);
}
);
userData = {
com.hugojourdan.ColorFlow = {
"0" = 0;
"1" = 0;
"10" = 0;
"11" = 0;
"2" = 0;
"3" = 0;
"4" = 0;
"5" = 0;
"6" = 0;
"7" = 0;
"8" = 0;
"9" = 0;
};
};
width = 606;
},
{
layerId = "BF6BA5B2-0556-42F4-A103-614BEBF16A1A";
shapes = (
{
closed = 1;
nodes = (
(347,0,l),
(569,700,l),
(501,700,l),
(306,73,l),
(332,73,l),
(144,700,l),
(36,700,l),
(257,0,l)
);
}
);
userData = {
com.hugojourdan.ColorFlow = {
"0" = 0;
"1" = 0;
"10" = 0;
"11" = 0;
"2" = 0;
"3" = 0;
"4" = 0;
"5" = 0;
"6" = 0;
"7" = 0;
"8" = 0;
"9" = 0;
};
};
width = 605;
},
{
layerId = m004;
shapes = (
{
closed = 1;
nodes = (
(317,0,l),
(553,700,l),
(499,700,l),
(284,35,l),
(312,35,l),
(96,700,l),
(42,700,l),
(278,0,l)
);
}
);
userData = {
com.hugojourdan.ColorFlow = {
"0" = 0;
"1" = 0;
"10" = 0;
"11" = 0;
"2" = 0;
"3" = 0;
"4" = 0;
"5" = 0;
"6" = 0;
"7" = 0;
"8" = 0;
"9" = 0;
};
};
width = 595;
},
{
layerId = m005;
shapes = (
{
closed = 1;
nodes = (
(369,0,l),
(601,700,l),
(493,700,l),
(306,80,l),
(332,80,l),
(144,700,l),
(36,700,l),
(268,0,l)
);
}
);
userData = {
com.hugojourdan.ColorFlow = {
"0" = 0;
"1" = 0;
"10" = 0;
"11" = 0;
"2" = 0;
"3" = 0;
"4" = 0;
"5" = 0;
"6" = 0;
"7" = 0;
"8" = 0;
"9" = 0;
};
};
width = 637;
},
{
layerId = m006;
shapes = (
{
closed = 1;
nodes = (
(435,0,l),
(662,700,l),
(470,700,l),
(329,151,l),
(351,151,l),
(209,700,l),
(11,700,l),
(238,0,l)
);
}
);
userData = {
com.hugojourdan.ColorFlow = {
"0" = 0;
"1" = 0;
"10" = 0;
"11" = 0;
"2" = 0;
"3" = 0;
"4" = 0;
"5" = 0;
"6" = 0;
"7" = 0;
"8" = 0;
"9" = 0;
};
};
width = 673;
},
{
layerId = "4E5694F4-F64E-4331-B998-78BE273203C7";
shapes = (
{
closed = 1;
nodes = (
(272,0,l),
(630,700,l),
(574,700,l),
(244,35,l),
(273,35,l),
(171,700,l),
(119,700,l),
(233,0,l)
);
}
);
userData = {
com.hugojourdan.ColorFlow = {
"0" = 0;
"1" = 0;
"10" = 0;
"11" = 0;
"2" = 0;
"3" = 0;
"4" = 0;
"5" = 0;
"6" = 0;
"7" = 0;
"8" = 0;
"9" = 0;
};
};
width = 595;
},
{
layerId = "DF4E5521-40BA-460F-874A-364F4D14AAD8";
shapes = (
{
closed = 1;
nodes = (
(324,0,l),
(677,700,l),
(566,700,l),
(269,80,l),
(299,80,l),
(217,700,l),
(112,700,l),
(223,0,l)
);
}
);
userData = {
com.hugojourdan.ColorFlow = {
"0" = 0;
"1" = 0;
"10" = 0;
"11" = 0;
"2" = 0;
"3" = 0;
"4" = 0;
"5" = 0;
"6" = 0;
"7" = 0;
"8" = 0;
"9" = 0;
};
};
width = 637;
},
{
layerId = "C6DE9ED7-34B3-46A1-8A00-A72C4A5E93A3";
shapes = (
{
closed = 1;
nodes = (
(390,0,l),
(737,700,l),
(535,700,l),
(301,151,l),
(325,151,l),
(276,700,l),
(86,700,l),
(193,0,l)
);
}
);
userData = {
com.hugojourdan.ColorFlow = {
"0" = 0;
"1" = 0;
"10" = 0;
"11" = 0;
"2" = 0;
"3" = 0;
"4" = 0;
"5" = 0;
"6" = 0;
"7" = 0;
"8" = 0;
"9" = 0;
};
};
width = 673;
}
);
metricLeft = "=W*0.82";
metricRight = "=|";
note = V;
unicode = 86;
userData = {
KernOnName = V;
};
},
{
glyphname = W;
kernLeft = KO_W;
kernRight = KO_W;
layers = (
{
layerId = m01;
metricLeft = "=O*0.58";
shapes = (
{
closed = 1;
nodes = (
(668,0,l),
(851,700,l),
(813,700,l),
(646,51,l),
(653,52,l),
(456,700,l),
(407,700,l),
(623,0,l)
);
},
{
closed = 1;
nodes = (
(263,0,l),
(474,636,l),
(438,636,l),
(245,52,l),
(252,51,l),
(103,700,l),
(51,700,l),
(218,0,l)
);
}
);
userData = {
com.hugojourdan.ColorFlow = {
"0" = 0;
"1" = 0;
"10" = 0;
"11" = 0;
"2" = 0;
"3" = 0;
"4" = 0;
"5" = 0;
"6" = 0;
"7" = 0;
"8" = 0;
"9" = 0;
};
};
width = 902;
},
{
guides = (
{
angle = -75.4826;
pos = (479,351);
},
{
angle = -75.483;
pos = (646,423);
},
{
angle = 72.9283;
pos = (429,325);
},
{
angle = 72.928;
pos = (355,398);
}
);
layerId = "FF73925E-1E34-445B-881D-5A7CAAA8E8BE";
shapes = (
{
closed = 1;
nodes = (
(758,1,l),
(894,700,l),
(796,700,l),
(689,145,l),
(715,145,l),
(577,700,l),
(391,700,l),
(572,1,l)
);
},
{
closed = 1;
nodes = (
(329,1,l),
(530,655,l),
(432,655,l),
(275,144,l),
(291,144,l),
(200,700,l),
(14,700,l),
(143,1,l)
);
}
);
userData = {
com.hugojourdan.ColorFlow = {
"0" = 0;
"1" = 0;
"10" = 0;
"11" = 0;
"2" = 0;
"3" = 0;
"4" = 0;
"5" = 0;
"6" = 0;
"7" = 0;
"8" = 0;
"9" = 0;
};
};
width = 908;
},
{
layerId = "BF6BA5B2-0556-42F4-A103-614BEBF16A1A";
metricLeft = "=O*0.6";
shapes = (
{
closed = 1;
nodes = (
(724,0,l),
(872,700,l),
(811,700,l),
(681,85,l),
(698,86,l),
(504,700,l),
(402,700,l),
(625,0,l)
);
},
{
closed = 1;
nodes = (
(302,0,l),
(512,613,l),
(449,613,l),
(268,85,l),
(281,83,l),
(147,700,l),
(44,700,l),
(203,0,l)
);
}
);
userData = {
com.hugojourdan.ColorFlow = {
"0" = 0;
"1" = 0;
"10" = 0;
"11" = 0;
"2" = 0;
"3" = 0;
"4" = 0;
"5" = 0;
"6" = 0;
"7" = 0;
"8" = 0;
"9" = 0;
};
};
width = 916;
},
{
layerId = m004;
metricLeft = "=O*0.58";
shapes = (
{
closed = 1;
nodes = (
(735,0,l),
(919,700,l),
(867,700,l),
(700,51,l),
(725,52,l),
(510,700,l),
(461,700,l),
(694,0,l)
);
},
{
closed = 1;
nodes = (
(276,0,l),
(509,700,l),
(460,700,l),
(245,52,l),
(270,51,l),
(103,700,l),
(51,700,l),
(235,0,l)
);
}
);
userData = {
com.hugojourdan.ColorFlow = {
"0" = 0;
"1" = 0;
"10" = 0;
"11" = 0;
"2" = 0;
"3" = 0;
"4" = 0;
"5" = 0;
"6" = 0;
"7" = 0;
"8" = 0;
"9" = 0;
};
};
width = 970;
},
{
layerId = m005;
metricLeft = "=O*0.6";
shapes = (
{
closed = 1;
nodes = (
(759,0,l),
(950,700,l),
(845,700,l),
(699,111,l),
(723,112,l),
(547,700,l),
(456,700,l),
(662,0,l)
);
},
{
closed = 1;
nodes = (
(332,0,l),
(538,700,l),
(447,700,l),
(272,112,l),
(296,111,l),
(150,700,l),
(44,700,l),
(235,0,l)
);
}
);
userData = {
com.hugojourdan.ColorFlow = {
"0" = 0;
"1" = 0;
"10" = 0;
"11" = 0;
"2" = 0;
"3" = 0;
"4" = 0;
"5" = 0;
"6" = 0;
"7" = 0;
"8" = 0;
"9" = 0;
};
};
width = 994;
},
{
guides = (
{
angle = 76.4269;
pos = (482,350);
},
{
angle = 76.427;
pos = (355,443);
}
);
layerId = m006;
shapes = (
{
closed = 1;
nodes = (
(792,0,l),
(970,700,l),
(786,700,l),
(672,176,l),
(710,176,l),
(595,700,l),
(433,700,l),
(590,0,l)
);
},
{
closed = 1;
nodes = (
(394,0,l),
(551,700,l),
(391,700,l),
(276,176,l),
(314,176,l),
(200,700,l),
(14,700,l),
(192,0,l)
);
}
);
userData = {
com.hugojourdan.ColorFlow = {
"0" = 0;
"1" = 0;
"10" = 0;
"11" = 0;
"2" = 0;
"3" = 0;
"4" = 0;
"5" = 0;
"6" = 0;
"7" = 0;
"8" = 0;
"9" = 0;
};
};
width = 984;
},
{
associatedMasterId = "FF73925E-1E34-445B-881D-5A7CAAA8E8BE";
guides = (
{
angle = -75.4826;
pos = (484,351);
},
{
angle = -75.483;
pos = (651,423);
},
{
angle = 72.9283;
pos = (434,325);
},
{
angle = 72.928;
pos = (360,398);
}
);
layerId = "0D3E5DCB-CBFC-488A-BF71-9738605AEC1C";
name = "19 Jun 23 4.03 PM";
shapes = (
{
closed = 1;
nodes = (
(792,0,l),
(975,700,l),
(875,700,l),
(718,69,l),
(743,69,l),
(579,700,l),
(423,700,l),
(606,0,l)
);
},
{
closed = 1;
nodes = (
(388,0,l),
(559,656,l),
(467,656,l),
(314,69,l),
(339,69,l),
(175,700,l),
(19,700,l),
(202,0,l)
);
}
);
userData = {
com.hugojourdan.ColorFlow = {
"0" = 0;
"1" = 0;
"10" = 0;
"11" = 0;
"2" = 0;
"3" = 0;
"4" = 0;
"5" = 0;
"6" = 0;
"7" = 0;
"8" = 0;
"9" = 0;
};
};
width = 994;
},
{
layerId = "4E5694F4-F64E-4331-B998-78BE273203C7";
metricLeft = "=O*0.58";
shapes = (
{
closed = 1;
nodes = (
(691,0,l),
(998,700,l),
(944,700,l),
(666,55,l),
(691,55,l),
(588,700,l),
(539,700,l),
(651,0,l)
);
},
{
closed = 1;
nodes = (
(232,0,l),
(588,700,l),
(537,700,l),
(209,55,l),
(234,55,l),
(178,700,l),
(128,700,l),
(190,0,l)
);
}
);
userData = {
com.hugojourdan.ColorFlow = {
"0" = 0;
"1" = 0;
"10" = 0;
"11" = 0;
"2" = 0;
"3" = 0;
"4" = 0;
"5" = 0;
"6" = 0;
"7" = 0;
"8" = 0;
"9" = 0;
};
};
width = 972;
},
{
layerId = "DF4E5521-40BA-460F-874A-364F4D14AAD8";
metricLeft = "=O*0.6";
shapes = (
{
closed = 1;
nodes = (
(717,0,l),
(1028,700,l),
(920,700,l),
(675,111,l),
(696,111,l),
(620,700,l),
(527,700,l),
(619,0,l)
);
},
{
closed = 1;
nodes = (
(289,0,l),
(617,700,l),
(520,700,l),
(244,111,l),
(273,111,l),
(223,700,l),
(120,700,l),
(193,0,l)
);
}
);
userData = {
com.hugojourdan.ColorFlow = {
"0" = 0;
"1" = 0;
"10" = 0;
"11" = 0;
"2" = 0;
"3" = 0;
"4" = 0;
"5" = 0;
"6" = 0;
"7" = 0;
"8" = 0;
"9" = 0;
};
};
width = 996;
},
{
layerId = "C6DE9ED7-34B3-46A1-8A00-A72C4A5E93A3";
shapes = (
{
closed = 1;
nodes = (
(745,0,l),
(1045,700,l),
(859,700,l),
(656,176,l),
(687,176,l),
(661,700,l),
(500,700,l),
(540,0,l)
);
},
{
closed = 1;
nodes = (
(342,0,l),
(621,700,l),
(460,700,l),
(255,176,l),
(301,176,l),
(275,700,l),
(89,700,l),
(148,0,l)
);
}
);
userData = {
com.hugojourdan.ColorFlow = {
"0" = 0;
"1" = 0;
"10" = 0;
"11" = 0;
"2" = 0;
"3" = 0;
"4" = 0;
"5" = 0;
"6" = 0;
"7" = 0;
"8" = 0;
"9" = 0;
};
};
width = 984;
}
);
metricRight = "=|";
note = W;
unicode = 87;
},
{
glyphname = X;
kernLeft = KO_X;
kernRight = KO_X;
layers = (
{
layerId = m01;
shapes = (
{
closed = 1;
nodes = (
(566,0,l),
(344,351,l),
(557,700,l),
(516,700,l),
(298,341,l),
(510,0,l)
);
},
{
closed = 1;
nodes = (
(99,0,l),
(335,361,l),
(123,700,l),
(67,700,l),
(288,351,l),
(58,0,l)
);
}
);
userData = {
com.hugojourdan.ColorFlow = {
"0" = 0;
"1" = 0;
"10" = 0;
"11" = 0;
"2" = 0;
"3" = 0;
"4" = 0;
"5" = 0;
"6" = 0;
"7" = 0;
"8" = 0;
"9" = 0;
};
};
width = 624;
},
{
layerId = "FF73925E-1E34-445B-881D-5A7CAAA8E8BE";
shapes = (
{
closed = 1;
nodes = (
(591,0,l),
(394,381,l),
(596,700,l),
(489,700,l),
(245,314,l),
(391,0,l)
);
},
{
closed = 1;
nodes = (
(123,0,l),
(368,388,l),
(221,700,l),
(21,700,l),
(219,321,l),
(16,0,l)
);
}
);
userData = {
com.hugojourdan.ColorFlow = {
"0" = 0;
"1" = 0;
"10" = 0;
"11" = 0;
"2" = 0;
"3" = 0;
"4" = 0;
"5" = 0;
"6" = 0;
"7" = 0;
"8" = 0;
"9" = 0;
};
};
width = 612;
},
{
layerId = "BF6BA5B2-0556-42F4-A103-614BEBF16A1A";
shapes = (
{
closed = 1;
nodes = (
(571,0,l),
(365,364,l),
(579,700,l),
(512,700,l),
(277,332,l),
(460,0,l)
);
},
{
closed = 1;
nodes = (
(117,0,l),
(352,368,l),
(169,700,l),
(58,700,l),
(264,336,l),
(50,0,l)
);
}
);
userData = {
com.hugojourdan.ColorFlow = {
"0" = 0;
"1" = 0;
"10" = 0;
"11" = 0;
"2" = 0;
"3" = 0;
"4" = 0;
"5" = 0;
"6" = 0;
"7" = 0;
"8" = 0;
"9" = 0;
};
};
width = 629;
},
{
layerId = m004;
shapes = (
{
closed = 1;
nodes = (
(566,0,l),
(346,351,l),
(557,700,l),
(499,700,l),
(291,352,l),
(510,0,l)
);
},
{
closed = 1;
nodes = (
(116,0,l),
(333,347,l),
(123,700,l),
(67,700,l),
(278,351,l),
(58,0,l)
);
}
);
userData = {
com.hugojourdan.ColorFlow = {
"0" = 0;
"1" = 0;
"10" = 0;
"11" = 0;
"2" = 0;
"3" = 0;
"4" = 0;
"5" = 0;
"6" = 0;
"7" = 0;
"8" = 0;
"9" = 0;
};
};
width = 624;
},
{
layerId = m005;
shapes = (
{
closed = 1;
nodes = (
(632,0,l),
(405,357,l),
(617,700,l),
(502,700,l),
(299,357,l),
(519,0,l)
);
},
{
closed = 1;
nodes = (
(166,0,l),
(382,357,l),
(178,700,l),
(65,700,l),
(276,357,l),
(50,0,l)
);
}
);
userData = {
com.hugojourdan.ColorFlow = {
"0" = 0;
"1" = 0;
"10" = 0;
"11" = 0;
"2" = 0;
"3" = 0;
"4" = 0;
"5" = 0;
"6" = 0;
"7" = 0;
"8" = 0;
"9" = 0;
};
};
width = 682;
},
{
guides = (
{
pos = (329,358);
}
);
layerId = m006;
shapes = (
{
closed = 1;
nodes = (
(662,0,l),
(446,358,l),
(650,700,l),
(455,700,l),
(253,354,l),
(454,0,l)
);
},
{
closed = 1;
nodes = (
(211,0,l),
(421,362,l),
(235,700,l),
(28,700,l),
(230,358,l),
(16,0,l)
);
}
);
userData = {
com.hugojourdan.ColorFlow = {
"0" = 0;
"1" = 0;
"10" = 0;
"11" = 0;
"2" = 0;
"3" = 0;
"4" = 0;
"5" = 0;
"6" = 0;
"7" = 0;
"8" = 0;
"9" = 0;
};
};
width = 678;
},
{
layerId = "4E5694F4-F64E-4331-B998-78BE273203C7";
shapes = (
{
closed = 1;
nodes = (
(509,0,l),
(368,348,l),
(641,700,l),
(581,700,l),
(313,354,l),
(456,0,l)
);
},
{
closed = 1;
nodes = (
(79,0,l),
(355,345,l),
(222,700,l),
(169,700,l),
(300,354,l),
(18,0,l)
);
}
);
userData = {
com.hugojourdan.ColorFlow = {
"0" = 0;
"1" = 0;
"10" = 0;
"11" = 0;
"2" = 0;
"3" = 0;
"4" = 0;
"5" = 0;
"6" = 0;
"7" = 0;
"8" = 0;
"9" = 0;
};
};
width = 622;
},
{
layerId = "DF4E5521-40BA-460F-874A-364F4D14AAD8";
shapes = (
{
closed = 1;
nodes = (
(577,0,l),
(430,352,l),
(708,700,l),
(585,700,l),
(326,360,l),
(471,0,l)
);
},
{
closed = 1;
nodes = (
(132,0,l),
(407,354,l),
(275,700,l),
(170,700,l),
(303,362,l),
(9,0,l)
);
}
);
userData = {
com.hugojourdan.ColorFlow = {
"0" = 0;
"1" = 0;
"10" = 0;
"11" = 0;
"2" = 0;
"3" = 0;
"4" = 0;
"5" = 0;
"6" = 0;
"7" = 0;
"8" = 0;
"9" = 0;
};
};
width = 682;
},
{
guides = (
{
pos = (312,358);
}
);
layerId = "C6DE9ED7-34B3-46A1-8A00-A72C4A5E93A3";
shapes = (
{
closed = 1;
nodes = (
(600,0,l),
(471,349,l),
(737,700,l),
(530,700,l),
(280,361,l),
(402,0,l)
);
},
{
closed = 1;
nodes = (
(181,0,l),
(445,355,l),
(332,700,l),
(133,700,l),
(255,367,l),
(-26,0,l)
);
}
);
userData = {
com.hugojourdan.ColorFlow = {
"0" = 0;
"1" = 0;
"10" = 0;
"11" = 0;
"2" = 0;
"3" = 0;
"4" = 0;
"5" = 0;
"6" = 0;
"7" = 0;
"8" = 0;
"9" = 0;
};
};
width = 678;
}
);
metricLeft = "=W*1.14";
metricRight = "=|";
note = X;
unicode = 88;
},
{
glyphname = Y;
kernLeft = KO_Y;
kernRight = KO_Y;
layers = (
{
anchors = (
{
name = top;
pos = (308,700);
}
);
layerId = m01;
shapes = (
{
closed = 1;
nodes = (
(318,0,l),
(318,294,l),
(543,701,l),
(504,701,l),
(279,296,l),
(322,295,l),
(112,701,l),
(57,701,l),
(270,295,l),
(270,0,l)
);
}
);
userData = {
com.hugojourdan.ColorFlow = {
"0" = 0;
"1" = 0;
"10" = 0;
"11" = 0;
"2" = 0;
"3" = 0;
"4" = 0;
"5" = 0;
"6" = 0;
"7" = 0;
"8" = 0;
"9" = 0;
};
};
width = 600;
},
{
anchors = (
{
name = top;
pos = (344,700);
}
);
layerId = "FF73925E-1E34-445B-881D-5A7CAAA8E8BE";
shapes = (
{
closed = 1;
nodes = (
(380,0,l),
(380,268,l),
(582,700,l),
(475,700,l),
(323,347,l),
(349,346,l),
(212,700,l),
(12,700,l),
(202,269,l),
(202,0,l)
);
}
);
userData = {
com.hugojourdan.ColorFlow = {
"0" = 0;
"1" = 0;
"10" = 0;
"11" = 0;
"2" = 0;
"3" = 0;
"4" = 0;
"5" = 0;
"6" = 0;
"7" = 0;
"8" = 0;
"9" = 0;
};
};
width = 594;
},
{
anchors = (
{
name = top;
pos = (319,700);
}
);
layerId = "BF6BA5B2-0556-42F4-A103-614BEBF16A1A";
shapes = (
{
closed = 1;
nodes = (
(341,0,l),
(341,285,l),
(557,701,l),
(489,701,l),
(292,312,l),
(331,311,l),
(149,701,l),
(39,701,l),
(243,285,l),
(243,0,l)
);
}
);
userData = {
com.hugojourdan.ColorFlow = {
"0" = 0;
"1" = 0;
"10" = 0;
"11" = 0;
"2" = 0;
"3" = 0;
"4" = 0;
"5" = 0;
"6" = 0;
"7" = 0;
"8" = 0;
"9" = 0;
};
};
width = 596;
},
{
anchors = (
{
name = top;
pos = (282,700);
}
);
guides = (
{
angle = 90;
pos = (282,295);
}
);
layerId = m004;
shapes = (
{
closed = 1;
nodes = (
(306,0,l),
(306,295,l),
(519,700,l),
(471,700,l),
(268,310,l),
(296,310,l),
(96,700,l),
(45,700,l),
(258,295,l),
(258,0,l)
);
}
);
userData = {
com.hugojourdan.ColorFlow = {
"0" = 0;
"1" = 0;
"10" = 0;
"11" = 0;
"2" = 0;
"3" = 0;
"4" = 0;
"5" = 0;
"6" = 0;
"7" = 0;
"8" = 0;
"9" = 0;
};
};
width = 564;
},
{
anchors = (
{
name = top;
pos = (300,700);
}
);
guides = (
{
angle = 90;
pos = (300,273);
}
);
layerId = m005;
shapes = (
{
closed = 1;
nodes = (
(349,0,l),
(349,273,l),
(561,700,l),
(456,700,l),
(288,328,l),
(312,328,l),
(150,700,l),
(39,700,l),
(251,273,l),
(251,0,l)
);
}
);
userData = {
com.hugojourdan.ColorFlow = {
"0" = 0;
"1" = 0;
"10" = 0;
"11" = 0;
"2" = 0;
"3" = 0;
"4" = 0;
"5" = 0;
"6" = 0;
"7" = 0;
"8" = 0;
"9" = 0;
};
};
width = 600;
},
{
anchors = (
{
name = top;
pos = (312,700);
}
);
guides = (
{
angle = 90;
pos = (311,239);
}
);
layerId = m006;
shapes = (
{
closed = 1;
nodes = (
(400,0,l),
(400,239,l),
(610,700,l),
(416,700,l),
(300,395,l),
(322,395,l),
(212,700,l),
(12,700,l),
(222,239,l),
(222,0,l)
);
}
);
userData = {
com.hugojourdan.ColorFlow = {
"0" = 0;
"1" = 0;
"10" = 0;
"11" = 0;
"2" = 0;
"3" = 0;
"4" = 0;
"5" = 0;
"6" = 0;
"7" = 0;
"8" = 0;
"9" = 0;
};
};
width = 622;
},
{
anchors = (
{
name = top;
pos = (358,700);
}
);
layerId = "4E5694F4-F64E-4331-B998-78BE273203C7";
shapes = (
{
closed = 1;
nodes = (
(266,0,l),
(315,295,l),
(596,700,l),
(544,700,l),
(276,310,l),
(304,310,l),
(169,700,l),
(122,700,l),
(267,295,l),
(218,0,l)
);
}
);
userData = {
com.hugojourdan.ColorFlow = {
"0" = 0;
"1" = 0;
"10" = 0;
"11" = 0;
"2" = 0;
"3" = 0;
"4" = 0;
"5" = 0;
"6" = 0;
"7" = 0;
"8" = 0;
"9" = 0;
};
};
width = 564;
},
{
anchors = (
{
name = top;
pos = (374,700);
}
);
layerId = "DF4E5521-40BA-460F-874A-364F4D14AAD8";
shapes = (
{
closed = 1;
nodes = (
(308,0,l),
(354,273,l),
(637,700,l),
(525,700,l),
(295,328,l),
(319,328,l),
(219,700,l),
(115,700,l),
(256,273,l),
(210,0,l)
);
}
);
userData = {
com.hugojourdan.ColorFlow = {
"0" = 0;
"1" = 0;
"10" = 0;
"11" = 0;
"2" = 0;
"3" = 0;
"4" = 0;
"5" = 0;
"6" = 0;
"7" = 0;
"8" = 0;
"9" = 0;
};
};
width = 600;
},
{
anchors = (
{
name = top;
pos = (383,700);
}
);
layerId = "C6DE9ED7-34B3-46A1-8A00-A72C4A5E93A3";
shapes = (
{
closed = 1;
nodes = (
(358,0,l),
(398,239,l),
(685,700,l),
(483,700,l),
(316,395,l),
(338,395,l),
(279,700,l),
(87,700,l),
(220,239,l),
(180,0,l)
);
}
);
userData = {
com.hugojourdan.ColorFlow = {
"0" = 0;
"1" = 0;
"10" = 0;
"11" = 0;
"2" = 0;
"3" = 0;
"4" = 0;
"5" = 0;
"6" = 0;
"7" = 0;
"8" = 0;
"9" = 0;
};
};
width = 622;
}
);
metricLeft = "=V*1.08";
metricRight = "=|";
note = Y;
unicode = 89;
},
{
glyphname = Z;
kernLeft = KO_Z;
kernRight = KO_Z;
layers = (
{
anchors = (
{
name = top;
pos = (281,700);
}
);
layerId = m01;
shapes = (
{
closed = 1;
nodes = (
(489,0,l),
(489,32,l),
(108,32,l),
(108,24,l),
(486,673,l),
(486,700,l),
(75,700,l),
(75,668,l),
(431,668,l),
(431,676,l),
(52,25,l),
(52,0,l)
);
}
);
userData = {
com.hugojourdan.ColorFlow = {
"0" = 0;
"1" = 0;
"10" = 0;
"11" = 0;
"2" = 0;
"3" = 0;
"4" = 0;
"5" = 0;
"6" = 0;
"7" = 0;
"8" = 0;
"9" = 0;
};
};
width = 544;
},
{
anchors = (
{
name = top;
pos = (293,700);
}
);
layerId = "FF73925E-1E34-445B-881D-5A7CAAA8E8BE";
shapes = (
{
closed = 1;
nodes = (
(527,0,l),
(527,88,l),
(194,88,l),
(218,44,l),
(529,627,l),
(529,700,l),
(56,700,l),
(56,612,l),
(370,612,l),
(346,656,l),
(30,70,l),
(30,0,l)
);
}
);
userData = {
com.hugojourdan.ColorFlow = {
"0" = 0;
"1" = 0;
"10" = 0;
"11" = 0;
"2" = 0;
"3" = 0;
"4" = 0;
"5" = 0;
"6" = 0;
"7" = 0;
"8" = 0;
"9" = 0;
};
};
width = 563;
},
{
anchors = (
{
name = top;
pos = (283,700);
}
);
layerId = "BF6BA5B2-0556-42F4-A103-614BEBF16A1A";
shapes = (
{
closed = 1;
nodes = (
(503,0,l),
(503,52,l),
(116,52,l),
(139,13,l),
(502,655,l),
(498,700,l),
(68,700,l),
(68,648,l),
(432,648,l),
(409,687,l),
(44,42,l),
(48,0,l)
);
}
);
userData = {
com.hugojourdan.ColorFlow = {
"0" = 0;
"1" = 0;
"10" = 0;
"11" = 0;
"2" = 0;
"3" = 0;
"4" = 0;
"5" = 0;
"6" = 0;
"7" = 0;
"8" = 0;
"9" = 0;
};
};
width = 551;
},
{
anchors = (
{
name = top;
pos = (271,700);
}
);
layerId = m004;
shapes = (
{
closed = 1;
nodes = (
(489,0,l),
(489,42,l),
(101,42,l),
(101,24,l),
(486,675,l),
(486,700,l),
(62,700,l),
(62,658,l),
(438,658,l),
(438,678,l),
(52,25,l),
(52,0,l)
);
}
);
userData = {
com.hugojourdan.ColorFlow = {
"0" = 0;
"1" = 0;
"10" = 0;
"11" = 0;
"2" = 0;
"3" = 0;
"4" = 0;
"5" = 0;
"6" = 0;
"7" = 0;
"8" = 0;
"9" = 0;
};
};
width = 544;
},
{
anchors = (
{
name = top;
pos = (275,700);
}
);
layerId = m005;
shapes = (
{
closed = 1;
nodes = (
(504,0,l),
(504,78,l),
(115,78,l),
(151,32,l),
(503,658,l),
(503,700,l),
(53,700,l),
(53,622,l),
(444,622,l),
(398,668,l),
(43,42,l),
(43,0,l)
);
}
);
userData = {
com.hugojourdan.ColorFlow = {
"0" = 0;
"1" = 0;
"10" = 0;
"11" = 0;
"2" = 0;
"3" = 0;
"4" = 0;
"5" = 0;
"6" = 0;
"7" = 0;
"8" = 0;
"9" = 0;
};
};
width = 551;
},
{
anchors = (
{
name = top;
pos = (282,700);
}
);
layerId = m006;
shapes = (
{
closed = 1;
nodes = (
(527,0,l),
(527,140,l),
(190,140,l),
(214,44,l),
(529,630,l),
(529,700,l),
(42,700,l),
(42,560,l),
(369,560,l),
(345,656,l),
(30,70,l),
(30,0,l)
);
}
);
userData = {
com.hugojourdan.ColorFlow = {
"0" = 0;
"1" = 0;
"10" = 0;
"11" = 0;
"2" = 0;
"3" = 0;
"4" = 0;
"5" = 0;
"6" = 0;
"7" = 0;
"8" = 0;
"9" = 0;
};
};
width = 563;
},
{
anchors = (
{
name = top;
pos = (349,700);
}
);
guides = (
{
pos = (52,25);
}
);
layerId = "4E5694F4-F64E-4331-B998-78BE273203C7";
shapes = (
{
closed = 1;
nodes = (
(449,0,l),
(456,42,l),
(66,42,l),
(69,22,l),
(559,675,l),
(564,700,l),
(139,700,l),
(132,658,l),
(512,658,l),
(509,679,l),
(18,25,l),
(14,0,l)
);
}
);
userData = {
com.hugojourdan.ColorFlow = {
"0" = 0;
"1" = 0;
"10" = 0;
"11" = 0;
"2" = 0;
"3" = 0;
"4" = 0;
"5" = 0;
"6" = 0;
"7" = 0;
"8" = 0;
"9" = 0;
};
};
width = 544;
},
{
anchors = (
{
name = top;
pos = (350,700);
}
);
layerId = "DF4E5521-40BA-460F-874A-364F4D14AAD8";
shapes = (
{
closed = 1;
nodes = (
(463,0,l),
(476,78,l),
(114,78,l),
(117,26,l),
(571,658,l),
(577,700,l),
(128,700,l),
(115,622,l),
(466,622,l),
(465,677,l),
(9,42,l),
(3,0,l)
);
}
);
userData = {
com.hugojourdan.ColorFlow = {
"0" = 0;
"1" = 0;
"10" = 0;
"11" = 0;
"2" = 0;
"3" = 0;
"4" = 0;
"5" = 0;
"6" = 0;
"7" = 0;
"8" = 0;
"9" = 0;
};
};
width = 551;
},
{
anchors = (
{
name = top;
pos = (355,700);
}
);
guides = (
{
pos = (30,70);
},
{
angle = 180;
pos = (359,630);
}
);
layerId = "C6DE9ED7-34B3-46A1-8A00-A72C4A5E93A3";
shapes = (
{
closed = 1;
nodes = (
(604,700,l),
(114,700,l),
(91,560,l),
(419,560,l),
(411,668,l),
(-1,71,l),
(-14,0,l),
(485,0,l),
(510,140,l),
(171,140,l),
(179,32,l),
(592,630,l)
);
}
);
userData = {
com.hugojourdan.ColorFlow = {
"0" = 0;
"1" = 0;
"10" = 0;
"11" = 0;
"2" = 0;
"3" = 0;
"4" = 0;
"5" = 0;
"6" = 0;
"7" = 0;
"8" = 0;
"9" = 0;
};
};
width = 563;
}
);
note = Z;
unicode = 90;
},
{
glyphname = a;
kernLeft = KO_a;
kernRight = KO_n;
layers = (
{
anchors = (
{
name = top;
pos = (244,478);
}
);
background = {
shapes = (
{
pos = (-26,0);
ref = n;
}
);
};
layerId = m01;
shapes = (
{
closed = 1;
nodes = (
(288,-10,o),
(349,36,o),
(373,119,c),
(360,120,l),
(360,51,o),
(361,35,o),
(370,0,c),
(408,0,l),
(399,35,o),
(398,51,o),
(398,120,cs),
(398,316,ls),
(398,432,o),
(348,488,o),
(244,488,cs),
(178,488,o),
(124,463,o),
(80,412,c),
(119,375,l),
(146,431,o),
(187,460,o),
(243,460,cs),
(312,460,o),
(353,409,o),
(353,322,cs),
(353,147,ls),
(353,81,o),
(287,18,o),
(213,18,cs),
(153,18,o),
(112,59,o),
(112,125,cs),
(112,197,o),
(162,230,o),
(366,260,c),
(366,287,l),
(151,270,o),
(66,222,o),
(66,118,cs),
(66,37,o),
(117,-10,o),
(203,-10,cs)
);
}
);
userData = {
com.hugojourdan.ColorFlow = {
"0" = 0;
"1" = 0;
"10" = 0;
"11" = 0;
"2" = 0;
"3" = 0;
"4" = 0;
"5" = 0;
"6" = 0;
"7" = 0;
"8" = 0;
"9" = 0;
};
};
width = 479;
},
{
anchors = (
{
name = top;
pos = (265,502);
}
);
background = {
shapes = (
{
pos = (-22,0);
ref = n;
}
);
};
layerId = "FF73925E-1E34-445B-881D-5A7CAAA8E8BE";
shapes = (
{
closed = 1;
nodes = (
(274,-10,o),
(330,30,o),
(358,112,c),
(335,112,l),
(335,57,o),
(338,23,o),
(345,0,c),
(494,0,l),
(487,23,o),
(484,57,o),
(484,112,cs),
(484,288,ls),
(484,440,o),
(418,512,o),
(275,512,cs),
(177,512,o),
(108,483,o),
(49,420,c),
(122,351,l),
(149,407,o),
(193,438,o),
(246,438,cs),
(288,438,o),
(315,407,o),
(315,359,cs),
(315,155,ls),
(315,103,o),
(293,75,o),
(252,75,cs),
(216,75,o),
(193,97,o),
(193,136,cs),
(193,181,o),
(225,207,o),
(329,247,c),
(329,301,l),
(125,274,o),
(36,220,o),
(36,122,cs),
(36,41,o),
(96,-10,o),
(190,-10,cs)
);
}
);
userData = {
com.hugojourdan.ColorFlow = {
"0" = 0;
"1" = 0;
"10" = 0;
"11" = 0;
"2" = 0;
"3" = 0;
"4" = 0;
"5" = 0;
"6" = 0;
"7" = 0;
"8" = 0;
"9" = 0;
};
};
width = 527;
},
{
anchors = (
{
name = top;
pos = (247,490);
}
);
background = {
shapes = (
{
pos = (-35,0);
ref = n;
}
);
};
layerId = "BF6BA5B2-0556-42F4-A103-614BEBF16A1A";
shapes = (
{
closed = 1;
nodes = (
(277,-10,o),
(350,44,o),
(363,123,c),
(355,123,l),
(355,52,o),
(357,27,o),
(365,0,c),
(443,0,l),
(435,29,o),
(433,57,o),
(433,127,cs),
(433,301,ls),
(433,434,o),
(375,500,o),
(259,500,cs),
(176,500,o),
(117,472,o),
(67,410,c),
(124,360,l),
(143,422,o),
(185,456,o),
(242,456,cs),
(302,456,o),
(340,408,o),
(340,331,cs),
(340,169,ls),
(340,102,o),
(277,35,o),
(214,35,cs),
(171,35,o),
(146,66,o),
(146,117,cs),
(146,189,o),
(193,221,o),
(356,259,c),
(356,296,l),
(142,265,o),
(55,210,o),
(55,106,cs),
(55,41,o),
(112,-10,o),
(184,-10,cs)
);
}
);
userData = {
com.hugojourdan.ColorFlow = {
"0" = 0;
"1" = 0;
"10" = 0;
"11" = 0;
"2" = 0;
"3" = 0;
"4" = 0;
"5" = 0;
"6" = 0;
"7" = 0;
"8" = 0;
"9" = 0;
};
};
width = 504;
},
{
anchors = (
{
name = top;
pos = (244,478);
}
);
layerId = m004;
metricRight = "=n";
shapes = (
{
closed = 1;
nodes = (
(286,-10,o),
(351,41,o),
(373,119,c),
(357,120,l),
(357,78,o),
(357,42,o),
(357,0,c),
(398,0,l),
(398,42,o),
(398,78,o),
(398,120,cs),
(398,316,ls),
(398,427,o),
(343,488,o),
(243,488,cs),
(177,488,o),
(120,462,o),
(75,412,c),
(108,379,l),
(147,424,o),
(192,446,o),
(242,446,cs),
(312,446,o),
(353,401,o),
(353,322,cs),
(353,187,ls),
(353,96,o),
(293,32,o),
(215,32,cs),
(155,32,o),
(114,69,o),
(114,125,cs),
(114,197,o),
(183,244,o),
(367,262,c),
(365,303,l),
(155,278,o),
(66,225,o),
(66,124,cs),
(66,43,o),
(124,-10,o),
(206,-10,cs)
);
}
);
userData = {
com.hugojourdan.ColorFlow = {
"0" = 0;
"1" = 0;
"10" = 0;
"11" = 0;
"2" = 0;
"3" = 0;
"4" = 0;
"5" = 0;
"6" = 0;
"7" = 0;
"8" = 0;
"9" = 0;
};
};
width = 479;
},
{
anchors = (
{
name = top;
pos = (253,488);
}
);
layerId = m005;
metricRight = "=n";
shapes = (
{
closed = 1;
nodes = (
(281,-10,o),
(344,37,o),
(368,116,c),
(352,125,l),
(352,77,o),
(352,48,o),
(352,0,c),
(433,0,l),
(433,48,o),
(433,77,o),
(433,125,cs),
(433,305,ls),
(433,436,o),
(375,500,o),
(255,500,cs),
(178,500,o),
(124,478,o),
(69,424,c),
(120,364,l),
(164,407,o),
(198,423,o),
(243,423,cs),
(303,423,o),
(340,385,o),
(340,324,cs),
(340,190,ls),
(340,114,o),
(292,59,o),
(225,59,cs),
(180,59,o),
(148,88,o),
(148,131,cs),
(148,210,o),
(212,226,o),
(366,249,c),
(366,310,l),
(146,283,o),
(55,229,o),
(55,124,cs),
(55,43,o),
(112,-10,o),
(199,-10,cs)
);
}
);
userData = {
com.hugojourdan.ColorFlow = {
"0" = 0;
"1" = 0;
"10" = 0;
"11" = 0;
"2" = 0;
"3" = 0;
"4" = 0;
"5" = 0;
"6" = 0;
"7" = 0;
"8" = 0;
"9" = 0;
};
};
width = 504;
},
{
anchors = (
{
name = top;
pos = (265,502);
}
);
layerId = m006;
metricRight = "=n";
shapes = (
{
closed = 1;
nodes = (
(274,-10,o),
(330,30,o),
(358,112,c),
(335,112,l),
(335,75,o),
(335,37,o),
(335,0,c),
(484,0,l),
(484,37,o),
(484,75,o),
(484,112,cs),
(484,288,ls),
(484,436,o),
(410,512,o),
(264,512,cs),
(171,512,o),
(99,481,o),
(42,417,c),
(139,326,l),
(174,366,o),
(209,385,o),
(244,385,cs),
(287,385,o),
(315,356,o),
(315,310,cs),
(315,195,ls),
(315,144,o),
(287,109,o),
(245,109,cs),
(218,109,o),
(202,125,o),
(202,153,cs),
(202,195,o),
(233,214,o),
(329,230,c),
(329,320,l),
(126,292,o),
(36,234,o),
(36,129,cs),
(36,44,o),
(96,-10,o),
(190,-10,cs)
);
}
);
userData = {
com.hugojourdan.ColorFlow = {
"0" = 0;
"1" = 0;
"10" = 0;
"11" = 0;
"2" = 0;
"3" = 0;
"4" = 0;
"5" = 0;
"6" = 0;
"7" = 0;
"8" = 0;
"9" = 0;
};
};
width = 527;
},
{
anchors = (
{
name = top;
pos = (265,478);
}
);
guides = (
{
angle = 80.5;
pos = (66,239);
},
{
angle = 80.5;
pos = (398,239);
},
{
angle = 80.5;
pos = (353,239);
},
{
angle = 80.5;
pos = (114,239);
}
);
layerId = "4E5694F4-F64E-4331-B998-78BE273203C7";
metricRight = "=n";
shapes = (
{
closed = 1;
nodes = (
(254,-10,o),
(318,35,o),
(351,108,c),
(340,120,l),
(333,78,o),
(327,42,o),
(320,0,c),
(358,0,l),
(365,42,o),
(371,80,o),
(378,120,cs),
(408,299,ls),
(427,414,o),
(371,488,o),
(265,488,cs),
(207,488,o),
(155,467,o),
(104,425,c),
(131,389,l),
(175,428,o),
(216,446,o),
(263,446,cs),
(340,446,o),
(379,395,o),
(365,311,cs),
(342,173,ls),
(328,91,o),
(265,32,o),
(193,32,cs),
(132,32,o),
(96,66,o),
(96,123,cs),
(96,201,o),
(184,245,o),
(369,252,c),
(373,292,l),
(153,285,o),
(47,226,o),
(47,110,cs),
(47,38,o),
(101,-10,o),
(182,-10,cs)
);
}
);
userData = {
com.hugojourdan.ColorFlow = {
"0" = 0;
"1" = 0;
"10" = 0;
"11" = 0;
"2" = 0;
"3" = 0;
"4" = 0;
"5" = 0;
"6" = 0;
"7" = 0;
"8" = 0;
"9" = 0;
};
};
width = 479;
},
{
anchors = (
{
name = top;
pos = (260,488);
}
);
guides = (
{
angle = 80.5;
pos = (55,245);
},
{
angle = 80.5;
pos = (433,245);
},
{
angle = 80.5;
pos = (340,245);
},
{
angle = 80.5;
pos = (148,245);
},
{
angle = 80.5;
pos = (68,245);
},
{
angle = 80.5;
pos = (366,245);
}
);
layerId = "DF4E5521-40BA-460F-874A-364F4D14AAD8";
metricRight = "=n";
shapes = (
{
closed = 1;
nodes = (
(248,-10,o),
(311,32,o),
(347,105,c),
(332,125,l),
(324,77,o),
(319,48,o),
(311,0,c),
(392,0,l),
(400,48,o),
(405,77,o),
(413,125,cs),
(440,287,ls),
(458,392,o),
(426,500,o),
(268,500,cs),
(203,500,o),
(155,482,o),
(100,437,c),
(139,375,l),
(185,408,o),
(219,423,o),
(262,423,cs),
(324,423,o),
(365,393,o),
(352,317,cs),
(330,185,ls),
(317,109,o),
(266,59,o),
(204,59,cs),
(160,59,o),
(130,85,o),
(130,132,cs),
(130,209,o),
(209,230,o),
(365,240,c),
(375,300,l),
(223,290,o),
(36,270,o),
(36,118,cs),
(36,38,o),
(89,-10,o),
(170,-10,cs)
);
}
);
userData = {
com.hugojourdan.ColorFlow = {
"0" = 0;
"1" = 0;
"10" = 0;
"11" = 0;
"2" = 0;
"3" = 0;
"4" = 0;
"5" = 0;
"6" = 0;
"7" = 0;
"8" = 0;
"9" = 0;
};
};
width = 504;
},
{
anchors = (
{
name = top;
pos = (307,502);
}
);
guides = (
{
angle = 80.5;
pos = (36,251);
},
{
angle = 80.5;
pos = (484,251);
},
{
angle = 80.5;
pos = (315,251);
},
{
angle = 80.5;
pos = (201,251);
},
{
angle = 80.5;
pos = (42,251);
}
);
layerId = "C6DE9ED7-34B3-46A1-8A00-A72C4A5E93A3";
metricRight = "=n";
shapes = (
{
closed = 1;
nodes = (
(248,-10,o),
(308,31,o),
(333,104,c),
(311,114,l),
(305,78,o),
(298,36,o),
(292,0,c),
(442,0,l),
(448,36,o),
(455,79,o),
(461,114,cs),
(487,269,ls),
(512,423,o),
(437,512,o),
(280,512,cs),
(201,512,o),
(133,487,o),
(73,436,c),
(154,336,l),
(191,369,o),
(226,385,o),
(261,385,cs),
(306,385,o),
(332,351,o),
(324,305,cs),
(305,191,ls),
(296,139,o),
(268,109,o),
(228,109,cs),
(201,109,o),
(185,124,o),
(185,148,cs),
(185,197,o),
(220,216,o),
(324,225,c),
(339,315,l),
(113,294,o),
(18,238,o),
(18,127,cs),
(18,44,o),
(76,-10,o),
(167,-10,cs)
);
}
);
userData = {
com.hugojourdan.ColorFlow = {
"0" = 0;
"1" = 0;
"10" = 0;
"11" = 0;
"2" = 0;
"3" = 0;
"4" = 0;
"5" = 0;
"6" = 0;
"7" = 0;
"8" = 0;
"9" = 0;
};
};
width = 527;
}
);
metricLeft = "=o*0.98";
metricRight = "=n-10";
note = a;
unicode = 97;
userData = {
KernOnName = a;
};
},
{
glyphname = ae;
kernLeft = KO_ae;
layers = (
{
background = {
shapes = (
{
closed = 1;
nodes = (
(272,-10,o),
(333,36,o),
(357,119,c),
(345,117,l),
(344,78,o),
(347,39,o),
(354,0,c),
(392,0,l),
(385,36,o),
(382,73,o),
(382,111,cs),
(382,316,ls),
(382,433,o),
(332,490,o),
(228,490,c),
(227,462,l),
(296,462,o),
(337,410,o),
(337,322,cs),
(337,147,ls),
(337,81,o),
(270,18,o),
(199,18,cs),
(137,18,o),
(96,59,o),
(96,123,cs),
(96,203,o),
(146,230,o),
(350,260,c),
(350,287,l),
(135,270,o),
(50,222,o),
(50,118,cs),
(50,37,o),
(101,-10,o),
(187,-10,cs)
);
},
{
closed = 1;
nodes = (
(130,433,o),
(171,462,o),
(227,462,c),
(228,490,l),
(162,490,o),
(108,465,o),
(64,414,c),
(103,377,l)
);
}
);
};
layerId = m01;
shapes = (
{
closed = 1;
nodes = (
(601,-10,o),
(657,18,o),
(702,74,c),
(658,107,l),
(630,48,o),
(589,18,o),
(536,18,cs),
(450,18,o),
(396,105,o),
(398,242,cs),
(398,248,ls),
(398,381,o),
(453,460,o),
(544,460,cs),
(621,460,o),
(669,407,o),
(669,325,cs),
(669,305,o),
(666,284,o),
(658,255,c),
(701,290,l),
(376,269,l),
(376,244,l),
(705,251,l),
(711,283,o),
(713,302,o),
(713,320,cs),
(713,423,o),
(650,488,o),
(543,488,cs),
(421,488,o),
(353,398,o),
(353,240,cs),
(353,84,o),
(420,-10,o),
(536,-10,cs)
);
},
{
closed = 1;
nodes = (
(295,-10,o),
(359,39,o),
(383,131,c),
(390,131,l),
(390,316,ls),
(390,432,o),
(343,488,o),
(244,488,cs),
(178,488,o),
(124,463,o),
(80,412,c),
(119,375,l),
(146,431,o),
(187,460,o),
(243,460,cs),
(312,460,o),
(353,409,o),
(353,322,cs),
(353,147,ls),
(353,81,o),
(287,18,o),
(213,18,cs),
(154,18,o),
(112,59,o),
(112,116,cs),
(112,187,o),
(178,219,o),
(366,244,c),
(366,271,l),
(155,254,o),
(66,206,o),
(66,109,cs),
(66,36,o),
(117,-10,o),
(205,-10,cs)
);
}
);
userData = {
com.hugojourdan.ColorFlow = {
"0" = 0;
"1" = 0;
"10" = 0;
"11" = 0;
"2" = 0;
"3" = 0;
"4" = 0;
"5" = 0;
"6" = 0;
"7" = 0;
"8" = 0;
"9" = 0;
};
};
width = 780;
},
{
layerId = "BF6BA5B2-0556-42F4-A103-614BEBF16A1A";
shapes = (
{
closed = 1;
nodes = (
(647,-10,o),
(706,22,o),
(739,88,c),
(678,130,l),
(660,69,o),
(618,34,o),
(565,34,cs),
(486,34,o),
(433,121,o),
(433,247,cs),
(433,252,ls),
(433,381,o),
(483,458,o),
(565,458,cs),
(632,458,o),
(670,408,o),
(670,319,cs),
(670,292,o),
(668,280,o),
(661,253,c),
(710,297,l),
(387,275,l),
(387,243,l),
(740,250,l),
(747,267,o),
(749,283,o),
(749,310,cs),
(749,431,o),
(681,500,o),
(563,500,cs),
(431,500,o),
(350,400,o),
(350,240,cs),
(350,78,o),
(424,-10,o),
(559,-10,cs)
);
},
{
closed = 1;
nodes = (
(286,-10,o),
(360,52,o),
(374,146,c),
(423,147,l),
(423,301,ls),
(423,434,o),
(368,500,o),
(259,500,cs),
(176,500,o),
(117,472,o),
(67,410,c),
(124,360,l),
(143,422,o),
(185,456,o),
(242,456,cs),
(302,456,o),
(340,408,o),
(340,331,cs),
(340,169,ls),
(340,102,o),
(277,35,o),
(214,35,cs),
(172,35,o),
(146,64,o),
(146,111,cs),
(146,180,o),
(192,209,o),
(352,243,c),
(352,275,l),
(139,247,o),
(55,198,o),
(55,100,cs),
(55,40,o),
(113,-10,o),
(184,-10,cs)
);
}
);
userData = {
com.hugojourdan.ColorFlow = {
"0" = 0;
"1" = 0;
"10" = 0;
"11" = 0;
"2" = 0;
"3" = 0;
"4" = 0;
"5" = 0;
"6" = 0;
"7" = 0;
"8" = 0;
"9" = 0;
};
};
width = 805;
},
{
layerId = "FF73925E-1E34-445B-881D-5A7CAAA8E8BE";
shapes = (
{
closed = 1;
nodes = (
(646,-10,o),
(710,22,o),
(764,94,c),
(674,153,l),
(655,97,o),
(618,64,o),
(576,64,cs),
(516,64,o),
(485,123,o),
(485,239,cs),
(485,247,ls),
(485,361,o),
(515,438,o),
(559,438,cs),
(593,438,o),
(606,408,o),
(606,332,cs),
(606,303,o),
(603,280,o),
(595,249,c),
(642,298,l),
(433,270,l),
(433,229,l),
(753,236,l),
(760,270,o),
(764,296,o),
(764,317,cs),
(764,439,o),
(691,512,o),
(570,512,cs),
(435,512,o),
(356,416,o),
(356,251,cs),
(356,87,o),
(432,-10,o),
(559,-10,cs)
);
},
{
closed = 1;
nodes = (
(302,-10,o),
(369,45,o),
(381,142,c),
(445,142,l),
(445,288,ls),
(445,442,o),
(391,512,o),
(271,512,cs),
(178,512,o),
(108,483,o),
(49,420,c),
(122,351,l),
(149,407,o),
(194,438,o),
(247,438,cs),
(289,438,o),
(316,407,o),
(316,359,cs),
(316,154,ls),
(316,105,o),
(290,75,o),
(249,75,cs),
(215,75,o),
(193,98,o),
(193,136,cs),
(193,187,o),
(231,219,o),
(324,246,c),
(324,291,l),
(124,266,o),
(36,214,o),
(36,122,cs),
(36,41,o),
(96,-10,o),
(191,-10,cs)
);
}
);
userData = {
com.hugojourdan.ColorFlow = {
"0" = 0;
"1" = 0;
"10" = 0;
"11" = 0;
"2" = 0;
"3" = 0;
"4" = 0;
"5" = 0;
"6" = 0;
"7" = 0;
"8" = 0;
"9" = 0;
};
};
width = 801;
},
{
guides = (
{
angle = 186.6632;
pos = (351,239);
}
);
layerId = m004;
shapes = (
{
closed = 1;
nodes = (
(605,-10,o),
(655,17,o),
(698,74,c),
(660,103,l),
(628,59,o),
(585,34,o),
(539,34,cs),
(455,34,o),
(398,110,o),
(398,222,cs),
(398,248,ls),
(398,376,o),
(446,444,o),
(536,444,cs),
(617,444,o),
(665,388,o),
(665,295,cs),
(665,283,o),
(665,257,o),
(665,246,c),
(690,280,l),
(386,280,l),
(386,237,l),
(713,237,l),
(713,248,o),
(713,260,o),
(713,282,cs),
(713,413,o),
(651,488,o),
(540,488,cs),
(420,488,o),
(353,399,o),
(353,239,cs),
(353,80,o),
(419,-10,o),
(536,-10,cs)
);
},
{
closed = 1;
nodes = (
(283,-10,o),
(351,42,o),
(373,119,c),
(395,126,l),
(395,306,ls),
(395,425,o),
(342,488,o),
(244,488,cs),
(178,488,o),
(124,463,o),
(80,412,c),
(114,380,l),
(152,423,o),
(193,443,o),
(243,443,cs),
(312,443,o),
(353,399,o),
(353,322,cs),
(353,187,ls),
(353,99,o),
(295,35,o),
(215,35,cs),
(156,35,o),
(114,66,o),
(114,110,cs),
(114,183,o),
(182,218,o),
(367,239,c),
(365,282,l),
(151,257,o),
(66,208,o),
(66,108,cs),
(66,38,o),
(121,-10,o),
(203,-10,cs)
);
}
);
userData = {
com.hugojourdan.ColorFlow = {
"0" = 0;
"1" = 0;
"10" = 0;
"11" = 0;
"2" = 0;
"3" = 0;
"4" = 0;
"5" = 0;
"6" = 0;
"7" = 0;
"8" = 0;
"9" = 0;
};
};
width = 780;
},
{
layerId = m005;
shapes = (
{
closed = 1;
nodes = (
(632,-10,o),
(689,19,o),
(736,82,c),
(673,128,l),
(647,90,o),
(600,65,o),
(555,65,cs),
(479,65,o),
(433,126,o),
(433,229,cs),
(433,248,ls),
(433,363,o),
(474,425,o),
(550,425,cs),
(617,425,o),
(659,376,o),
(659,298,cs),
(659,284,o),
(659,266,o),
(659,256,c),
(692,281,l),
(402,281,l),
(402,217,l),
(747,217,l),
(748,234,o),
(749,250,o),
(749,269,cs),
(749,416,o),
(678,498,o),
(553,498,cs),
(424,498,o),
(350,405,o),
(350,242,cs),
(350,83,o),
(425,-10,o),
(554,-10,cs)
);
},
{
closed = 1;
nodes = (
(286,-10,o),
(353,37,o),
(378,116,c),
(423,117,l),
(423,305,ls),
(423,436,o),
(368,500,o),
(255,500,cs),
(176,500,o),
(117,474,o),
(69,418,c),
(123,367,l),
(157,404,o),
(197,423,o),
(241,423,cs),
(303,423,o),
(340,386,o),
(340,324,cs),
(340,190,ls),
(340,114,o),
(292,59,o),
(225,59,cs),
(177,59,o),
(145,88,o),
(145,130,cs),
(145,190,o),
(207,225,o),
(353,247,c),
(352,308,l),
(142,281,o),
(55,227,o),
(55,124,cs),
(55,43,o),
(112,-10,o),
(199,-10,cs)
);
}
);
userData = {
com.hugojourdan.ColorFlow = {
"0" = 0;
"1" = 0;
"10" = 0;
"11" = 0;
"2" = 0;
"3" = 0;
"4" = 0;
"5" = 0;
"6" = 0;
"7" = 0;
"8" = 0;
"9" = 0;
};
};
width = 805;
},
{
layerId = m006;
shapes = (
{
closed = 1;
nodes = (
(641,-10,o),
(702,22,o),
(754,94,c),
(651,167,l),
(631,136,o),
(593,113,o),
(563,113,cs),
(509,113,o),
(481,156,o),
(481,239,cs),
(481,248,ls),
(481,341,o),
(508,394,o),
(555,394,cs),
(586,394,o),
(607,359,o),
(607,306,cs),
(607,284,o),
(607,272,o),
(607,260,c),
(652,290,l),
(412,290,l),
(412,197,l),
(758,197,l),
(762,209,o),
(764,230,o),
(764,259,cs),
(764,417,o),
(690,512,o),
(568,512,cs),
(431,512,o),
(356,418,o),
(356,245,cs),
(356,86,o),
(431,-10,o),
(556,-10,cs)
);
},
{
closed = 1;
nodes = (
(284,-10,o),
(360,36,o),
(389,112,c),
(445,112,l),
(445,308,ls),
(445,445,o),
(388,512,o),
(270,512,cs),
(173,512,o),
(106,484,o),
(49,420,c),
(135,339,l),
(167,370,o),
(203,386,o),
(242,386,cs),
(284,386,o),
(316,361,o),
(316,328,cs),
(316,195,ls),
(316,137,o),
(284,97,o),
(239,97,cs),
(211,97,o),
(193,113,o),
(193,138,cs),
(193,181,o),
(241,212,o),
(330,226,c),
(330,316,l),
(125,288,o),
(36,231,o),
(36,129,cs),
(36,44,o),
(96,-10,o),
(191,-10,cs)
);
}
);
userData = {
com.hugojourdan.ColorFlow = {
"0" = 0;
"1" = 0;
"10" = 0;
"11" = 0;
"2" = 0;
"3" = 0;
"4" = 0;
"5" = 0;
"6" = 0;
"7" = 0;
"8" = 0;
"9" = 0;
};
};
width = 801;
},
{
guides = (
{
angle = 186.6632;
pos = (366,239);
}
);
layerId = "4E5694F4-F64E-4331-B998-78BE273203C7";
shapes = (
{
closed = 1;
nodes = (
(620,-10,o),
(670,17,o),
(713,74,c),
(675,103,l),
(643,59,o),
(600,34,o),
(554,34,cs),
(470,34,o),
(413,110,o),
(413,222,cs),
(413,248,ls),
(413,376,o),
(461,444,o),
(551,444,cs),
(632,444,o),
(680,388,o),
(680,295,cs),
(680,283,o),
(680,257,o),
(680,246,c),
(705,280,l),
(401,280,l),
(401,237,l),
(728,237,l),
(728,248,o),
(728,260,o),
(728,282,cs),
(728,413,o),
(666,488,o),
(555,488,cs),
(435,488,o),
(368,399,o),
(368,239,cs),
(368,80,o),
(434,-10,o),
(551,-10,cs)
);
},
{
closed = 1;
nodes = (
(298,-10,o),
(366,42,o),
(388,119,c),
(410,126,l),
(410,306,ls),
(410,425,o),
(357,488,o),
(259,488,cs),
(193,488,o),
(139,463,o),
(95,412,c),
(129,380,l),
(167,423,o),
(208,443,o),
(258,443,cs),
(327,443,o),
(368,399,o),
(368,322,cs),
(368,187,ls),
(368,99,o),
(310,35,o),
(230,35,cs),
(171,35,o),
(129,66,o),
(129,110,cs),
(129,183,o),
(197,218,o),
(382,239,c),
(380,282,l),
(166,257,o),
(81,208,o),
(81,108,cs),
(81,38,o),
(136,-10,o),
(218,-10,cs)
);
}
);
userData = {
com.hugojourdan.ColorFlow = {
"0" = 0;
"1" = 0;
"10" = 0;
"11" = 0;
"2" = 0;
"3" = 0;
"4" = 0;
"5" = 0;
"6" = 0;
"7" = 0;
"8" = 0;
"9" = 0;
};
};
width = 808;
},
{
layerId = "DF4E5521-40BA-460F-874A-364F4D14AAD8";
shapes = (
{
closed = 1;
nodes = (
(647,-10,o),
(704,19,o),
(751,82,c),
(688,128,l),
(662,90,o),
(615,65,o),
(570,65,cs),
(494,65,o),
(448,126,o),
(448,229,cs),
(448,248,ls),
(448,363,o),
(489,425,o),
(565,425,cs),
(632,425,o),
(674,376,o),
(674,298,cs),
(674,284,o),
(674,266,o),
(674,256,c),
(707,281,l),
(417,281,l),
(417,217,l),
(762,217,l),
(763,234,o),
(764,250,o),
(764,269,cs),
(764,416,o),
(693,498,o),
(568,498,cs),
(439,498,o),
(365,405,o),
(365,242,cs),
(365,83,o),
(440,-10,o),
(569,-10,cs)
);
},
{
closed = 1;
nodes = (
(301,-10,o),
(368,37,o),
(393,116,c),
(438,117,l),
(438,305,ls),
(438,436,o),
(383,500,o),
(270,500,cs),
(191,500,o),
(132,474,o),
(84,418,c),
(138,367,l),
(172,404,o),
(212,423,o),
(256,423,cs),
(318,423,o),
(355,386,o),
(355,324,cs),
(355,190,ls),
(355,114,o),
(307,59,o),
(240,59,cs),
(192,59,o),
(160,88,o),
(160,130,cs),
(160,190,o),
(222,225,o),
(368,247,c),
(367,308,l),
(157,281,o),
(70,227,o),
(70,124,cs),
(70,43,o),
(127,-10,o),
(214,-10,cs)
);
}
);
userData = {
com.hugojourdan.ColorFlow = {
"0" = 0;
"1" = 0;
"10" = 0;
"11" = 0;
"2" = 0;
"3" = 0;
"4" = 0;
"5" = 0;
"6" = 0;
"7" = 0;
"8" = 0;
"9" = 0;
};
};
width = 834;
},
{
layerId = "C6DE9ED7-34B3-46A1-8A00-A72C4A5E93A3";
shapes = (
{
closed = 1;
nodes = (
(656,-10,o),
(717,22,o),
(769,94,c),
(666,167,l),
(646,136,o),
(608,113,o),
(578,113,cs),
(524,113,o),
(496,156,o),
(496,239,cs),
(496,248,ls),
(496,341,o),
(523,394,o),
(570,394,cs),
(601,394,o),
(622,359,o),
(622,306,cs),
(622,284,o),
(622,272,o),
(622,260,c),
(667,290,l),
(427,290,l),
(427,197,l),
(773,197,l),
(777,209,o),
(779,230,o),
(779,259,cs),
(779,417,o),
(705,512,o),
(583,512,cs),
(446,512,o),
(371,418,o),
(371,245,cs),
(371,86,o),
(446,-10,o),
(571,-10,cs)
);
},
{
closed = 1;
nodes = (
(299,-10,o),
(375,36,o),
(404,112,c),
(460,112,l),
(460,308,ls),
(460,445,o),
(403,512,o),
(285,512,cs),
(188,512,o),
(121,484,o),
(64,420,c),
(150,339,l),
(182,370,o),
(218,386,o),
(257,386,cs),
(299,386,o),
(331,361,o),
(331,328,cs),
(331,195,ls),
(331,137,o),
(299,97,o),
(254,97,cs),
(226,97,o),
(208,113,o),
(208,138,cs),
(208,181,o),
(256,212,o),
(345,226,c),
(345,316,l),
(140,288,o),
(51,231,o),
(51,129,cs),
(51,44,o),
(111,-10,o),
(206,-10,cs)
);
}
);
userData = {
com.hugojourdan.ColorFlow = {
"0" = 0;
"1" = 0;
"10" = 0;
"11" = 0;
"2" = 0;
"3" = 0;
"4" = 0;
"5" = 0;
"6" = 0;
"7" = 0;
"8" = 0;
"9" = 0;
};
};
width = 832;
}
);
metricLeft = "=a";
metricRight = "=e";
unicode = 230;
},
{
glyphname = b;
kernLeft = KO_b;
kernRight = KO_p;
layers = (
{
layerId = m01;
shapes = (
{
closed = 1;
nodes = (
(410,-10,o),
(483,83,o),
(483,239,cs),
(483,395,o),
(410,488,o),
(286,488,cs),
(204,488,o),
(146,445,o),
(122,367,c),
(131,365,l),
(131,700,l),
(86,700,l),
(86,120,ls),
(86,51,o),
(85,35,o),
(76,0,c),
(114,0,l),
(123,35,o),
(124,51,o),
(124,120,c),
(117,119,l),
(142,36,o),
(201,-10,o),
(286,-10,cs)
);
},
{
closed = 1;
nodes = (
(193,18,o),
(131,90,o),
(131,196,cs),
(131,282,ls),
(131,388,o),
(193,460,o),
(283,460,cs),
(379,460,o),
(435,379,o),
(435,239,cs),
(435,99,o),
(379,18,o),
(283,18,cs)
);
}
);
userData = {
com.hugojourdan.ColorFlow = {
"0" = 0;
"1" = 0;
"10" = 0;
"11" = 0;
"2" = 0;
"3" = 0;
"4" = 0;
"5" = 0;
"6" = 0;
"7" = 0;
"8" = 0;
"9" = 0;
};
};
width = 550;
},
{
background = {
shapes = (
{
pos = (3,0);
ref = o;
}
);
};
layerId = "FF73925E-1E34-445B-881D-5A7CAAA8E8BE";
shapes = (
{
closed = 1;
nodes = (
(458,-10,o),
(535,88,o),
(535,253,cs),
(535,416,o),
(459,512,o),
(332,512,cs),
(270,512,o),
(225,491,o),
(198,449,c),
(217,427,l),
(217,700,l),
(48,700,l),
(48,112,ls),
(48,67,o),
(45,31,o),
(38,0,c),
(187,0,l),
(194,31,o),
(197,67,o),
(197,112,c),
(179,85,l),
(202,22,o),
(253,-10,o),
(330,-10,cs)
);
},
{
closed = 1;
nodes = (
(245,64,o),
(217,103,o),
(217,159,cs),
(217,343,ls),
(217,400,o),
(244,438,o),
(285,438,cs),
(335,438,o),
(361,376,o),
(361,252,cs),
(361,128,o),
(335,64,o),
(286,64,cs)
);
}
);
userData = {
com.hugojourdan.ColorFlow = {
"0" = 0;
"1" = 0;
"10" = 0;
"11" = 0;
"2" = 0;
"3" = 0;
"4" = 0;
"5" = 0;
"6" = 0;
"7" = 0;
"8" = 0;
"9" = 0;
};
};
width = 572;
},
{
background = {
shapes = (
{
pos = (19,0);
ref = o;
}
);
};
layerId = "BF6BA5B2-0556-42F4-A103-614BEBF16A1A";
shapes = (
{
closed = 1;
nodes = (
(441,-10,o),
(517,85,o),
(517,246,cs),
(517,405,o),
(441,500,o),
(312,500,cs),
(236,500,o),
(181,465,o),
(156,400,c),
(169,390,l),
(169,700,l),
(76,700,l),
(76,125,ls),
(76,80,o),
(74,43,o),
(66,0,c),
(144,0,l),
(152,43,o),
(154,80,o),
(154,125,c),
(145,107,l),
(170,31,o),
(228,-10,o),
(312,-10,cs)
);
},
{
closed = 1;
nodes = (
(219,34,o),
(169,95,o),
(169,185,cs),
(169,305,ls),
(169,395,o),
(219,456,o),
(292,456,cs),
(375,456,o),
(421,381,o),
(421,245,cs),
(421,109,o),
(376,34,o),
(293,34,cs)
);
}
);
userData = {
com.hugojourdan.ColorFlow = {
"0" = 0;
"1" = 0;
"10" = 0;
"11" = 0;
"2" = 0;
"3" = 0;
"4" = 0;
"5" = 0;
"6" = 0;
"7" = 0;
"8" = 0;
"9" = 0;
};
};
width = 573;
},
{
associatedMasterId = "BF6BA5B2-0556-42F4-A103-614BEBF16A1A";
layerId = "1541BBAC-7119-4381-9C00-EC84D554BAFD";
name = "13 Jun 23 10.49 AM";
shapes = (
{
closed = 1;
nodes = (
(419,-10,o),
(484,80,o),
(484,246,cs),
(484,410,o),
(419,500,o),
(301,500,cs),
(224,500,o),
(178,461,o),
(156,415,c),
(169,392,l),
(169,740,l),
(76,740,l),
(76,127,ls),
(76,85,o),
(76,42,o),
(66,0,c),
(144,0,l),
(151,36,o),
(155,71,o),
(153,107,c),
(148,107,l),
(148,47,o),
(216,-10,o),
(301,-10,cs)
);
},
{
closed = 1;
nodes = (
(217,34,o),
(169,86,o),
(169,140,cs),
(169,350,ls),
(169,404,o),
(217,456,o),
(270,456,cs),
(349,456,o),
(389,388,o),
(389,246,cs),
(389,102,o),
(349,34,o),
(270,34,cs)
);
}
);
userData = {
com.hugojourdan.ColorFlow = {
"0" = 0;
"1" = 0;
"10" = 0;
"11" = 0;
"2" = 0;
"3" = 0;
"4" = 0;
"5" = 0;
"6" = 0;
"7" = 0;
"8" = 0;
"9" = 0;
};
};
width = 532;
},
{
associatedMasterId = "FF73925E-1E34-445B-881D-5A7CAAA8E8BE";
background = {
shapes = (
{
pos = (31,0);
ref = o;
}
);
};
layerId = "5F2194A1-B64B-4A0A-BF1B-5989FBE92720";
name = "13 Jun 23 10.54 AM";
shapes = (
{
closed = 1;
nodes = (
(449,-10,o),
(517,83,o),
(517,250,cs),
(517,417,o),
(449,510,o),
(328,510,cs),
(283,510,o),
(245,496,o),
(217,468,c),
(217,740,l),
(48,740,l),
(48,112,ls),
(48,76,o),
(45,39,o),
(38,0,c),
(187,0,l),
(193,30,o),
(195,60,o),
(198,87,c),
(181,87,l),
(205,24,o),
(259,-10,o),
(328,-10,cs)
);
},
{
closed = 1;
nodes = (
(241,64,o),
(217,92,o),
(217,144,cs),
(217,356,ls),
(217,408,o),
(241,436,o),
(273,436,cs),
(323,436,o),
(346,369,o),
(346,250,cs),
(346,131,o),
(323,64,o),
(273,64,cs)
);
}
);
userData = {
com.hugojourdan.ColorFlow = {
"0" = 0;
"1" = 0;
"10" = 0;
"11" = 0;
"2" = 0;
"3" = 0;
"4" = 0;
"5" = 0;
"6" = 0;
"7" = 0;
"8" = 0;
"9" = 0;
};
};
width = 546;
},
{
background = {
shapes = (
{
closed = 1;
nodes = (
(411,-10,o),
(483,80,o),
(483,240,cs),
(483,400,o),
(411,490,o),
(282,490,cs),
(153,490,o),
(81,400,o),
(81,240,cs),
(81,80,o),
(153,-10,o),
(282,-10,cs)
);
},
{
closed = 1;
nodes = (
(184,32,o),
(129,107,o),
(129,240,cs),
(129,373,o),
(184,448,o),
(282,448,cs),
(380,448,o),
(435,373,o),
(435,240,cs),
(435,107,o),
(380,32,o),
(282,32,cs)
);
}
);
};
layerId = m004;
shapes = (
{
closed = 1;
nodes = (
(409,-10,o),
(483,81,o),
(483,239,cs),
(483,397,o),
(409,488,o),
(285,488,cs),
(205,488,o),
(149,450,o),
(117,372,c),
(131,358,l),
(131,700,l),
(86,700,l),
(86,120,ls),
(86,78,o),
(86,42,o),
(86,0,c),
(124,0,l),
(124,78,o),
(124,42,o),
(124,120,c),
(117,106,l),
(149,28,o),
(205,-10,o),
(285,-10,cs)
);
},
{
closed = 1;
nodes = (
(183,30,o),
(131,104,o),
(131,239,cs),
(131,239,ls),
(131,374,o),
(183,448,o),
(280,448,cs),
(380,448,o),
(435,374,o),
(435,239,cs),
(435,104,o),
(380,30,o),
(280,30,cs)
);
}
);
userData = {
com.hugojourdan.ColorFlow = {
"0" = 0;
"1" = 0;
"10" = 0;
"11" = 0;
"2" = 0;
"3" = 0;
"4" = 0;
"5" = 0;
"6" = 0;
"7" = 0;
"8" = 0;
"9" = 0;
};
};
width = 550;
},
{
background = {
shapes = (
{
pos = (19,0);
ref = o;
}
);
};
layerId = m005;
shapes = (
{
closed = 1;
nodes = (
(440,-10,o),
(517,88,o),
(517,245,cs),
(517,401,o),
(440,500,o),
(317,500,cs),
(232,500,o),
(169,456,o),
(146,379,c),
(169,385,l),
(169,700,l),
(76,700,l),
(76,125,ls),
(76,77,o),
(76,48,o),
(76,0,c),
(157,0,l),
(157,48,o),
(157,77,o),
(157,125,c),
(142,111,l),
(166,35,o),
(231,-10,o),
(317,-10,cs)
);
},
{
closed = 1;
nodes = (
(214,67,o),
(169,130,o),
(169,245,cs),
(169,245,ls),
(169,358,o),
(215,423,o),
(295,423,cs),
(374,423,o),
(421,357,o),
(421,245,cs),
(421,133,o),
(374,67,o),
(295,67,cs)
);
}
);
userData = {
com.hugojourdan.ColorFlow = {
"0" = 0;
"1" = 0;
"10" = 0;
"11" = 0;
"2" = 0;
"3" = 0;
"4" = 0;
"5" = 0;
"6" = 0;
"7" = 0;
"8" = 0;
"9" = 0;
};
};
width = 573;
},
{
layerId = m006;
shapes = (
{
closed = 1;
nodes = (
(465,-10,o),
(535,81,o),
(535,251,cs),
(535,421,o),
(465,512,o),
(336,512,cs),
(256,512,o),
(204,476,o),
(181,405,c),
(217,390,l),
(217,700,l),
(48,700,l),
(48,112,ls),
(48,76,o),
(48,36,o),
(48,0,c),
(198,0,l),
(198,36,o),
(198,75,o),
(198,112,c),
(181,97,l),
(204,26,o),
(256,-10,o),
(336,-10,cs)
);
},
{
closed = 1;
nodes = (
(241,122,o),
(217,165,o),
(217,251,cs),
(217,251,ls),
(217,337,o),
(241,380,o),
(289,380,cs),
(337,380,o),
(361,337,o),
(361,251,cs),
(361,165,o),
(337,122,o),
(289,122,cs)
);
}
);
userData = {
com.hugojourdan.ColorFlow = {
"0" = 0;
"1" = 0;
"10" = 0;
"11" = 0;
"2" = 0;
"3" = 0;
"4" = 0;
"5" = 0;
"6" = 0;
"7" = 0;
"8" = 0;
"9" = 0;
};
};
width = 572;
},
{
background = {
shapes = (
{
ref = n;
}
);
};
guides = (
{
angle = 80.5;
pos = (86,239);
},
{
angle = 80.5;
pos = (131,239);
}
);
layerId = "4E5694F4-F64E-4331-B998-78BE273203C7";
shapes = (
{
closed = 1;
nodes = (
(437,-10,o),
(485,173,o),
(485,288,cs),
(485,440,o),
(401,488,o),
(314,488,cs),
(221,488,o),
(165,434,o),
(133,367,c),
(151,358,l),
(208,700,l),
(163,700,l),
(66,120,ls),
(59,78,o),
(53,42,o),
(46,0,c),
(84,0,l),
(91,42,o),
(97,78,o),
(104,120,c),
(101,119,l),
(123,23,o),
(190,-10,o),
(266,-10,cs)
);
},
{
closed = 1;
nodes = (
(174,30,o),
(129,89,o),
(129,190,cs),
(129,190,ls),
(129,276,o),
(164,448,o),
(306,448,cs),
(392,448,o),
(437,389,o),
(437,288,cs),
(437,202,o),
(402,30,o),
(260,30,cs)
);
}
);
userData = {
com.hugojourdan.ColorFlow = {
"0" = 0;
"1" = 0;
"10" = 0;
"11" = 0;
"2" = 0;
"3" = 0;
"4" = 0;
"5" = 0;
"6" = 0;
"7" = 0;
"8" = 0;
"9" = 0;
};
};
width = 550;
},
{
background = {
guides = (
{
pos = (541,125);
}
);
shapes = (
{
closed = 1;
nodes = (
(207,67,o),
(165,116,o),
(165,201,cs),
(165,272,o),
(191,423,o),
(311,423,cs),
(381,423,o),
(423,374,o),
(423,289,cs),
(423,218,o),
(397,67,o),
(277,67,cs)
);
}
);
};
guides = (
{
angle = 80.5;
pos = (76,245);
},
{
angle = 80.5;
pos = (169,245);
},
{
angle = 80.5;
pos = (517,245);
},
{
angle = 80.5;
pos = (421,245);
}
);
layerId = "DF4E5521-40BA-460F-874A-364F4D14AAD8";
shapes = (
{
closed = 1;
nodes = (
(442,-10,o),
(518,141,o),
(518,287,cs),
(518,412,o),
(453,500,o),
(338,500,cs),
(262,500,o),
(202,462,o),
(169,394,c),
(192,383,l),
(245,700,l),
(152,700,l),
(56,125,ls),
(48,77,o),
(43,48,o),
(35,0,c),
(116,0,l),
(124,48,o),
(129,77,o),
(137,125,c),
(121,121,l),
(135,32,o),
(210,-10,o),
(284,-10,cs)
);
},
{
closed = 1;
nodes = (
(209,67,o),
(167,116,o),
(167,201,cs),
(167,201,ls),
(167,277,o),
(193,423,o),
(312,423,cs),
(381,423,o),
(423,374,o),
(423,289,cs),
(423,213,o),
(397,67,o),
(278,67,cs)
);
}
);
userData = {
com.hugojourdan.ColorFlow = {
"0" = 0;
"1" = 0;
"10" = 0;
"11" = 0;
"2" = 0;
"3" = 0;
"4" = 0;
"5" = 0;
"6" = 0;
"7" = 0;
"8" = 0;
"9" = 0;
};
};
width = 573;
},
{
guides = (
{
angle = 80.5;
pos = (48,251);
},
{
angle = 80.5;
pos = (535,251);
},
{
angle = 80.5;
pos = (361,251);
},
{
angle = 80.5;
pos = (217,251);
}
);
layerId = "C6DE9ED7-34B3-46A1-8A00-A72C4A5E93A3";
shapes = (
{
closed = 1;
nodes = (
(492,-10,o),
(538,192,o),
(538,306,cs),
(538,438,o),
(476,512,o),
(367,512,cs),
(292,512,o),
(243,477,o),
(206,407,c),
(240,389,l),
(292,700,l),
(123,700,l),
(25,114,ls),
(19,78,o),
(12,36,o),
(6,0,c),
(156,0,l),
(162,36,o),
(169,78,o),
(175,114,c),
(153,110,l),
(164,35,o),
(217,-10,o),
(305,-10,cs)
);
},
{
closed = 1;
nodes = (
(233,122,o),
(213,149,o),
(213,203,cs),
(213,203,ls),
(213,247,o),
(229,380,o),
(304,380,cs),
(345,380,o),
(365,353,o),
(365,299,cs),
(365,257,o),
(350,122,o),
(274,122,cs)
);
}
);
userData = {
com.hugojourdan.ColorFlow = {
"0" = 0;
"1" = 0;
"10" = 0;
"11" = 0;
"2" = 0;
"3" = 0;
"4" = 0;
"5" = 0;
"6" = 0;
"7" = 0;
"8" = 0;
"9" = 0;
};
};
width = 572;
}
);
metricLeft = "=n";
metricRight = "=o";
note = b;
unicode = 98;
},
